<ttFont>
    <TTGlyph name=".ttfautohint" xMin="0" yMin="0" xMax="0" yMax="0">
      <contour>
        <pt x="0" y="0" on="1"/>
      </contour>
    </TTGlyph>
    <TTGlyph name="A" xMin="35" yMin="-29" xMax="1534" yMax="1574">
      <contour>
        <pt x="35" y="77" on="1"/>
        <pt x="35" y="109" on="0"/>
        <pt x="53" y="174" on="0"/>
        <pt x="77" y="207" on="1"/>
        <pt x="94" y="236" on="0"/>
        <pt x="153" y="354" on="0"/>
        <pt x="227" y="514" on="0"/>
        <pt x="312" y="703" on="0"/>
        <pt x="400" y="900" on="0"/>
        <pt x="487" y="1097" on="0"/>
        <pt x="565" y="1270" on="0"/>
        <pt x="629" y="1410" on="0"/>
        <pt x="651" y="1453" on="1"/>
        <pt x="654" y="1475" on="0"/>
        <pt x="672" y="1518" on="0"/>
        <pt x="702" y="1553" on="0"/>
        <pt x="744" y="1574" on="0"/>
        <pt x="772" y="1574" on="1"/>
        <pt x="808" y="1574" on="0"/>
        <pt x="853" y="1554" on="0"/>
        <pt x="882" y="1519" on="0"/>
        <pt x="900" y="1473" on="0"/>
        <pt x="909" y="1447" on="1"/>
        <pt x="917" y="1424" on="0"/>
        <pt x="931" y="1383" on="0"/>
        <pt x="937" y="1372" on="1"/>
        <pt x="1004" y="1238" on="0"/>
        <pt x="1131" y="966" on="0"/>
        <pt x="1256" y="685" on="0"/>
        <pt x="1384" y="397" on="0"/>
        <pt x="1453" y="248" on="1"/>
        <pt x="1472" y="220" on="1"/>
        <pt x="1480" y="209" on="0"/>
        <pt x="1502" y="178" on="0"/>
        <pt x="1521" y="142" on="0"/>
        <pt x="1534" y="102" on="0"/>
        <pt x="1534" y="82" on="1"/>
        <pt x="1534" y="22" on="0"/>
        <pt x="1466" y="-29" on="0"/>
        <pt x="1417" y="-29" on="1"/>
        <pt x="1390" y="-29" on="0"/>
        <pt x="1345" y="-12" on="0"/>
        <pt x="1311" y="17" on="0"/>
        <pt x="1291" y="56" on="0"/>
        <pt x="1288" y="78" on="1"/>
        <pt x="1260" y="139" on="0"/>
        <pt x="1212" y="246" on="0"/>
        <pt x="1167" y="346" on="0"/>
        <pt x="1125" y="441" on="0"/>
        <pt x="1104" y="489" on="1"/>
        <pt x="1088" y="489" on="0"/>
        <pt x="1030" y="490" on="0"/>
        <pt x="994" y="492" on="1"/>
        <pt x="937" y="492" on="0"/>
        <pt x="820" y="494" on="0"/>
        <pt x="698" y="495" on="0"/>
        <pt x="568" y="494" on="0"/>
        <pt x="497" y="491" on="1"/>
        <pt x="486" y="490" on="0"/>
        <pt x="466" y="489" on="0"/>
        <pt x="455" y="489" on="1"/>
        <pt x="427" y="421" on="0"/>
        <pt x="377" y="298" on="0"/>
        <pt x="337" y="194" on="0"/>
        <pt x="306" y="113" on="0"/>
        <pt x="298" y="88" on="1"/>
        <pt x="298" y="89" on="1"/>
        <pt x="292" y="67" on="0"/>
        <pt x="277" y="25" on="0"/>
        <pt x="249" y="-8" on="0"/>
        <pt x="200" y="-29" on="0"/>
        <pt x="160" y="-29" on="1"/>
        <pt x="106" y="-29" on="0"/>
        <pt x="35" y="25" on="0"/>
      </contour>
      <contour>
        <pt x="546" y="707" on="1"/>
        <pt x="567" y="707" on="0"/>
        <pt x="634" y="707" on="0"/>
        <pt x="741" y="706" on="0"/>
        <pt x="897" y="705" on="0"/>
        <pt x="1008" y="704" on="1"/>
        <pt x="962" y="804" on="0"/>
        <pt x="846" y="1055" on="0"/>
        <pt x="767" y="1222" on="1"/>
        <pt x="744" y="1171" on="0"/>
        <pt x="692" y="1049" on="0"/>
        <pt x="635" y="917" on="0"/>
        <pt x="576" y="777" on="0"/>
      </contour>
    </TTGlyph>
    <TTGlyph name="AE" xMin="-60" yMin="-28" xMax="1857" yMax="1554">
      <contour>
        <pt x="70" y="-28" on="1"/>
        <pt x="44" y="-28" on="0"/>
        <pt x="-3" y="-12" on="0"/>
        <pt x="-39" y="18" on="0"/>
        <pt x="-60" y="62" on="0"/>
        <pt x="-60" y="90" on="1"/>
        <pt x="-60" y="128" on="0"/>
        <pt x="-34" y="179" on="0"/>
        <pt x="-7" y="211" on="1"/>
        <pt x="14" y="237" on="0"/>
        <pt x="90" y="346" on="0"/>
        <pt x="190" y="494" on="0"/>
        <pt x="308" y="672" on="0"/>
        <pt x="433" y="862" on="0"/>
        <pt x="558" y="1056" on="0"/>
        <pt x="672" y="1236" on="0"/>
        <pt x="769" y="1394" on="0"/>
        <pt x="804" y="1452" on="1"/>
        <pt x="829" y="1502" on="0"/>
        <pt x="912" y="1554" on="0"/>
        <pt x="974" y="1554" on="1"/>
        <pt x="980" y="1554" on="0"/>
        <pt x="1001" y="1552" on="0"/>
        <pt x="1023" y="1550" on="0"/>
        <pt x="1045" y="1546" on="0"/>
        <pt x="1052" y="1545" on="1"/>
        <pt x="1519" y="1545" on="1"/>
        <pt x="1580" y="1545" on="0"/>
        <pt x="1653" y="1534" on="0"/>
        <pt x="1691" y="1511" on="0"/>
        <pt x="1702" y="1474" on="0"/>
        <pt x="1702" y="1448" on="1"/>
        <pt x="1702" y="1406" on="0"/>
        <pt x="1680" y="1361" on="0"/>
        <pt x="1644" y="1340" on="0"/>
        <pt x="1600" y="1335" on="0"/>
        <pt x="1578" y="1335" on="1"/>
        <pt x="1095" y="1334" on="1"/>
        <pt x="1101" y="1015" on="1"/>
        <pt x="1125" y="1015" on="0"/>
        <pt x="1204" y="1014" on="0"/>
        <pt x="1295" y="1014" on="0"/>
        <pt x="1391" y="1014" on="0"/>
        <pt x="1472" y="1014" on="0"/>
        <pt x="1530" y="1014" on="0"/>
        <pt x="1538" y="1014" on="1"/>
        <pt x="1573" y="1014" on="0"/>
        <pt x="1646" y="1023" on="0"/>
        <pt x="1688" y="1023" on="1"/>
        <pt x="1715" y="1023" on="0"/>
        <pt x="1757" y="1001" on="0"/>
        <pt x="1785" y="968" on="0"/>
        <pt x="1800" y="930" on="0"/>
        <pt x="1800" y="913" on="1"/>
        <pt x="1800" y="859" on="0"/>
        <pt x="1730" y="809" on="0"/>
        <pt x="1674" y="809" on="1"/>
        <pt x="1101" y="808" on="1"/>
        <pt x="1101" y="665" on="0"/>
        <pt x="1101" y="467" on="0"/>
        <pt x="1102" y="334" on="0"/>
        <pt x="1103" y="257" on="0"/>
        <pt x="1104" y="215" on="0"/>
        <pt x="1105" y="197" on="0"/>
        <pt x="1106" y="190" on="1"/>
        <pt x="1555" y="190" on="1"/>
        <pt x="1578" y="190" on="0"/>
        <pt x="1623" y="199" on="0"/>
        <pt x="1668" y="210" on="0"/>
        <pt x="1714" y="219" on="0"/>
        <pt x="1738" y="219" on="1"/>
        <pt x="1764" y="219" on="0"/>
        <pt x="1808" y="209" on="0"/>
        <pt x="1839" y="185" on="0"/>
        <pt x="1857" y="143" on="0"/>
        <pt x="1857" y="111" on="1"/>
        <pt x="1857" y="91" on="0"/>
        <pt x="1852" y="52" on="0"/>
        <pt x="1818" y="21" on="0"/>
        <pt x="1742" y="1" on="0"/>
        <pt x="1672" y="0" on="1"/>
        <pt x="981" y="0" on="1"/>
        <pt x="930" y="-1" on="0"/>
        <pt x="863" y="54" on="0"/>
        <pt x="863" y="111" on="1"/>
        <pt x="863" y="131" on="0"/>
        <pt x="871" y="177" on="0"/>
        <pt x="885" y="190" on="1"/>
        <pt x="878" y="498" on="1"/>
        <pt x="847" y="500" on="0"/>
        <pt x="789" y="501" on="0"/>
        <pt x="757" y="501" on="1"/>
        <pt x="731" y="501" on="0"/>
        <pt x="675" y="500" on="0"/>
        <pt x="601" y="498" on="0"/>
        <pt x="504" y="494" on="0"/>
        <pt x="437" y="492" on="1"/>
        <pt x="399" y="433" on="0"/>
        <pt x="330" y="324" on="0"/>
        <pt x="272" y="226" on="0"/>
        <pt x="227" y="144" on="0"/>
        <pt x="213" y="114" on="1"/>
        <pt x="201" y="80" on="0"/>
        <pt x="180" y="27" on="0"/>
        <pt x="150" y="-10" on="0"/>
        <pt x="105" y="-28" on="0"/>
      </contour>
      <contour>
        <pt x="875" y="713" on="1"/>
        <pt x="866" y="1142" on="1"/>
        <pt x="797" y="1034" on="0"/>
        <pt x="651" y="822" on="0"/>
        <pt x="576" y="709" on="1"/>
      </contour>
    </TTGlyph>
    <TTGlyph name="AEacute" xMin="-60" yMin="-28" xMax="1857" yMax="2010">
      <component glyphName=".ttfautohint" x="0" y="0" flags="0x0"/>
      <component glyphName="AE" x="0" y="0" flags="0x204"/>
      <component glyphName="acute.cap" x="746" y="0" flags="0x4"/>
    </TTGlyph>
    <TTGlyph name="Aacute" xMin="35" yMin="-29" xMax="1534" yMax="2010">
      <component glyphName=".ttfautohint" x="35" y="0" flags="0x0"/>
      <component glyphName="A" x="0" y="0" flags="0x204"/>
      <component glyphName="acute.cap" x="448" y="0" flags="0x4"/>
    </TTGlyph>
    <TTGlyph name="Abreve" xMin="35" yMin="-29" xMax="1534" yMax="2003">
      <component glyphName=".ttfautohint" x="35" y="0" flags="0x0"/>
      <component glyphName="A" x="0" y="0" flags="0x204"/>
      <component glyphName="breve.cap" x="280" y="0" flags="0x4"/>
    </TTGlyph>
    <TTGlyph name="Acircumflex" xMin="35" yMin="-29" xMax="1534" yMax="2010">
      <component glyphName=".ttfautohint" x="35" y="0" flags="0x0"/>
      <component glyphName="A" x="0" y="0" flags="0x204"/>
      <component glyphName="circumflex.cap" x="280" y="0" flags="0x4"/>
    </TTGlyph>
    <TTGlyph name="Adieresis" xMin="35" yMin="-29" xMax="1534" yMax="1968">
      <component glyphName=".ttfautohint" x="35" y="0" flags="0x0"/>
      <component glyphName="A" x="0" y="0" flags="0x204"/>
      <component glyphName="dieresis.cap" x="280" y="0" flags="0x4"/>
    </TTGlyph>
    <TTGlyph name="Agrave" xMin="35" yMin="-29" xMax="1534" yMax="2010">
      <component glyphName=".ttfautohint" x="35" y="0" flags="0x0"/>
      <component glyphName="A" x="0" y="0" flags="0x204"/>
      <component glyphName="grave.cap" x="448" y="0" flags="0x4"/>
    </TTGlyph>
    <TTGlyph name="Amacron" xMin="35" yMin="-29" xMax="1534" yMax="1841">
      <component glyphName=".ttfautohint" x="35" y="0" flags="0x0"/>
      <component glyphName="A" x="0" y="0" flags="0x204"/>
      <component glyphName="macron.cap" x="280" y="0" flags="0x4"/>
    </TTGlyph>
    <TTGlyph name="Aogonek" xMin="35" yMin="-501" xMax="1534" yMax="1574">
      <contour>
        <pt x="35" y="77" on="1"/>
        <pt x="35" y="109" on="0"/>
        <pt x="53" y="174" on="0"/>
        <pt x="77" y="207" on="1"/>
        <pt x="94" y="236" on="0"/>
        <pt x="153" y="354" on="0"/>
        <pt x="227" y="514" on="0"/>
        <pt x="312" y="703" on="0"/>
        <pt x="400" y="900" on="0"/>
        <pt x="487" y="1097" on="0"/>
        <pt x="565" y="1270" on="0"/>
        <pt x="629" y="1410" on="0"/>
        <pt x="651" y="1453" on="1"/>
        <pt x="654" y="1475" on="0"/>
        <pt x="672" y="1518" on="0"/>
        <pt x="702" y="1553" on="0"/>
        <pt x="744" y="1574" on="0"/>
        <pt x="772" y="1574" on="1"/>
        <pt x="808" y="1574" on="0"/>
        <pt x="853" y="1554" on="0"/>
        <pt x="882" y="1519" on="0"/>
        <pt x="900" y="1473" on="0"/>
        <pt x="909" y="1447" on="1"/>
        <pt x="917" y="1424" on="0"/>
        <pt x="931" y="1383" on="0"/>
        <pt x="937" y="1372" on="1"/>
        <pt x="1004" y="1238" on="0"/>
        <pt x="1131" y="966" on="0"/>
        <pt x="1256" y="685" on="0"/>
        <pt x="1384" y="397" on="0"/>
        <pt x="1453" y="248" on="1"/>
        <pt x="1472" y="220" on="1"/>
        <pt x="1480" y="209" on="0"/>
        <pt x="1502" y="178" on="0"/>
        <pt x="1521" y="142" on="0"/>
        <pt x="1534" y="102" on="0"/>
        <pt x="1534" y="82" on="1"/>
        <pt x="1534" y="22" on="0"/>
        <pt x="1466" y="-29" on="0"/>
        <pt x="1417" y="-29" on="1"/>
        <pt x="1392" y="-29" on="0"/>
        <pt x="1351" y="-15" on="0"/>
        <pt x="1335" y="-4" on="1"/>
        <pt x="1303" y="-21" on="0"/>
        <pt x="1238" y="-65" on="0"/>
        <pt x="1186" y="-117" on="0"/>
        <pt x="1152" y="-177" on="0"/>
        <pt x="1152" y="-209" on="1"/>
        <pt x="1152" y="-232" on="0"/>
        <pt x="1164" y="-265" on="0"/>
        <pt x="1183" y="-287" on="0"/>
        <pt x="1207" y="-298" on="0"/>
        <pt x="1218" y="-298" on="1"/>
        <pt x="1256" y="-298" on="0"/>
        <pt x="1321" y="-275" on="0"/>
        <pt x="1356" y="-240" on="1"/>
        <pt x="1371" y="-226" on="0"/>
        <pt x="1413" y="-213" on="0"/>
        <pt x="1430" y="-213" on="1"/>
        <pt x="1451" y="-213" on="0"/>
        <pt x="1487" y="-231" on="0"/>
        <pt x="1515" y="-260" on="0"/>
        <pt x="1531" y="-297" on="0"/>
        <pt x="1531" y="-316" on="1"/>
        <pt x="1531" y="-358" on="0"/>
        <pt x="1475" y="-426" on="0"/>
        <pt x="1386" y="-474" on="0"/>
        <pt x="1279" y="-501" on="0"/>
        <pt x="1228" y="-501" on="1"/>
        <pt x="1174" y="-501" on="0"/>
        <pt x="1066" y="-479" on="0"/>
        <pt x="978" y="-419" on="0"/>
        <pt x="923" y="-313" on="0"/>
        <pt x="923" y="-229" on="1"/>
        <pt x="923" y="-181" on="0"/>
        <pt x="974" y="-74" on="0"/>
        <pt x="1064" y="26" on="0"/>
        <pt x="1187" y="111" on="0"/>
        <pt x="1260" y="138" on="1"/>
        <pt x="1215" y="238" on="0"/>
        <pt x="1141" y="405" on="0"/>
        <pt x="1104" y="489" on="1"/>
        <pt x="1088" y="489" on="0"/>
        <pt x="1030" y="490" on="0"/>
        <pt x="994" y="492" on="1"/>
        <pt x="937" y="492" on="0"/>
        <pt x="820" y="494" on="0"/>
        <pt x="698" y="495" on="0"/>
        <pt x="568" y="494" on="0"/>
        <pt x="497" y="491" on="1"/>
        <pt x="486" y="490" on="0"/>
        <pt x="466" y="489" on="0"/>
        <pt x="455" y="489" on="1"/>
        <pt x="427" y="421" on="0"/>
        <pt x="377" y="298" on="0"/>
        <pt x="337" y="194" on="0"/>
        <pt x="306" y="113" on="0"/>
        <pt x="298" y="88" on="1"/>
        <pt x="298" y="89" on="1"/>
        <pt x="292" y="67" on="0"/>
        <pt x="277" y="25" on="0"/>
        <pt x="249" y="-8" on="0"/>
        <pt x="200" y="-29" on="0"/>
        <pt x="160" y="-29" on="1"/>
        <pt x="106" y="-29" on="0"/>
        <pt x="35" y="25" on="0"/>
      </contour>
      <contour>
        <pt x="546" y="707" on="1"/>
        <pt x="567" y="707" on="0"/>
        <pt x="634" y="707" on="0"/>
        <pt x="741" y="706" on="0"/>
        <pt x="897" y="705" on="0"/>
        <pt x="1008" y="704" on="1"/>
        <pt x="962" y="804" on="0"/>
        <pt x="846" y="1055" on="0"/>
        <pt x="767" y="1222" on="1"/>
        <pt x="744" y="1171" on="0"/>
        <pt x="692" y="1049" on="0"/>
        <pt x="635" y="917" on="0"/>
        <pt x="576" y="777" on="0"/>
      </contour>
    </TTGlyph>
    <TTGlyph name="Aring" xMin="35" yMin="-29" xMax="1534" yMax="2012">
      <contour>
        <pt x="35" y="77" on="1"/>
        <pt x="35" y="109" on="0"/>
        <pt x="53" y="174" on="0"/>
        <pt x="77" y="207" on="1"/>
        <pt x="94" y="235" on="0"/>
        <pt x="149" y="346" on="0"/>
        <pt x="218" y="496" on="0"/>
        <pt x="299" y="675" on="0"/>
        <pt x="383" y="863" on="0"/>
        <pt x="467" y="1053" on="0"/>
        <pt x="544" y="1225" on="0"/>
        <pt x="611" y="1370" on="0"/>
        <pt x="635" y="1420" on="1"/>
        <pt x="551" y="1448" on="0"/>
        <pt x="450" y="1586" on="0"/>
        <pt x="450" y="1699" on="1"/>
        <pt x="450" y="1791" on="0"/>
        <pt x="512" y="1912" on="0"/>
        <pt x="613" y="1983" on="0"/>
        <pt x="738" y="2012" on="0"/>
        <pt x="801" y="2012" on="1"/>
        <pt x="872" y="2012" on="0"/>
        <pt x="986" y="1960" on="0"/>
        <pt x="1066" y="1872" on="0"/>
        <pt x="1109" y="1756" on="0"/>
        <pt x="1109" y="1692" on="1"/>
        <pt x="1109" y="1638" on="0"/>
        <pt x="1080" y="1552" on="0"/>
        <pt x="1029" y="1484" on="0"/>
        <pt x="958" y="1437" on="0"/>
        <pt x="917" y="1422" on="1"/>
        <pt x="928" y="1388" on="0"/>
        <pt x="937" y="1372" on="1"/>
        <pt x="1004" y="1238" on="0"/>
        <pt x="1131" y="966" on="0"/>
        <pt x="1256" y="685" on="0"/>
        <pt x="1384" y="397" on="0"/>
        <pt x="1453" y="248" on="1"/>
        <pt x="1472" y="220" on="1"/>
        <pt x="1480" y="209" on="0"/>
        <pt x="1502" y="178" on="0"/>
        <pt x="1521" y="142" on="0"/>
        <pt x="1534" y="102" on="0"/>
        <pt x="1534" y="82" on="1"/>
        <pt x="1534" y="22" on="0"/>
        <pt x="1466" y="-29" on="0"/>
        <pt x="1417" y="-29" on="1"/>
        <pt x="1390" y="-29" on="0"/>
        <pt x="1345" y="-12" on="0"/>
        <pt x="1311" y="17" on="0"/>
        <pt x="1291" y="56" on="0"/>
        <pt x="1288" y="78" on="1"/>
        <pt x="1260" y="139" on="0"/>
        <pt x="1212" y="246" on="0"/>
        <pt x="1167" y="346" on="0"/>
        <pt x="1125" y="441" on="0"/>
        <pt x="1104" y="489" on="1"/>
        <pt x="1088" y="489" on="0"/>
        <pt x="1030" y="490" on="0"/>
        <pt x="994" y="492" on="1"/>
        <pt x="937" y="492" on="0"/>
        <pt x="820" y="494" on="0"/>
        <pt x="698" y="495" on="0"/>
        <pt x="568" y="494" on="0"/>
        <pt x="497" y="491" on="1"/>
        <pt x="486" y="490" on="0"/>
        <pt x="466" y="489" on="0"/>
        <pt x="455" y="489" on="1"/>
        <pt x="427" y="421" on="0"/>
        <pt x="377" y="298" on="0"/>
        <pt x="337" y="194" on="0"/>
        <pt x="306" y="113" on="0"/>
        <pt x="298" y="88" on="1"/>
        <pt x="298" y="89" on="1"/>
        <pt x="292" y="67" on="0"/>
        <pt x="277" y="25" on="0"/>
        <pt x="249" y="-8" on="0"/>
        <pt x="200" y="-29" on="0"/>
        <pt x="160" y="-29" on="1"/>
        <pt x="106" y="-29" on="0"/>
        <pt x="35" y="25" on="0"/>
      </contour>
      <contour>
        <pt x="785" y="1576" on="1"/>
        <pt x="806" y="1576" on="0"/>
        <pt x="853" y="1588" on="0"/>
        <pt x="893" y="1615" on="0"/>
        <pt x="920" y="1656" on="0"/>
        <pt x="920" y="1686" on="1"/>
        <pt x="920" y="1725" on="0"/>
        <pt x="899" y="1781" on="0"/>
        <pt x="864" y="1817" on="0"/>
        <pt x="817" y="1834" on="0"/>
        <pt x="792" y="1834" on="1"/>
        <pt x="772" y="1834" on="0"/>
        <pt x="720" y="1824" on="0"/>
        <pt x="672" y="1794" on="0"/>
        <pt x="639" y="1738" on="0"/>
        <pt x="639" y="1692" on="1"/>
        <pt x="639" y="1659" on="0"/>
        <pt x="665" y="1614" on="0"/>
        <pt x="707" y="1587" on="0"/>
        <pt x="759" y="1576" on="0"/>
      </contour>
      <contour>
        <pt x="546" y="707" on="1"/>
        <pt x="567" y="707" on="0"/>
        <pt x="634" y="707" on="0"/>
        <pt x="741" y="706" on="0"/>
        <pt x="897" y="705" on="0"/>
        <pt x="1008" y="704" on="1"/>
        <pt x="962" y="804" on="0"/>
        <pt x="846" y="1055" on="0"/>
        <pt x="767" y="1222" on="1"/>
        <pt x="744" y="1171" on="0"/>
        <pt x="692" y="1049" on="0"/>
        <pt x="635" y="917" on="0"/>
        <pt x="576" y="777" on="0"/>
      </contour>
    </TTGlyph>
    <TTGlyph name="Atilde" xMin="35" yMin="-29" xMax="1534" yMax="2010">
      <component glyphName=".ttfautohint" x="35" y="0" flags="0x0"/>
      <component glyphName="A" x="0" y="0" flags="0x204"/>
      <component glyphName="tilde.cap" x="280" y="0" flags="0x4"/>
    </TTGlyph>
    <TTGlyph name="B" xMin="196" yMin="-20" xMax="1337" yMax="1562">
      <contour>
        <pt x="200" y="75" on="1"/>
        <pt x="196" y="102" on="0"/>
        <pt x="207" y="163" on="0"/>
        <pt x="212" y="187" on="1"/>
        <pt x="214" y="292" on="0"/>
        <pt x="215" y="509" on="0"/>
        <pt x="213" y="765" on="0"/>
        <pt x="211" y="1075" on="0"/>
        <pt x="211" y="1273" on="1"/>
        <pt x="199" y="1408" on="1"/>
        <pt x="199" y="1450" on="0"/>
        <pt x="207" y="1504" on="0"/>
        <pt x="232" y="1536" on="0"/>
        <pt x="277" y="1548" on="0"/>
        <pt x="313" y="1548" on="1"/>
        <pt x="363" y="1548" on="0"/>
        <pt x="461" y="1551" on="0"/>
        <pt x="511" y="1553" on="1"/>
        <pt x="562" y="1555" on="0"/>
        <pt x="661" y="1562" on="0"/>
        <pt x="714" y="1562" on="1"/>
        <pt x="749" y="1562" on="0"/>
        <pt x="854" y="1558" on="0"/>
        <pt x="969" y="1533" on="0"/>
        <pt x="1084" y="1481" on="0"/>
        <pt x="1175" y="1385" on="0"/>
        <pt x="1232" y="1238" on="0"/>
        <pt x="1232" y="1131" on="1"/>
        <pt x="1232" y="1039" on="0"/>
        <pt x="1156" y="885" on="0"/>
        <pt x="1097" y="828" on="1"/>
        <pt x="1122" y="818" on="0"/>
        <pt x="1168" y="792" on="0"/>
        <pt x="1205" y="765" on="0"/>
        <pt x="1232" y="740" on="0"/>
        <pt x="1239" y="732" on="1"/>
        <pt x="1282" y="679" on="0"/>
        <pt x="1337" y="546" on="0"/>
        <pt x="1337" y="481" on="1"/>
        <pt x="1337" y="369" on="0"/>
        <pt x="1290" y="208" on="0"/>
        <pt x="1204" y="97" on="0"/>
        <pt x="1082" y="29" on="0"/>
        <pt x="931" y="-8" on="0"/>
        <pt x="754" y="-20" on="0"/>
        <pt x="657" y="-20" on="1"/>
        <pt x="640" y="-20" on="0"/>
        <pt x="578" y="-16" on="0"/>
        <pt x="504" y="-9" on="0"/>
        <pt x="426" y="1" on="0"/>
        <pt x="393" y="7" on="1"/>
        <pt x="368" y="-4" on="0"/>
        <pt x="325" y="-4" on="1"/>
        <pt x="271" y="-4" on="0"/>
        <pt x="206" y="33" on="0"/>
      </contour>
      <contour>
        <pt x="435" y="892" on="1"/>
        <pt x="472" y="887" on="0"/>
        <pt x="548" y="880" on="0"/>
        <pt x="578" y="880" on="1"/>
        <pt x="697" y="880" on="0"/>
        <pt x="861" y="898" on="0"/>
        <pt x="963" y="951" on="0"/>
        <pt x="1008" y="1045" on="0"/>
        <pt x="1008" y="1121" on="1"/>
        <pt x="1008" y="1184" on="0"/>
        <pt x="974" y="1272" on="0"/>
        <pt x="901" y="1327" on="0"/>
        <pt x="788" y="1352" on="0"/>
        <pt x="710" y="1352" on="1"/>
        <pt x="681" y="1352" on="0"/>
        <pt x="550" y="1351" on="0"/>
        <pt x="435" y="1346" on="1"/>
        <pt x="435" y="1344" on="1"/>
        <pt x="435" y="1342" on="0"/>
        <pt x="436" y="1339" on="0"/>
        <pt x="436" y="1337" on="1"/>
        <pt x="438" y="1234" on="0"/>
        <pt x="437" y="1022" on="0"/>
        <pt x="435" y="905" on="1"/>
      </contour>
      <contour>
        <pt x="435" y="209" on="1"/>
        <pt x="459" y="205" on="0"/>
        <pt x="509" y="197" on="0"/>
        <pt x="574" y="191" on="0"/>
        <pt x="660" y="187" on="0"/>
        <pt x="719" y="187" on="1"/>
        <pt x="787" y="187" on="0"/>
        <pt x="928" y="203" on="0"/>
        <pt x="1043" y="257" on="0"/>
        <pt x="1116" y="360" on="0"/>
        <pt x="1116" y="446" on="1"/>
        <pt x="1116" y="517" on="0"/>
        <pt x="1061" y="613" on="0"/>
        <pt x="980" y="672" on="0"/>
        <pt x="886" y="697" on="0"/>
        <pt x="847" y="697" on="1"/>
        <pt x="812" y="697" on="0"/>
        <pt x="739" y="695" on="0"/>
        <pt x="645" y="692" on="0"/>
        <pt x="520" y="689" on="0"/>
        <pt x="434" y="688" on="1"/>
        <pt x="434" y="568" on="0"/>
        <pt x="434" y="412" on="0"/>
        <pt x="435" y="307" on="0"/>
        <pt x="435" y="239" on="0"/>
      </contour>
    </TTGlyph>
    <TTGlyph name="C" xMin="109" yMin="-29" xMax="1369" yMax="1574">
      <contour>
        <pt x="109" y="756" on="1"/>
        <pt x="109" y="900" on="0"/>
        <pt x="172" y="1133" on="0"/>
        <pt x="282" y="1315" on="0"/>
        <pt x="430" y="1447" on="0"/>
        <pt x="602" y="1533" on="0"/>
        <pt x="789" y="1574" on="0"/>
        <pt x="882" y="1574" on="1"/>
        <pt x="967" y="1574" on="0"/>
        <pt x="1131" y="1543" on="0"/>
        <pt x="1211" y="1515" on="1"/>
        <pt x="1235" y="1506" on="0"/>
        <pt x="1284" y="1489" on="0"/>
        <pt x="1323" y="1463" on="0"/>
        <pt x="1347" y="1423" on="0"/>
        <pt x="1347" y="1392" on="1"/>
        <pt x="1347" y="1356" on="0"/>
        <pt x="1324" y="1309" on="0"/>
        <pt x="1288" y="1281" on="0"/>
        <pt x="1245" y="1269" on="0"/>
        <pt x="1225" y="1269" on="1"/>
        <pt x="1211" y="1269" on="0"/>
        <pt x="1179" y="1278" on="0"/>
        <pt x="1145" y="1292" on="0"/>
        <pt x="1113" y="1311" on="0"/>
        <pt x="1100" y="1320" on="1"/>
        <pt x="1064" y="1335" on="0"/>
        <pt x="1001" y="1350" on="0"/>
        <pt x="943" y="1357" on="0"/>
        <pt x="887" y="1358" on="0"/>
        <pt x="859" y="1358" on="1"/>
        <pt x="796" y="1358" on="0"/>
        <pt x="670" y="1329" on="0"/>
        <pt x="553" y="1268" on="0"/>
        <pt x="451" y="1176" on="0"/>
        <pt x="376" y="1049" on="0"/>
        <pt x="333" y="887" on="0"/>
        <pt x="333" y="787" on="1"/>
        <pt x="333" y="621" on="0"/>
        <pt x="428" y="392" on="0"/>
        <pt x="581" y="250" on="0"/>
        <pt x="773" y="187" on="0"/>
        <pt x="871" y="187" on="1"/>
        <pt x="916" y="187" on="0"/>
        <pt x="1003" y="198" on="0"/>
        <pt x="1078" y="215" on="0"/>
        <pt x="1136" y="236" on="0"/>
        <pt x="1151" y="247" on="1"/>
        <pt x="1181" y="273" on="0"/>
        <pt x="1227" y="300" on="0"/>
        <pt x="1257" y="300" on="1"/>
        <pt x="1280" y="300" on="0"/>
        <pt x="1321" y="290" on="0"/>
        <pt x="1351" y="265" on="0"/>
        <pt x="1369" y="225" on="0"/>
        <pt x="1369" y="195" on="1"/>
        <pt x="1369" y="153" on="0"/>
        <pt x="1312" y="84" on="0"/>
        <pt x="1249" y="54" on="1"/>
        <pt x="1249" y="55" on="1"/>
        <pt x="1228" y="43" on="0"/>
        <pt x="1147" y="13" on="0"/>
        <pt x="1046" y="-12" on="0"/>
        <pt x="934" y="-29" on="0"/>
        <pt x="880" y="-29" on="1"/>
        <pt x="757" y="-29" on="0"/>
        <pt x="548" y="30" on="0"/>
        <pt x="377" y="135" on="0"/>
        <pt x="245" y="281" on="0"/>
        <pt x="155" y="455" on="0"/>
        <pt x="109" y="652" on="0"/>
      </contour>
    </TTGlyph>
    <TTGlyph name="Cacute" xMin="109" yMin="-29" xMax="1369" yMax="2010">
      <component glyphName=".ttfautohint" x="109" y="0" flags="0x0"/>
      <component glyphName="C" x="0" y="0" flags="0x204"/>
      <component glyphName="acute.cap" x="596" y="0" flags="0x4"/>
    </TTGlyph>
    <TTGlyph name="Ccaron" xMin="109" yMin="-29" xMax="1369" yMax="2010">
      <component glyphName=".ttfautohint" x="109" y="0" flags="0x0"/>
      <component glyphName="C" x="0" y="0" flags="0x204"/>
      <component glyphName="caron.cap" x="428" y="0" flags="0x4"/>
    </TTGlyph>
    <TTGlyph name="Ccedilla" xMin="109" yMin="-546" xMax="1369" yMax="1574">
      <component glyphName=".ttfautohint" x="109" y="0" flags="0x0"/>
      <component glyphName="C" x="0" y="0" flags="0x204"/>
      <component glyphName="cedilla" x="297" y="0" flags="0x4"/>
    </TTGlyph>
    <TTGlyph name="Ccircumflex" xMin="109" yMin="-29" xMax="1369" yMax="2010">
      <component glyphName=".ttfautohint" x="109" y="0" flags="0x0"/>
      <component glyphName="C" x="0" y="0" flags="0x204"/>
      <component glyphName="circumflex.cap" x="428" y="0" flags="0x4"/>
    </TTGlyph>
    <TTGlyph name="Cdotaccent" xMin="109" yMin="-29" xMax="1369" yMax="1988">
      <component glyphName=".ttfautohint" x="109" y="0" flags="0x0"/>
      <component glyphName="C" x="0" y="0" flags="0x204"/>
      <component glyphName="dotaccent.cap" x="764" y="20" flags="0x4"/>
    </TTGlyph>
    <TTGlyph name="D" xMin="198" yMin="-19" xMax="1492" yMax="1574">
      <contour>
        <pt x="229" y="117" on="1"/>
        <pt x="229" y="163" on="0"/>
        <pt x="237" y="251" on="0"/>
        <pt x="237" y="310" on="1"/>
        <pt x="237" y="576" on="0"/>
        <pt x="234" y="1110" on="0"/>
        <pt x="226" y="1383" on="1"/>
        <pt x="215" y="1404" on="0"/>
        <pt x="198" y="1454" on="0"/>
        <pt x="198" y="1472" on="1"/>
        <pt x="198" y="1515" on="0"/>
        <pt x="245" y="1574" on="0"/>
        <pt x="302" y="1574" on="1"/>
        <pt x="331" y="1574" on="0"/>
        <pt x="387" y="1559" on="0"/>
        <pt x="419" y="1559" on="1"/>
        <pt x="489" y="1559" on="0"/>
        <pt x="627" y="1574" on="0"/>
        <pt x="699" y="1574" on="1"/>
        <pt x="846" y="1574" on="0"/>
        <pt x="1079" y="1517" on="0"/>
        <pt x="1255" y="1416" on="0"/>
        <pt x="1379" y="1277" on="0"/>
        <pt x="1456" y="1112" on="0"/>
        <pt x="1492" y="927" on="0"/>
        <pt x="1492" y="832" on="1"/>
        <pt x="1492" y="747" on="0"/>
        <pt x="1457" y="554" on="0"/>
        <pt x="1377" y="365" on="0"/>
        <pt x="1249" y="192" on="0"/>
        <pt x="1061" y="60" on="0"/>
        <pt x="810" y="-19" on="0"/>
        <pt x="648" y="-19" on="1"/>
        <pt x="610" y="-19" on="0"/>
        <pt x="535" y="-12" on="0"/>
        <pt x="459" y="-3" on="0"/>
        <pt x="382" y="4" on="0"/>
        <pt x="342" y="4" on="1"/>
        <pt x="281" y="4" on="0"/>
        <pt x="229" y="60" on="0"/>
      </contour>
      <contour>
        <pt x="452" y="220" on="1"/>
        <pt x="473" y="214" on="0"/>
        <pt x="532" y="207" on="0"/>
        <pt x="592" y="203" on="0"/>
        <pt x="645" y="202" on="0"/>
        <pt x="660" y="202" on="1"/>
        <pt x="784" y="202" on="0"/>
        <pt x="970" y="264" on="0"/>
        <pt x="1103" y="364" on="0"/>
        <pt x="1191" y="490" on="0"/>
        <pt x="1242" y="618" on="0"/>
        <pt x="1262" y="736" on="0"/>
        <pt x="1262" y="778" on="1"/>
        <pt x="1262" y="944" on="0"/>
        <pt x="1183" y="1165" on="0"/>
        <pt x="1030" y="1297" on="0"/>
        <pt x="807" y="1351" on="0"/>
        <pt x="662" y="1351" on="1"/>
        <pt x="643" y="1351" on="0"/>
        <pt x="588" y="1349" on="0"/>
        <pt x="528" y="1347" on="0"/>
        <pt x="469" y="1343" on="0"/>
        <pt x="446" y="1342" on="1"/>
      </contour>
    </TTGlyph>
    <TTGlyph name="Dcaron" xMin="198" yMin="-19" xMax="1492" yMax="2010">
      <component glyphName=".ttfautohint" x="198" y="0" flags="0x0"/>
      <component glyphName="D" x="0" y="0" flags="0x204"/>
      <component glyphName="caron.cap" x="325" y="0" flags="0x4"/>
    </TTGlyph>
    <TTGlyph name="Dcroat" xMin="90" yMin="-19" xMax="1487" yMax="1574">
      <component glyphName=".ttfautohint" x="90" y="0" flags="0x0"/>
      <component glyphName="Eth" x="0" y="0" flags="0x204"/>
    </TTGlyph>
    <TTGlyph name="Delta" xMin="84" yMin="-8" xMax="1472" yMax="1618">
      <component glyphName=".ttfautohint" x="84" y="0" flags="0x0"/>
      <component glyphName="uni0394" x="0" y="0" flags="0x204"/>
    </TTGlyph>
    <TTGlyph name="E" xMin="198" yMin="0" xMax="1184" yMax="1554">
      <contour>
        <pt x="198" y="113" on="1"/>
        <pt x="198" y="130" on="0"/>
        <pt x="207" y="168" on="0"/>
        <pt x="212" y="184" on="1"/>
        <pt x="221" y="216" on="1"/>
        <pt x="198" y="1412" on="1"/>
        <pt x="198" y="1461" on="0"/>
        <pt x="221" y="1515" on="0"/>
        <pt x="257" y="1541" on="0"/>
        <pt x="304" y="1545" on="0"/>
        <pt x="328" y="1545" on="1"/>
        <pt x="855" y="1545" on="1"/>
        <pt x="873" y="1547" on="0"/>
        <pt x="918" y="1554" on="0"/>
        <pt x="927" y="1554" on="1"/>
        <pt x="965" y="1554" on="0"/>
        <pt x="1012" y="1540" on="0"/>
        <pt x="1039" y="1513" on="0"/>
        <pt x="1048" y="1473" on="0"/>
        <pt x="1048" y="1446" on="1"/>
        <pt x="1048" y="1408" on="0"/>
        <pt x="1029" y="1362" on="0"/>
        <pt x="996" y="1337" on="0"/>
        <pt x="952" y="1329" on="0"/>
        <pt x="927" y="1329" on="1"/>
        <pt x="916" y="1329" on="0"/>
        <pt x="880" y="1330" on="0"/>
        <pt x="860" y="1332" on="1"/>
        <pt x="763" y="1332" on="0"/>
        <pt x="644" y="1332" on="0"/>
        <pt x="573" y="1331" on="0"/>
        <pt x="536" y="1331" on="0"/>
        <pt x="522" y="1331" on="1"/>
        <pt x="429" y="1331" on="1"/>
        <pt x="429" y="1014" on="1"/>
        <pt x="435" y="1014" on="0"/>
        <pt x="452" y="1013" on="0"/>
        <pt x="488" y="1013" on="0"/>
        <pt x="551" y="1013" on="0"/>
        <pt x="657" y="1013" on="0"/>
        <pt x="813" y="1013" on="0"/>
        <pt x="924" y="1013" on="1"/>
        <pt x="935" y="1013" on="0"/>
        <pt x="963" y="1015" on="0"/>
        <pt x="977" y="1017" on="1"/>
        <pt x="995" y="1019" on="0"/>
        <pt x="1043" y="1023" on="0"/>
        <pt x="1071" y="1023" on="1"/>
        <pt x="1098" y="1023" on="0"/>
        <pt x="1140" y="1001" on="0"/>
        <pt x="1169" y="968" on="0"/>
        <pt x="1184" y="930" on="0"/>
        <pt x="1184" y="913" on="1"/>
        <pt x="1184" y="859" on="0"/>
        <pt x="1113" y="809" on="0"/>
        <pt x="1057" y="809" on="1"/>
        <pt x="429" y="808" on="1"/>
        <pt x="429" y="209" on="1"/>
        <pt x="528" y="209" on="0"/>
        <pt x="728" y="203" on="0"/>
        <pt x="837" y="203" on="1"/>
        <pt x="867" y="203" on="0"/>
        <pt x="917" y="209" on="0"/>
        <pt x="940" y="213" on="1"/>
        <pt x="961" y="216" on="0"/>
        <pt x="1004" y="221" on="0"/>
        <pt x="1030" y="221" on="1"/>
        <pt x="1060" y="221" on="0"/>
        <pt x="1111" y="212" on="0"/>
        <pt x="1149" y="189" on="0"/>
        <pt x="1171" y="150" on="0"/>
        <pt x="1171" y="120" on="1"/>
        <pt x="1171" y="76" on="0"/>
        <pt x="1141" y="28" on="0"/>
        <pt x="1090" y="5" on="0"/>
        <pt x="1025" y="0" on="0"/>
        <pt x="990" y="0" on="1"/>
        <pt x="317" y="0" on="1"/>
        <pt x="291" y="0" on="0"/>
        <pt x="248" y="12" on="0"/>
        <pt x="216" y="39" on="0"/>
        <pt x="198" y="82" on="0"/>
      </contour>
    </TTGlyph>
    <TTGlyph name="Eacute" xMin="198" yMin="0" xMax="1184" yMax="2010">
      <component glyphName=".ttfautohint" x="198" y="0" flags="0x0"/>
      <component glyphName="E" x="0" y="0" flags="0x204"/>
      <component glyphName="acute.cap" x="367" y="0" flags="0x4"/>
    </TTGlyph>
    <TTGlyph name="Ebreve" xMin="198" yMin="0" xMax="1184" yMax="2003">
      <component glyphName=".ttfautohint" x="198" y="0" flags="0x0"/>
      <component glyphName="E" x="0" y="0" flags="0x204"/>
      <component glyphName="breve.cap" x="199" y="0" flags="0x4"/>
    </TTGlyph>
    <TTGlyph name="Ecaron" xMin="198" yMin="0" xMax="1184" yMax="2010">
      <component glyphName=".ttfautohint" x="198" y="0" flags="0x0"/>
      <component glyphName="E" x="0" y="0" flags="0x204"/>
      <component glyphName="caron.cap" x="199" y="0" flags="0x4"/>
    </TTGlyph>
    <TTGlyph name="Ecircumflex" xMin="198" yMin="0" xMax="1184" yMax="2010">
      <component glyphName=".ttfautohint" x="198" y="0" flags="0x0"/>
      <component glyphName="E" x="0" y="0" flags="0x204"/>
      <component glyphName="circumflex.cap" x="199" y="0" flags="0x4"/>
    </TTGlyph>
    <TTGlyph name="Edieresis" xMin="198" yMin="0" xMax="1184" yMax="1968">
      <component glyphName=".ttfautohint" x="198" y="0" flags="0x0"/>
      <component glyphName="E" x="0" y="0" flags="0x204"/>
      <component glyphName="dieresis.cap" x="199" y="0" flags="0x4"/>
    </TTGlyph>
    <TTGlyph name="Edotaccent" xMin="198" yMin="0" xMax="1184" yMax="1988">
      <component glyphName=".ttfautohint" x="198" y="0" flags="0x0"/>
      <component glyphName="E" x="0" y="0" flags="0x204"/>
      <component glyphName="dotaccent.cap" x="536" y="20" flags="0x4"/>
    </TTGlyph>
    <TTGlyph name="Egrave" xMin="198" yMin="0" xMax="1184" yMax="2010">
      <component glyphName=".ttfautohint" x="198" y="0" flags="0x0"/>
      <component glyphName="E" x="0" y="0" flags="0x204"/>
      <component glyphName="grave.cap" x="367" y="0" flags="0x4"/>
    </TTGlyph>
    <TTGlyph name="Emacron" xMin="198" yMin="0" xMax="1184" yMax="1841">
      <component glyphName=".ttfautohint" x="198" y="0" flags="0x0"/>
      <component glyphName="E" x="0" y="0" flags="0x204"/>
      <component glyphName="macron.cap" x="199" y="0" flags="0x4"/>
    </TTGlyph>
    <TTGlyph name="Eng" xMin="258" yMin="-517" xMax="1581" yMax="1573">
      <contour>
        <pt x="262" y="72" on="1"/>
        <pt x="262" y="104" on="0"/>
        <pt x="268" y="154" on="0"/>
        <pt x="269" y="169" on="1"/>
        <pt x="277" y="279" on="0"/>
        <pt x="280" y="502" on="0"/>
        <pt x="280" y="620" on="1"/>
        <pt x="280" y="699" on="0"/>
        <pt x="280" y="886" on="0"/>
        <pt x="277" y="1077" on="0"/>
        <pt x="271" y="1262" on="0"/>
        <pt x="266" y="1340" on="1"/>
        <pt x="262" y="1363" on="0"/>
        <pt x="258" y="1401" on="0"/>
        <pt x="258" y="1421" on="1"/>
        <pt x="258" y="1470" on="0"/>
        <pt x="300" y="1527" on="0"/>
        <pt x="347" y="1537" on="1"/>
        <pt x="367" y="1554" on="0"/>
        <pt x="417" y="1568" on="0"/>
        <pt x="440" y="1568" on="1"/>
        <pt x="464" y="1568" on="0"/>
        <pt x="503" y="1540" on="0"/>
        <pt x="532" y="1502" on="0"/>
        <pt x="552" y="1461" on="0"/>
        <pt x="556" y="1448" on="1"/>
        <pt x="613" y="1371" on="0"/>
        <pt x="745" y="1202" on="0"/>
        <pt x="886" y="1025" on="0"/>
        <pt x="1033" y="843" on="0"/>
        <pt x="1174" y="664" on="0"/>
        <pt x="1306" y="491" on="0"/>
        <pt x="1363" y="411" on="1"/>
        <pt x="1341" y="1444" on="1"/>
        <pt x="1341" y="1484" on="0"/>
        <pt x="1358" y="1535" on="0"/>
        <pt x="1389" y="1563" on="0"/>
        <pt x="1435" y="1573" on="0"/>
        <pt x="1465" y="1573" on="1"/>
        <pt x="1504" y="1573" on="0"/>
        <pt x="1548" y="1541" on="0"/>
        <pt x="1571" y="1492" on="0"/>
        <pt x="1576" y="1431" on="0"/>
        <pt x="1576" y="1402" on="1"/>
        <pt x="1576" y="1280" on="1"/>
        <pt x="1576" y="939" on="0"/>
        <pt x="1579" y="263" on="0"/>
        <pt x="1579" y="-80" on="1"/>
        <pt x="1580" y="-93" on="0"/>
        <pt x="1581" y="-126" on="0"/>
        <pt x="1581" y="-143" on="1"/>
        <pt x="1581" y="-218" on="0"/>
        <pt x="1534" y="-354" on="0"/>
        <pt x="1445" y="-457" on="0"/>
        <pt x="1317" y="-517" on="0"/>
        <pt x="1237" y="-517" on="1"/>
        <pt x="1209" y="-517" on="0"/>
        <pt x="1120" y="-498" on="0"/>
        <pt x="1035" y="-458" on="0"/>
        <pt x="974" y="-399" on="0"/>
        <pt x="974" y="-358" on="1"/>
        <pt x="974" y="-340" on="0"/>
        <pt x="987" y="-296" on="0"/>
        <pt x="1015" y="-258" on="0"/>
        <pt x="1058" y="-233" on="0"/>
        <pt x="1089" y="-233" on="1"/>
        <pt x="1109" y="-233" on="0"/>
        <pt x="1143" y="-252" on="0"/>
        <pt x="1175" y="-276" on="0"/>
        <pt x="1208" y="-295" on="0"/>
        <pt x="1227" y="-295" on="1"/>
        <pt x="1251" y="-295" on="0"/>
        <pt x="1298" y="-289" on="0"/>
        <pt x="1337" y="-258" on="0"/>
        <pt x="1361" y="-191" on="0"/>
        <pt x="1361" y="-130" on="1"/>
        <pt x="1361" y="33" on="1"/>
        <pt x="1358" y="36" on="0"/>
        <pt x="1342" y="54" on="0"/>
        <pt x="1307" y="97" on="0"/>
        <pt x="1249" y="170" on="0"/>
        <pt x="1158" y="287" on="0"/>
        <pt x="1031" y="454" on="0"/>
        <pt x="858" y="684" on="0"/>
        <pt x="634" y="983" on="0"/>
        <pt x="493" y="1173" on="1"/>
        <pt x="492" y="916" on="0"/>
        <pt x="493" y="552" on="0"/>
        <pt x="496" y="308" on="0"/>
        <pt x="500" y="171" on="0"/>
        <pt x="502" y="141" on="1"/>
        <pt x="503" y="134" on="0"/>
        <pt x="503" y="115" on="0"/>
        <pt x="503" y="110" on="1"/>
        <pt x="503" y="84" on="0"/>
        <pt x="494" y="36" on="0"/>
        <pt x="468" y="0" on="0"/>
        <pt x="421" y="-21" on="0"/>
        <pt x="383" y="-21" on="1"/>
        <pt x="358" y="-21" on="0"/>
        <pt x="314" y="-8" on="0"/>
        <pt x="281" y="16" on="0"/>
        <pt x="262" y="51" on="0"/>
      </contour>
    </TTGlyph>
    <TTGlyph name="Eogonek" xMin="198" yMin="-484" xMax="1199" yMax="1554">
      <contour>
        <pt x="198" y="113" on="1"/>
        <pt x="198" y="130" on="0"/>
        <pt x="207" y="168" on="0"/>
        <pt x="212" y="184" on="1"/>
        <pt x="221" y="216" on="1"/>
        <pt x="198" y="1412" on="1"/>
        <pt x="198" y="1461" on="0"/>
        <pt x="221" y="1515" on="0"/>
        <pt x="257" y="1541" on="0"/>
        <pt x="304" y="1545" on="0"/>
        <pt x="328" y="1545" on="1"/>
        <pt x="855" y="1545" on="1"/>
        <pt x="873" y="1547" on="0"/>
        <pt x="918" y="1554" on="0"/>
        <pt x="927" y="1554" on="1"/>
        <pt x="965" y="1554" on="0"/>
        <pt x="1012" y="1540" on="0"/>
        <pt x="1039" y="1513" on="0"/>
        <pt x="1048" y="1473" on="0"/>
        <pt x="1048" y="1446" on="1"/>
        <pt x="1048" y="1408" on="0"/>
        <pt x="1029" y="1362" on="0"/>
        <pt x="996" y="1337" on="0"/>
        <pt x="952" y="1329" on="0"/>
        <pt x="927" y="1329" on="1"/>
        <pt x="916" y="1329" on="0"/>
        <pt x="880" y="1330" on="0"/>
        <pt x="860" y="1332" on="1"/>
        <pt x="763" y="1332" on="0"/>
        <pt x="644" y="1332" on="0"/>
        <pt x="573" y="1331" on="0"/>
        <pt x="536" y="1331" on="0"/>
        <pt x="522" y="1331" on="1"/>
        <pt x="429" y="1331" on="1"/>
        <pt x="429" y="1014" on="1"/>
        <pt x="435" y="1014" on="0"/>
        <pt x="452" y="1013" on="0"/>
        <pt x="488" y="1013" on="0"/>
        <pt x="551" y="1013" on="0"/>
        <pt x="657" y="1013" on="0"/>
        <pt x="813" y="1013" on="0"/>
        <pt x="924" y="1013" on="1"/>
        <pt x="935" y="1013" on="0"/>
        <pt x="963" y="1015" on="0"/>
        <pt x="977" y="1017" on="1"/>
        <pt x="995" y="1019" on="0"/>
        <pt x="1043" y="1023" on="0"/>
        <pt x="1071" y="1023" on="1"/>
        <pt x="1098" y="1023" on="0"/>
        <pt x="1140" y="1001" on="0"/>
        <pt x="1169" y="968" on="0"/>
        <pt x="1184" y="930" on="0"/>
        <pt x="1184" y="913" on="1"/>
        <pt x="1184" y="859" on="0"/>
        <pt x="1113" y="809" on="0"/>
        <pt x="1057" y="809" on="1"/>
        <pt x="429" y="808" on="1"/>
        <pt x="429" y="209" on="1"/>
        <pt x="528" y="209" on="0"/>
        <pt x="728" y="203" on="0"/>
        <pt x="837" y="203" on="1"/>
        <pt x="867" y="203" on="0"/>
        <pt x="917" y="209" on="0"/>
        <pt x="940" y="213" on="1"/>
        <pt x="961" y="216" on="0"/>
        <pt x="1004" y="221" on="0"/>
        <pt x="1030" y="221" on="1"/>
        <pt x="1060" y="221" on="0"/>
        <pt x="1111" y="212" on="0"/>
        <pt x="1149" y="189" on="0"/>
        <pt x="1171" y="150" on="0"/>
        <pt x="1171" y="120" on="1"/>
        <pt x="1171" y="81" on="0"/>
        <pt x="1147" y="34" on="0"/>
        <pt x="1105" y="9" on="0"/>
        <pt x="1050" y="1" on="0"/>
        <pt x="1020" y="0" on="1"/>
        <pt x="985" y="0" on="0"/>
        <pt x="918" y="-22" on="0"/>
        <pt x="865" y="-69" on="0"/>
        <pt x="832" y="-141" on="0"/>
        <pt x="832" y="-191" on="1"/>
        <pt x="832" y="-214" on="0"/>
        <pt x="854" y="-247" on="0"/>
        <pt x="884" y="-268" on="0"/>
        <pt x="917" y="-279" on="0"/>
        <pt x="929" y="-279" on="1"/>
        <pt x="963" y="-279" on="0"/>
        <pt x="1001" y="-256" on="0"/>
        <pt x="1031" y="-229" on="0"/>
        <pt x="1065" y="-206" on="0"/>
        <pt x="1097" y="-206" on="1"/>
        <pt x="1117" y="-206" on="0"/>
        <pt x="1154" y="-224" on="0"/>
        <pt x="1182" y="-254" on="0"/>
        <pt x="1199" y="-291" on="0"/>
        <pt x="1199" y="-310" on="1"/>
        <pt x="1199" y="-352" on="0"/>
        <pt x="1157" y="-417" on="0"/>
        <pt x="1086" y="-461" on="0"/>
        <pt x="991" y="-484" on="0"/>
        <pt x="938" y="-484" on="1"/>
        <pt x="884" y="-484" on="0"/>
        <pt x="766" y="-463" on="0"/>
        <pt x="666" y="-403" on="0"/>
        <pt x="601" y="-297" on="0"/>
        <pt x="601" y="-212" on="1"/>
        <pt x="601" y="-151" on="0"/>
        <pt x="648" y="-43" on="0"/>
        <pt x="696" y="0" on="1"/>
        <pt x="317" y="0" on="1"/>
        <pt x="291" y="0" on="0"/>
        <pt x="248" y="12" on="0"/>
        <pt x="216" y="39" on="0"/>
        <pt x="198" y="82" on="0"/>
      </contour>
    </TTGlyph>
    <TTGlyph name="Eth" xMin="90" yMin="-19" xMax="1487" yMax="1574">
      <contour>
        <pt x="224" y="117" on="1"/>
        <pt x="224" y="163" on="0"/>
        <pt x="232" y="251" on="0"/>
        <pt x="232" y="310" on="1"/>
        <pt x="232" y="404" on="0"/>
        <pt x="232" y="593" on="0"/>
        <pt x="231" y="689" on="1"/>
        <pt x="189" y="689" on="1"/>
        <pt x="171" y="689" on="0"/>
        <pt x="136" y="694" on="0"/>
        <pt x="108" y="715" on="0"/>
        <pt x="90" y="760" on="0"/>
        <pt x="90" y="801" on="1"/>
        <pt x="90" y="832" on="0"/>
        <pt x="110" y="868" on="0"/>
        <pt x="146" y="887" on="0"/>
        <pt x="198" y="893" on="0"/>
        <pt x="230" y="893" on="1"/>
        <pt x="227" y="1138" on="0"/>
        <pt x="221" y="1383" on="1"/>
        <pt x="210" y="1404" on="0"/>
        <pt x="193" y="1454" on="0"/>
        <pt x="193" y="1472" on="1"/>
        <pt x="193" y="1515" on="0"/>
        <pt x="240" y="1574" on="0"/>
        <pt x="297" y="1574" on="1"/>
        <pt x="326" y="1574" on="0"/>
        <pt x="382" y="1559" on="0"/>
        <pt x="414" y="1559" on="1"/>
        <pt x="484" y="1559" on="0"/>
        <pt x="622" y="1574" on="0"/>
        <pt x="694" y="1574" on="1"/>
        <pt x="841" y="1574" on="0"/>
        <pt x="1074" y="1517" on="0"/>
        <pt x="1250" y="1416" on="0"/>
        <pt x="1374" y="1277" on="0"/>
        <pt x="1451" y="1112" on="0"/>
        <pt x="1487" y="927" on="0"/>
        <pt x="1487" y="832" on="1"/>
        <pt x="1487" y="747" on="0"/>
        <pt x="1452" y="554" on="0"/>
        <pt x="1372" y="365" on="0"/>
        <pt x="1244" y="192" on="0"/>
        <pt x="1056" y="60" on="0"/>
        <pt x="805" y="-19" on="0"/>
        <pt x="643" y="-19" on="1"/>
        <pt x="605" y="-19" on="0"/>
        <pt x="530" y="-12" on="0"/>
        <pt x="454" y="-3" on="0"/>
        <pt x="377" y="4" on="0"/>
        <pt x="337" y="4" on="1"/>
        <pt x="276" y="4" on="0"/>
        <pt x="224" y="60" on="0"/>
      </contour>
      <contour>
        <pt x="447" y="220" on="1"/>
        <pt x="468" y="214" on="0"/>
        <pt x="527" y="207" on="0"/>
        <pt x="587" y="203" on="0"/>
        <pt x="640" y="202" on="0"/>
        <pt x="655" y="202" on="1"/>
        <pt x="779" y="202" on="0"/>
        <pt x="965" y="264" on="0"/>
        <pt x="1098" y="364" on="0"/>
        <pt x="1186" y="490" on="0"/>
        <pt x="1237" y="618" on="0"/>
        <pt x="1257" y="736" on="0"/>
        <pt x="1257" y="778" on="1"/>
        <pt x="1257" y="944" on="0"/>
        <pt x="1178" y="1165" on="0"/>
        <pt x="1025" y="1297" on="0"/>
        <pt x="802" y="1351" on="0"/>
        <pt x="657" y="1351" on="1"/>
        <pt x="638" y="1351" on="0"/>
        <pt x="583" y="1349" on="0"/>
        <pt x="523" y="1347" on="0"/>
        <pt x="464" y="1343" on="0"/>
        <pt x="441" y="1342" on="1"/>
        <pt x="443" y="893" on="1"/>
        <pt x="517" y="893" on="0"/>
        <pt x="609" y="892" on="0"/>
        <pt x="662" y="892" on="0"/>
        <pt x="684" y="892" on="0"/>
        <pt x="689" y="892" on="1"/>
        <pt x="706" y="892" on="0"/>
        <pt x="741" y="903" on="0"/>
        <pt x="760" y="903" on="1"/>
        <pt x="774" y="903" on="0"/>
        <pt x="810" y="892" on="0"/>
        <pt x="843" y="866" on="0"/>
        <pt x="865" y="820" on="0"/>
        <pt x="865" y="786" on="1"/>
        <pt x="865" y="729" on="0"/>
        <pt x="812" y="681" on="0"/>
        <pt x="767" y="681" on="1"/>
        <pt x="686" y="681" on="0"/>
        <pt x="526" y="683" on="0"/>
        <pt x="444" y="685" on="1"/>
      </contour>
    </TTGlyph>
    <TTGlyph name="Euro" xMin="-21" yMin="-12" xMax="1320" yMax="1545">
      <contour>
        <pt x="78" y="480" on="1"/>
        <pt x="61" y="480" on="0"/>
        <pt x="25" y="485" on="0"/>
        <pt x="-3" y="507" on="0"/>
        <pt x="-21" y="552" on="0"/>
        <pt x="-21" y="592" on="1"/>
        <pt x="-21" y="614" on="0"/>
        <pt x="-2" y="647" on="0"/>
        <pt x="26" y="669" on="0"/>
        <pt x="59" y="680" on="0"/>
        <pt x="73" y="681" on="1"/>
        <pt x="132" y="684" on="1"/>
        <pt x="131" y="698" on="0"/>
        <pt x="130" y="724" on="0"/>
        <pt x="130" y="738" on="1"/>
        <pt x="130" y="769" on="0"/>
        <pt x="133" y="827" on="0"/>
        <pt x="135" y="856" on="1"/>
        <pt x="125" y="856" on="1"/>
        <pt x="107" y="856" on="0"/>
        <pt x="72" y="860" on="0"/>
        <pt x="43" y="880" on="0"/>
        <pt x="26" y="924" on="0"/>
        <pt x="26" y="965" on="1"/>
        <pt x="26" y="989" on="0"/>
        <pt x="44" y="1023" on="0"/>
        <pt x="71" y="1044" on="0"/>
        <pt x="105" y="1054" on="0"/>
        <pt x="120" y="1055" on="1"/>
        <pt x="129" y="1056" on="0"/>
        <pt x="157" y="1056" on="0"/>
        <pt x="175" y="1057" on="1"/>
        <pt x="217" y="1187" on="0"/>
        <pt x="367" y="1373" on="0"/>
        <pt x="561" y="1490" on="0"/>
        <pt x="789" y="1545" on="0"/>
        <pt x="909" y="1545" on="1"/>
        <pt x="989" y="1545" on="0"/>
        <pt x="1137" y="1505" on="0"/>
        <pt x="1251" y="1440" on="0"/>
        <pt x="1320" y="1359" on="0"/>
        <pt x="1320" y="1317" on="1"/>
        <pt x="1320" y="1289" on="0"/>
        <pt x="1300" y="1246" on="0"/>
        <pt x="1266" y="1216" on="0"/>
        <pt x="1222" y="1201" on="0"/>
        <pt x="1199" y="1201" on="1"/>
        <pt x="1166" y="1201" on="0"/>
        <pt x="1126" y="1225" on="0"/>
        <pt x="1106" y="1244" on="1"/>
        <pt x="1091" y="1257" on="0"/>
        <pt x="1056" y="1285" on="0"/>
        <pt x="1002" y="1308" on="0"/>
        <pt x="925" y="1323" on="0"/>
        <pt x="870" y="1323" on="1"/>
        <pt x="810" y="1323" on="0"/>
        <pt x="678" y="1296" on="0"/>
        <pt x="555" y="1235" on="0"/>
        <pt x="449" y="1134" on="0"/>
        <pt x="413" y="1060" on="1"/>
        <pt x="476" y="1060" on="0"/>
        <pt x="609" y="1061" on="0"/>
        <pt x="733" y="1061" on="0"/>
        <pt x="841" y="1061" on="0"/>
        <pt x="880" y="1061" on="1"/>
        <pt x="897" y="1061" on="0"/>
        <pt x="931" y="1073" on="0"/>
        <pt x="950" y="1073" on="1"/>
        <pt x="965" y="1073" on="0"/>
        <pt x="1001" y="1062" on="0"/>
        <pt x="1032" y="1036" on="0"/>
        <pt x="1054" y="990" on="0"/>
        <pt x="1054" y="956" on="1"/>
        <pt x="1054" y="901" on="0"/>
        <pt x="1002" y="855" on="0"/>
        <pt x="957" y="855" on="1"/>
        <pt x="362" y="855" on="1"/>
        <pt x="360" y="841" on="0"/>
        <pt x="360" y="813" on="0"/>
        <pt x="360" y="799" on="1"/>
        <pt x="360" y="739" on="0"/>
        <pt x="366" y="687" on="1"/>
        <pt x="422" y="687" on="0"/>
        <pt x="542" y="688" on="0"/>
        <pt x="663" y="688" on="0"/>
        <pt x="781" y="688" on="0"/>
        <pt x="835" y="688" on="1"/>
        <pt x="852" y="688" on="0"/>
        <pt x="885" y="699" on="0"/>
        <pt x="905" y="699" on="1"/>
        <pt x="919" y="699" on="0"/>
        <pt x="955" y="688" on="0"/>
        <pt x="987" y="662" on="0"/>
        <pt x="1009" y="616" on="0"/>
        <pt x="1009" y="582" on="1"/>
        <pt x="1009" y="527" on="0"/>
        <pt x="956" y="479" on="0"/>
        <pt x="911" y="479" on="1"/>
        <pt x="426" y="479" on="1"/>
        <pt x="463" y="404" on="0"/>
        <pt x="570" y="298" on="0"/>
        <pt x="695" y="232" on="0"/>
        <pt x="833" y="201" on="0"/>
        <pt x="901" y="201" on="1"/>
        <pt x="966" y="201" on="0"/>
        <pt x="1060" y="224" on="0"/>
        <pt x="1098" y="237" on="1"/>
        <pt x="1097" y="237" on="1"/>
        <pt x="1126" y="245" on="0"/>
        <pt x="1177" y="259" on="0"/>
        <pt x="1207" y="259" on="1"/>
        <pt x="1225" y="259" on="0"/>
        <pt x="1258" y="245" on="0"/>
        <pt x="1283" y="221" on="0"/>
        <pt x="1299" y="189" on="0"/>
        <pt x="1299" y="171" on="1"/>
        <pt x="1299" y="131" on="0"/>
        <pt x="1249" y="73" on="0"/>
        <pt x="1169" y="32" on="0"/>
        <pt x="1072" y="7" on="0"/>
        <pt x="976" y="-7" on="0"/>
        <pt x="894" y="-12" on="0"/>
        <pt x="870" y="-12" on="1"/>
        <pt x="745" y="-12" on="0"/>
        <pt x="525" y="61" on="0"/>
        <pt x="345" y="191" on="0"/>
        <pt x="211" y="372" on="0"/>
        <pt x="173" y="479" on="1"/>
        <pt x="147" y="479" on="0"/>
        <pt x="98" y="480" on="0"/>
      </contour>
    </TTGlyph>
    <TTGlyph name="F" xMin="198" yMin="-29" xMax="1214" yMax="1554">
      <contour>
        <pt x="216" y="98" on="1"/>
        <pt x="214" y="138" on="0"/>
        <pt x="220" y="220" on="0"/>
        <pt x="221" y="265" on="1"/>
        <pt x="198" y="1416" on="1"/>
        <pt x="198" y="1483" on="0"/>
        <pt x="245" y="1554" on="0"/>
        <pt x="288" y="1554" on="1"/>
        <pt x="327" y="1554" on="0"/>
        <pt x="371" y="1550" on="0"/>
        <pt x="388" y="1548" on="1"/>
        <pt x="398" y="1546" on="0"/>
        <pt x="418" y="1546" on="0"/>
        <pt x="429" y="1546" on="1"/>
        <pt x="981" y="1546" on="1"/>
        <pt x="1065" y="1546" on="0"/>
        <pt x="1134" y="1500" on="0"/>
        <pt x="1134" y="1449" on="1"/>
        <pt x="1134" y="1414" on="0"/>
        <pt x="1115" y="1370" on="0"/>
        <pt x="1077" y="1344" on="0"/>
        <pt x="1020" y="1335" on="0"/>
        <pt x="982" y="1335" on="1"/>
        <pt x="431" y="1336" on="1"/>
        <pt x="437" y="956" on="1"/>
        <pt x="548" y="956" on="0"/>
        <pt x="723" y="957" on="0"/>
        <pt x="860" y="959" on="0"/>
        <pt x="963" y="962" on="0"/>
        <pt x="1002" y="963" on="1"/>
        <pt x="1012" y="963" on="0"/>
        <pt x="1030" y="964" on="0"/>
        <pt x="1038" y="964" on="1"/>
        <pt x="1055" y="965" on="0"/>
        <pt x="1090" y="965" on="0"/>
        <pt x="1101" y="965" on="1"/>
        <pt x="1128" y="965" on="0"/>
        <pt x="1170" y="944" on="0"/>
        <pt x="1199" y="911" on="0"/>
        <pt x="1214" y="872" on="0"/>
        <pt x="1214" y="855" on="1"/>
        <pt x="1214" y="802" on="0"/>
        <pt x="1142" y="751" on="0"/>
        <pt x="1087" y="751" on="1"/>
        <pt x="437" y="750" on="1"/>
        <pt x="437" y="247" on="1"/>
        <pt x="437" y="227" on="0"/>
        <pt x="444" y="188" on="0"/>
        <pt x="453" y="149" on="0"/>
        <pt x="461" y="109" on="0"/>
        <pt x="461" y="88" on="1"/>
        <pt x="461" y="62" on="0"/>
        <pt x="449" y="19" on="0"/>
        <pt x="418" y="-12" on="0"/>
        <pt x="366" y="-29" on="0"/>
        <pt x="326" y="-29" on="1"/>
        <pt x="272" y="-29" on="0"/>
        <pt x="216" y="32" on="0"/>
      </contour>
    </TTGlyph>
    <TTGlyph name="G" xMin="148" yMin="-20" xMax="1458" yMax="1573">
      <contour>
        <pt x="148" y="756" on="1"/>
        <pt x="148" y="961" on="0"/>
        <pt x="266" y="1267" on="0"/>
        <pt x="474" y="1471" on="0"/>
        <pt x="758" y="1573" on="0"/>
        <pt x="925" y="1573" on="1"/>
        <pt x="968" y="1573" on="0"/>
        <pt x="1076" y="1570" on="0"/>
        <pt x="1189" y="1558" on="0"/>
        <pt x="1299" y="1536" on="0"/>
        <pt x="1346" y="1518" on="1"/>
        <pt x="1383" y="1504" on="0"/>
        <pt x="1433" y="1452" on="0"/>
        <pt x="1433" y="1403" on="1"/>
        <pt x="1433" y="1346" on="0"/>
        <pt x="1376" y="1277" on="0"/>
        <pt x="1338" y="1277" on="1"/>
        <pt x="1330" y="1277" on="0"/>
        <pt x="1304" y="1281" on="0"/>
        <pt x="1295" y="1286" on="1"/>
        <pt x="1256" y="1307" on="0"/>
        <pt x="1145" y="1333" on="0"/>
        <pt x="1027" y="1349" on="0"/>
        <pt x="915" y="1355" on="0"/>
        <pt x="875" y="1355" on="1"/>
        <pt x="820" y="1355" on="0"/>
        <pt x="704" y="1328" on="0"/>
        <pt x="593" y="1270" on="0"/>
        <pt x="494" y="1180" on="0"/>
        <pt x="420" y="1056" on="0"/>
        <pt x="376" y="895" on="0"/>
        <pt x="376" y="795" on="1"/>
        <pt x="376" y="678" on="0"/>
        <pt x="431" y="498" on="0"/>
        <pt x="527" y="365" on="0"/>
        <pt x="657" y="274" on="0"/>
        <pt x="808" y="218" on="0"/>
        <pt x="972" y="194" on="0"/>
        <pt x="1054" y="194" on="1"/>
        <pt x="1090" y="194" on="0"/>
        <pt x="1181" y="197" on="0"/>
        <pt x="1226" y="205" on="1"/>
        <pt x="1226" y="303" on="0"/>
        <pt x="1225" y="441" on="0"/>
        <pt x="1223" y="549" on="0"/>
        <pt x="1220" y="639" on="0"/>
        <pt x="1218" y="690" on="1"/>
        <pt x="1218" y="726" on="0"/>
        <pt x="1208" y="799" on="0"/>
        <pt x="1208" y="841" on="1"/>
        <pt x="1208" y="856" on="0"/>
        <pt x="1221" y="891" on="0"/>
        <pt x="1250" y="922" on="0"/>
        <pt x="1298" y="943" on="0"/>
        <pt x="1334" y="943" on="1"/>
        <pt x="1393" y="943" on="0"/>
        <pt x="1458" y="888" on="0"/>
        <pt x="1458" y="841" on="1"/>
        <pt x="1458" y="821" on="0"/>
        <pt x="1456" y="784" on="0"/>
        <pt x="1456" y="763" on="1"/>
        <pt x="1455" y="731" on="0"/>
        <pt x="1452" y="640" on="0"/>
        <pt x="1450" y="499" on="0"/>
        <pt x="1448" y="298" on="0"/>
        <pt x="1448" y="158" on="1"/>
        <pt x="1447" y="101" on="0"/>
        <pt x="1419" y="37" on="0"/>
        <pt x="1371" y="6" on="0"/>
        <pt x="1308" y="0" on="0"/>
        <pt x="1274" y="0" on="1"/>
        <pt x="1245" y="0" on="0"/>
        <pt x="1181" y="-6" on="0"/>
        <pt x="1115" y="-14" on="0"/>
        <pt x="1052" y="-20" on="0"/>
        <pt x="1024" y="-20" on="1"/>
        <pt x="811" y="-20" on="0"/>
        <pt x="484" y="106" on="0"/>
        <pt x="262" y="319" on="0"/>
        <pt x="148" y="600" on="0"/>
      </contour>
    </TTGlyph>
    <TTGlyph name="Gbreve" xMin="148" yMin="-20" xMax="1458" yMax="2003">
      <component glyphName=".ttfautohint" x="148" y="0" flags="0x0"/>
      <component glyphName="G" x="0" y="0" flags="0x204"/>
      <component glyphName="breve.cap" x="406" y="0" flags="0x4"/>
    </TTGlyph>
    <TTGlyph name="Gcircumflex" xMin="148" yMin="-20" xMax="1458" yMax="2010">
      <component glyphName=".ttfautohint" x="148" y="0" flags="0x0"/>
      <component glyphName="G" x="0" y="0" flags="0x204"/>
      <component glyphName="circumflex.cap" x="406" y="0" flags="0x4"/>
    </TTGlyph>
    <TTGlyph name="Gcommaaccent" xMin="148" yMin="-550" xMax="1458" yMax="1573">
      <component glyphName=".ttfautohint" x="148" y="0" flags="0x0"/>
      <component glyphName="G" x="0" y="0" flags="0x204"/>
      <component glyphName="commaaccent" x="664" y="0" flags="0x4"/>
    </TTGlyph>
    <TTGlyph name="Gdotaccent" xMin="148" yMin="-20" xMax="1458" yMax="1988">
      <component glyphName=".ttfautohint" x="148" y="0" flags="0x0"/>
      <component glyphName="G" x="0" y="0" flags="0x204"/>
      <component glyphName="dotaccent.cap" x="742" y="20" flags="0x4"/>
    </TTGlyph>
    <TTGlyph name="H" xMin="198" yMin="-29" xMax="1378" yMax="1574">
      <contour>
        <pt x="219" y="74" on="1"/>
        <pt x="219" y="125" on="0"/>
        <pt x="226" y="225" on="0"/>
        <pt x="226" y="282" on="1"/>
        <pt x="226" y="298" on="0"/>
        <pt x="226" y="339" on="0"/>
        <pt x="225" y="420" on="0"/>
        <pt x="223" y="557" on="0"/>
        <pt x="220" y="783" on="0"/>
        <pt x="216" y="1114" on="0"/>
        <pt x="213" y="1348" on="1"/>
        <pt x="213" y="1376" on="0"/>
        <pt x="198" y="1433" on="0"/>
        <pt x="198" y="1465" on="1"/>
        <pt x="198" y="1491" on="0"/>
        <pt x="211" y="1531" on="0"/>
        <pt x="246" y="1559" on="0"/>
        <pt x="304" y="1574" on="0"/>
        <pt x="349" y="1574" on="1"/>
        <pt x="372" y="1574" on="0"/>
        <pt x="406" y="1555" on="0"/>
        <pt x="429" y="1524" on="0"/>
        <pt x="440" y="1486" on="0"/>
        <pt x="440" y="1467" on="1"/>
        <pt x="440" y="1422" on="0"/>
        <pt x="434" y="1329" on="0"/>
        <pt x="434" y="1270" on="1"/>
        <pt x="434" y="1049" on="1"/>
        <pt x="538" y="1046" on="0"/>
        <pt x="730" y="1040" on="0"/>
        <pt x="834" y="1040" on="1"/>
        <pt x="906" y="1040" on="0"/>
        <pt x="1050" y="1051" on="0"/>
        <pt x="1129" y="1053" on="1"/>
        <pt x="1129" y="1072" on="0"/>
        <pt x="1130" y="1119" on="0"/>
        <pt x="1130" y="1187" on="0"/>
        <pt x="1130" y="1281" on="0"/>
        <pt x="1130" y="1348" on="1"/>
        <pt x="1130" y="1377" on="0"/>
        <pt x="1118" y="1435" on="0"/>
        <pt x="1118" y="1465" on="1"/>
        <pt x="1118" y="1491" on="0"/>
        <pt x="1131" y="1531" on="0"/>
        <pt x="1166" y="1559" on="0"/>
        <pt x="1225" y="1574" on="0"/>
        <pt x="1270" y="1574" on="1"/>
        <pt x="1294" y="1574" on="0"/>
        <pt x="1328" y="1552" on="0"/>
        <pt x="1349" y="1519" on="0"/>
        <pt x="1358" y="1482" on="0"/>
        <pt x="1358" y="1467" on="1"/>
        <pt x="1358" y="1391" on="0"/>
        <pt x="1349" y="1238" on="0"/>
        <pt x="1347" y="1153" on="1"/>
        <pt x="1347" y="1084" on="0"/>
        <pt x="1347" y="946" on="0"/>
        <pt x="1348" y="800" on="0"/>
        <pt x="1348" y="642" on="0"/>
        <pt x="1348" y="555" on="1"/>
        <pt x="1348" y="454" on="0"/>
        <pt x="1353" y="315" on="0"/>
        <pt x="1360" y="220" on="0"/>
        <pt x="1368" y="162" on="0"/>
        <pt x="1371" y="142" on="1"/>
        <pt x="1374" y="125" on="0"/>
        <pt x="1378" y="93" on="0"/>
        <pt x="1378" y="75" on="1"/>
        <pt x="1378" y="52" on="0"/>
        <pt x="1367" y="14" on="0"/>
        <pt x="1340" y="-13" on="0"/>
        <pt x="1294" y="-29" on="0"/>
        <pt x="1259" y="-29" on="1"/>
        <pt x="1219" y="-29" on="0"/>
        <pt x="1167" y="-16" on="0"/>
        <pt x="1136" y="11" on="0"/>
        <pt x="1123" y="49" on="0"/>
        <pt x="1123" y="75" on="1"/>
        <pt x="1123" y="127" on="0"/>
        <pt x="1138" y="229" on="0"/>
        <pt x="1138" y="283" on="1"/>
        <pt x="1138" y="414" on="0"/>
        <pt x="1129" y="682" on="0"/>
        <pt x="1128" y="836" on="1"/>
        <pt x="1057" y="837" on="0"/>
        <pt x="873" y="836" on="0"/>
        <pt x="682" y="833" on="0"/>
        <pt x="503" y="828" on="0"/>
        <pt x="436" y="827" on="1"/>
        <pt x="438" y="666" on="0"/>
        <pt x="444" y="447" on="0"/>
        <pt x="450" y="302" on="0"/>
        <pt x="457" y="215" on="0"/>
        <pt x="460" y="187" on="1"/>
        <pt x="463" y="160" on="0"/>
        <pt x="466" y="110" on="0"/>
        <pt x="466" y="74" on="1"/>
        <pt x="466" y="51" on="0"/>
        <pt x="456" y="14" on="0"/>
        <pt x="429" y="-14" on="0"/>
        <pt x="384" y="-29" on="0"/>
        <pt x="348" y="-29" on="1"/>
        <pt x="308" y="-29" on="0"/>
        <pt x="258" y="-16" on="0"/>
        <pt x="229" y="10" on="0"/>
        <pt x="219" y="48" on="0"/>
      </contour>
    </TTGlyph>
    <TTGlyph name="Hbar" xMin="38" yMin="-12" xMax="1502" yMax="1591">
      <contour>
        <pt x="219" y="91" on="1"/>
        <pt x="219" y="141" on="0"/>
        <pt x="226" y="242" on="0"/>
        <pt x="226" y="299" on="1"/>
        <pt x="226" y="314" on="0"/>
        <pt x="226" y="350" on="0"/>
        <pt x="225" y="418" on="0"/>
        <pt x="224" y="529" on="0"/>
        <pt x="221" y="709" on="0"/>
        <pt x="217" y="971" on="0"/>
        <pt x="215" y="1155" on="1"/>
        <pt x="196" y="1155" on="1"/>
        <pt x="187" y="1154" on="0"/>
        <pt x="155" y="1154" on="0"/>
        <pt x="140" y="1154" on="1"/>
        <pt x="93" y="1154" on="0"/>
        <pt x="38" y="1192" on="0"/>
        <pt x="38" y="1242" on="1"/>
        <pt x="38" y="1275" on="0"/>
        <pt x="65" y="1315" on="0"/>
        <pt x="112" y="1335" on="0"/>
        <pt x="176" y="1342" on="0"/>
        <pt x="213" y="1342" on="1"/>
        <pt x="213" y="1365" on="1"/>
        <pt x="213" y="1393" on="0"/>
        <pt x="198" y="1449" on="0"/>
        <pt x="198" y="1482" on="1"/>
        <pt x="198" y="1508" on="0"/>
        <pt x="211" y="1548" on="0"/>
        <pt x="246" y="1576" on="0"/>
        <pt x="304" y="1591" on="0"/>
        <pt x="349" y="1591" on="1"/>
        <pt x="372" y="1591" on="0"/>
        <pt x="406" y="1572" on="0"/>
        <pt x="429" y="1541" on="0"/>
        <pt x="440" y="1503" on="0"/>
        <pt x="440" y="1484" on="1"/>
        <pt x="440" y="1450" on="0"/>
        <pt x="436" y="1380" on="0"/>
        <pt x="434" y="1339" on="1"/>
        <pt x="476" y="1339" on="0"/>
        <pt x="596" y="1338" on="0"/>
        <pt x="763" y="1338" on="0"/>
        <pt x="985" y="1338" on="0"/>
        <pt x="1130" y="1338" on="1"/>
        <pt x="1130" y="1365" on="1"/>
        <pt x="1130" y="1394" on="0"/>
        <pt x="1118" y="1451" on="0"/>
        <pt x="1118" y="1482" on="1"/>
        <pt x="1118" y="1508" on="0"/>
        <pt x="1131" y="1548" on="0"/>
        <pt x="1166" y="1576" on="0"/>
        <pt x="1225" y="1591" on="0"/>
        <pt x="1270" y="1591" on="1"/>
        <pt x="1294" y="1591" on="0"/>
        <pt x="1328" y="1569" on="0"/>
        <pt x="1349" y="1536" on="0"/>
        <pt x="1358" y="1499" on="0"/>
        <pt x="1358" y="1484" on="1"/>
        <pt x="1358" y="1449" on="0"/>
        <pt x="1356" y="1381" on="0"/>
        <pt x="1354" y="1346" on="1"/>
        <pt x="1379" y="1346" on="0"/>
        <pt x="1431" y="1342" on="0"/>
        <pt x="1474" y="1323" on="0"/>
        <pt x="1502" y="1284" on="0"/>
        <pt x="1502" y="1250" on="1"/>
        <pt x="1502" y="1227" on="0"/>
        <pt x="1494" y="1190" on="0"/>
        <pt x="1470" y="1164" on="0"/>
        <pt x="1425" y="1150" on="0"/>
        <pt x="1387" y="1150" on="1"/>
        <pt x="1347" y="1150" on="1"/>
        <pt x="1347" y="1084" on="0"/>
        <pt x="1347" y="950" on="0"/>
        <pt x="1348" y="809" on="0"/>
        <pt x="1348" y="656" on="0"/>
        <pt x="1348" y="572" on="1"/>
        <pt x="1348" y="471" on="0"/>
        <pt x="1353" y="332" on="0"/>
        <pt x="1360" y="237" on="0"/>
        <pt x="1368" y="178" on="0"/>
        <pt x="1371" y="158" on="1"/>
        <pt x="1374" y="142" on="0"/>
        <pt x="1378" y="110" on="0"/>
        <pt x="1378" y="92" on="1"/>
        <pt x="1378" y="69" on="0"/>
        <pt x="1367" y="31" on="0"/>
        <pt x="1340" y="4" on="0"/>
        <pt x="1294" y="-12" on="0"/>
        <pt x="1259" y="-12" on="1"/>
        <pt x="1219" y="-12" on="0"/>
        <pt x="1167" y="1" on="0"/>
        <pt x="1136" y="28" on="0"/>
        <pt x="1123" y="66" on="0"/>
        <pt x="1123" y="92" on="1"/>
        <pt x="1123" y="143" on="0"/>
        <pt x="1138" y="246" on="0"/>
        <pt x="1138" y="300" on="1"/>
        <pt x="1138" y="371" on="0"/>
        <pt x="1128" y="547" on="0"/>
        <pt x="1128" y="635" on="1"/>
        <pt x="1057" y="636" on="0"/>
        <pt x="873" y="635" on="0"/>
        <pt x="682" y="632" on="0"/>
        <pt x="503" y="627" on="0"/>
        <pt x="436" y="626" on="1"/>
        <pt x="438" y="558" on="0"/>
        <pt x="444" y="431" on="0"/>
        <pt x="450" y="321" on="0"/>
        <pt x="457" y="232" on="0"/>
        <pt x="460" y="204" on="1"/>
        <pt x="463" y="177" on="0"/>
        <pt x="466" y="127" on="0"/>
        <pt x="466" y="91" on="1"/>
        <pt x="466" y="68" on="0"/>
        <pt x="456" y="31" on="0"/>
        <pt x="429" y="3" on="0"/>
        <pt x="384" y="-12" on="0"/>
        <pt x="348" y="-12" on="1"/>
        <pt x="308" y="-12" on="0"/>
        <pt x="258" y="1" on="0"/>
        <pt x="229" y="27" on="0"/>
        <pt x="219" y="65" on="0"/>
      </contour>
      <contour>
        <pt x="434" y="848" on="1"/>
        <pt x="538" y="845" on="0"/>
        <pt x="730" y="840" on="0"/>
        <pt x="834" y="840" on="1"/>
        <pt x="906" y="840" on="0"/>
        <pt x="1050" y="850" on="0"/>
        <pt x="1129" y="852" on="1"/>
        <pt x="1129" y="865" on="0"/>
        <pt x="1129" y="924" on="0"/>
        <pt x="1130" y="1006" on="0"/>
        <pt x="1130" y="1104" on="0"/>
        <pt x="1130" y="1155" on="1"/>
        <pt x="1027" y="1156" on="0"/>
        <pt x="685" y="1156" on="0"/>
        <pt x="434" y="1155" on="1"/>
      </contour>
    </TTGlyph>
    <TTGlyph name="Hcircumflex" xMin="198" yMin="-29" xMax="1378" yMax="2010">
      <component glyphName=".ttfautohint" x="198" y="0" flags="0x0"/>
      <component glyphName="H" x="0" y="0" flags="0x204"/>
      <component glyphName="circumflex.cap" x="302" y="0" flags="0x4"/>
    </TTGlyph>
    <TTGlyph name="I" xMin="267" yMin="-29" xMax="527" yMax="1574">
      <contour>
        <pt x="273" y="80" on="1"/>
        <pt x="273" y="131" on="0"/>
        <pt x="288" y="230" on="0"/>
        <pt x="288" y="286" on="1"/>
        <pt x="288" y="541" on="0"/>
        <pt x="279" y="1057" on="0"/>
        <pt x="279" y="1329" on="1"/>
        <pt x="279" y="1357" on="0"/>
        <pt x="267" y="1414" on="0"/>
        <pt x="267" y="1447" on="1"/>
        <pt x="267" y="1473" on="0"/>
        <pt x="281" y="1519" on="0"/>
        <pt x="315" y="1554" on="0"/>
        <pt x="375" y="1574" on="0"/>
        <pt x="420" y="1574" on="1"/>
        <pt x="465" y="1574" on="0"/>
        <pt x="517" y="1506" on="0"/>
        <pt x="517" y="1449" on="1"/>
        <pt x="517" y="1432" on="0"/>
        <pt x="511" y="1399" on="0"/>
        <pt x="508" y="1381" on="1"/>
        <pt x="506" y="1295" on="0"/>
        <pt x="504" y="1097" on="0"/>
        <pt x="504" y="969" on="1"/>
        <pt x="504" y="855" on="0"/>
        <pt x="506" y="617" on="0"/>
        <pt x="510" y="397" on="0"/>
        <pt x="517" y="206" on="0"/>
        <pt x="522" y="137" on="1"/>
        <pt x="522" y="138" on="1"/>
        <pt x="524" y="123" on="0"/>
        <pt x="527" y="96" on="0"/>
        <pt x="527" y="82" on="1"/>
        <pt x="527" y="58" on="0"/>
        <pt x="516" y="17" on="0"/>
        <pt x="490" y="-13" on="0"/>
        <pt x="444" y="-29" on="0"/>
        <pt x="410" y="-29" on="1"/>
        <pt x="370" y="-29" on="0"/>
        <pt x="317" y="-15" on="0"/>
        <pt x="286" y="13" on="0"/>
        <pt x="273" y="54" on="0"/>
      </contour>
    </TTGlyph>
    <TTGlyph name="IJ" xMin="204" yMin="-30" xMax="1254" yMax="1554">
      <contour>
        <pt x="219" y="346" on="1"/>
        <pt x="219" y="369" on="0"/>
        <pt x="211" y="412" on="0"/>
        <pt x="210" y="438" on="1"/>
        <pt x="210" y="467" on="0"/>
        <pt x="234" y="505" on="0"/>
        <pt x="273" y="528" on="0"/>
        <pt x="322" y="537" on="0"/>
        <pt x="346" y="537" on="1"/>
        <pt x="368" y="537" on="0"/>
        <pt x="410" y="525" on="0"/>
        <pt x="444" y="498" on="0"/>
        <pt x="465" y="456" on="0"/>
        <pt x="465" y="426" on="1"/>
        <pt x="465" y="412" on="0"/>
        <pt x="459" y="386" on="0"/>
        <pt x="452" y="360" on="0"/>
        <pt x="448" y="333" on="0"/>
        <pt x="450" y="319" on="1"/>
        <pt x="458" y="249" on="0"/>
        <pt x="595" y="183" on="0"/>
        <pt x="720" y="183" on="1"/>
        <pt x="792" y="183" on="0"/>
        <pt x="907" y="238" on="0"/>
        <pt x="987" y="351" on="0"/>
        <pt x="1030" y="525" on="0"/>
        <pt x="1030" y="644" on="1"/>
        <pt x="1030" y="792" on="0"/>
        <pt x="1029" y="998" on="0"/>
        <pt x="1028" y="1136" on="0"/>
        <pt x="1026" y="1219" on="0"/>
        <pt x="1025" y="1269" on="0"/>
        <pt x="1024" y="1298" on="0"/>
        <pt x="1024" y="1314" on="1"/>
        <pt x="1021" y="1343" on="0"/>
        <pt x="1013" y="1406" on="0"/>
        <pt x="1013" y="1452" on="1"/>
        <pt x="1013" y="1480" on="0"/>
        <pt x="1032" y="1519" on="0"/>
        <pt x="1065" y="1543" on="0"/>
        <pt x="1110" y="1554" on="0"/>
        <pt x="1136" y="1554" on="1"/>
        <pt x="1169" y="1554" on="0"/>
        <pt x="1212" y="1537" on="0"/>
        <pt x="1237" y="1502" on="0"/>
        <pt x="1247" y="1452" on="0"/>
        <pt x="1247" y="1419" on="1"/>
        <pt x="1247" y="1407" on="0"/>
        <pt x="1247" y="1374" on="0"/>
        <pt x="1246" y="1353" on="1"/>
        <pt x="1242" y="1169" on="0"/>
        <pt x="1254" y="797" on="0"/>
        <pt x="1254" y="602" on="1"/>
        <pt x="1254" y="529" on="0"/>
        <pt x="1232" y="378" on="0"/>
        <pt x="1181" y="237" on="0"/>
        <pt x="1100" y="114" on="0"/>
        <pt x="982" y="23" on="0"/>
        <pt x="824" y="-30" on="0"/>
        <pt x="723" y="-30" on="1"/>
        <pt x="615" y="-30" on="0"/>
        <pt x="433" y="9" on="0"/>
        <pt x="300" y="98" on="0"/>
        <pt x="223" y="241" on="0"/>
      </contour>
      <contour>
        <pt x="346" y="721" on="1"/>
        <pt x="307" y="721" on="0"/>
        <pt x="254" y="734" on="0"/>
        <pt x="223" y="759" on="0"/>
        <pt x="210" y="798" on="0"/>
        <pt x="210" y="824" on="1"/>
        <pt x="210" y="874" on="0"/>
        <pt x="225" y="972" on="0"/>
        <pt x="225" y="1026" on="1"/>
        <pt x="225" y="1082" on="0"/>
        <pt x="218" y="1179" on="0"/>
        <pt x="211" y="1274" on="0"/>
        <pt x="204" y="1375" on="0"/>
        <pt x="204" y="1435" on="1"/>
        <pt x="204" y="1461" on="0"/>
        <pt x="218" y="1503" on="0"/>
        <pt x="252" y="1533" on="0"/>
        <pt x="311" y="1550" on="0"/>
        <pt x="356" y="1550" on="1"/>
        <pt x="379" y="1550" on="0"/>
        <pt x="415" y="1532" on="0"/>
        <pt x="440" y="1504" on="0"/>
        <pt x="453" y="1471" on="0"/>
        <pt x="453" y="1457" on="1"/>
        <pt x="453" y="1430" on="0"/>
        <pt x="450" y="1389" on="0"/>
        <pt x="448" y="1366" on="1"/>
        <pt x="447" y="1349" on="0"/>
        <pt x="444" y="1311" on="0"/>
        <pt x="442" y="1260" on="0"/>
        <pt x="441" y="1194" on="0"/>
        <pt x="441" y="1150" on="1"/>
        <pt x="441" y="1084" on="0"/>
        <pt x="445" y="999" on="0"/>
        <pt x="450" y="944" on="0"/>
        <pt x="456" y="911" on="0"/>
        <pt x="461" y="883" on="0"/>
        <pt x="465" y="850" on="0"/>
        <pt x="465" y="824" on="1"/>
        <pt x="465" y="801" on="0"/>
        <pt x="455" y="764" on="0"/>
        <pt x="428" y="736" on="0"/>
        <pt x="382" y="721" on="0"/>
      </contour>
    </TTGlyph>
    <TTGlyph name="Iacute" xMin="267" yMin="-29" xMax="719" yMax="2010">
      <component glyphName=".ttfautohint" x="267" y="0" flags="0x0"/>
      <component glyphName="I" x="0" y="0" flags="0x204"/>
      <component glyphName="acute.cap" x="74" y="0" flags="0x4"/>
    </TTGlyph>
    <TTGlyph name="Ibreve" xMin="90" yMin="-29" xMax="782" yMax="2003">
      <component glyphName=".ttfautohint" x="90" y="0" flags="0x0"/>
      <component glyphName="I" x="0" y="0" flags="0x204"/>
      <component glyphName="breve.cap" x="-93" y="0" flags="0x4"/>
    </TTGlyph>
    <TTGlyph name="Icircumflex" xMin="75" yMin="-29" xMax="787" yMax="2010">
      <component glyphName=".ttfautohint" x="75" y="0" flags="0x0"/>
      <component glyphName="I" x="0" y="0" flags="0x204"/>
      <component glyphName="circumflex.cap" x="-93" y="0" flags="0x4"/>
    </TTGlyph>
    <TTGlyph name="Idieresis" xMin="44" yMin="-29" xMax="778" yMax="1968">
      <component glyphName=".ttfautohint" x="44" y="0" flags="0x0"/>
      <component glyphName="I" x="0" y="0" flags="0x204"/>
      <component glyphName="dieresis.cap" x="-93" y="0" flags="0x4"/>
    </TTGlyph>
    <TTGlyph name="Idotaccent" xMin="267" yMin="-29" xMax="529" yMax="1988">
      <component glyphName=".ttfautohint" x="267" y="0" flags="0x0"/>
      <component glyphName="I" x="0" y="0" flags="0x204"/>
      <component glyphName="dotaccent.cap" x="243" y="20" flags="0x4"/>
    </TTGlyph>
    <TTGlyph name="Igrave" xMin="109" yMin="-29" xMax="533" yMax="2010">
      <component glyphName=".ttfautohint" x="109" y="0" flags="0x0"/>
      <component glyphName="I" x="0" y="0" flags="0x204"/>
      <component glyphName="grave.cap" x="74" y="0" flags="0x4"/>
    </TTGlyph>
    <TTGlyph name="Imacron" xMin="-6" yMin="-29" xMax="794" yMax="1841">
      <component glyphName=".ttfautohint" x="0" y="0" flags="0x0"/>
      <component glyphName="I" x="0" y="0" flags="0x204"/>
      <component glyphName="macron.cap" x="-93" y="0" flags="0x4"/>
    </TTGlyph>
    <TTGlyph name="Iogonek" xMin="27" yMin="-487" xMax="585" yMax="1574">
      <contour>
        <pt x="27" y="-190" on="1"/>
        <pt x="27" y="-102" on="0"/>
        <pt x="153" y="65" on="0"/>
        <pt x="275" y="129" on="1"/>
        <pt x="278" y="167" on="0"/>
        <pt x="288" y="244" on="0"/>
        <pt x="288" y="286" on="1"/>
        <pt x="288" y="541" on="0"/>
        <pt x="279" y="1057" on="0"/>
        <pt x="279" y="1329" on="1"/>
        <pt x="279" y="1357" on="0"/>
        <pt x="267" y="1414" on="0"/>
        <pt x="267" y="1447" on="1"/>
        <pt x="267" y="1473" on="0"/>
        <pt x="281" y="1519" on="0"/>
        <pt x="315" y="1554" on="0"/>
        <pt x="375" y="1574" on="0"/>
        <pt x="420" y="1574" on="1"/>
        <pt x="465" y="1574" on="0"/>
        <pt x="517" y="1506" on="0"/>
        <pt x="517" y="1449" on="1"/>
        <pt x="517" y="1432" on="0"/>
        <pt x="511" y="1399" on="0"/>
        <pt x="508" y="1381" on="1"/>
        <pt x="506" y="1295" on="0"/>
        <pt x="504" y="1097" on="0"/>
        <pt x="504" y="969" on="1"/>
        <pt x="504" y="855" on="0"/>
        <pt x="506" y="617" on="0"/>
        <pt x="510" y="397" on="0"/>
        <pt x="517" y="206" on="0"/>
        <pt x="522" y="137" on="1"/>
        <pt x="522" y="138" on="1"/>
        <pt x="524" y="123" on="0"/>
        <pt x="527" y="96" on="0"/>
        <pt x="527" y="82" on="1"/>
        <pt x="527" y="58" on="0"/>
        <pt x="516" y="17" on="0"/>
        <pt x="490" y="-13" on="0"/>
        <pt x="444" y="-29" on="0"/>
        <pt x="410" y="-29" on="1"/>
        <pt x="405" y="-29" on="0"/>
        <pt x="397" y="-29" on="0"/>
        <pt x="392" y="-28" on="1"/>
        <pt x="358" y="-40" on="0"/>
        <pt x="304" y="-78" on="0"/>
        <pt x="267" y="-121" on="0"/>
        <pt x="247" y="-166" on="0"/>
        <pt x="247" y="-185" on="1"/>
        <pt x="247" y="-210" on="0"/>
        <pt x="260" y="-247" on="0"/>
        <pt x="281" y="-271" on="0"/>
        <pt x="306" y="-282" on="0"/>
        <pt x="317" y="-282" on="1"/>
        <pt x="345" y="-282" on="0"/>
        <pt x="383" y="-261" on="0"/>
        <pt x="417" y="-235" on="0"/>
        <pt x="456" y="-214" on="0"/>
        <pt x="484" y="-214" on="1"/>
        <pt x="531" y="-214" on="0"/>
        <pt x="585" y="-276" on="0"/>
        <pt x="585" y="-318" on="1"/>
        <pt x="585" y="-361" on="0"/>
        <pt x="539" y="-425" on="0"/>
        <pt x="462" y="-467" on="0"/>
        <pt x="364" y="-487" on="0"/>
        <pt x="312" y="-487" on="1"/>
        <pt x="256" y="-487" on="0"/>
        <pt x="154" y="-448" on="0"/>
        <pt x="74" y="-372" on="0"/>
        <pt x="27" y="-261" on="0"/>
      </contour>
    </TTGlyph>
    <TTGlyph name="Itilde" xMin="-20" yMin="-29" xMax="861" yMax="2010">
      <component glyphName=".ttfautohint" x="0" y="0" flags="0x0"/>
      <component glyphName="I" x="0" y="0" flags="0x204"/>
      <component glyphName="tilde.cap" x="-93" y="0" flags="0x4"/>
    </TTGlyph>
    <TTGlyph name="J" xMin="126" yMin="-29" xMax="1210" yMax="1574">
      <contour>
        <pt x="126" y="447" on="1"/>
        <pt x="126" y="472" on="0"/>
        <pt x="128" y="535" on="0"/>
        <pt x="138" y="599" on="0"/>
        <pt x="157" y="661" on="0"/>
        <pt x="190" y="709" on="0"/>
        <pt x="239" y="738" on="0"/>
        <pt x="275" y="738" on="1"/>
        <pt x="322" y="738" on="0"/>
        <pt x="387" y="685" on="0"/>
        <pt x="387" y="625" on="1"/>
        <pt x="387" y="601" on="0"/>
        <pt x="376" y="556" on="0"/>
        <pt x="364" y="510" on="0"/>
        <pt x="353" y="463" on="0"/>
        <pt x="353" y="438" on="1"/>
        <pt x="353" y="374" on="0"/>
        <pt x="408" y="280" on="0"/>
        <pt x="499" y="217" on="0"/>
        <pt x="620" y="186" on="0"/>
        <pt x="686" y="186" on="1"/>
        <pt x="758" y="186" on="0"/>
        <pt x="869" y="231" on="0"/>
        <pt x="945" y="333" on="0"/>
        <pt x="985" y="498" on="0"/>
        <pt x="985" y="619" on="1"/>
        <pt x="985" y="1082" on="1"/>
        <pt x="985" y="1162" on="0"/>
        <pt x="980" y="1264" on="0"/>
        <pt x="973" y="1344" on="0"/>
        <pt x="968" y="1417" on="0"/>
        <pt x="968" y="1467" on="1"/>
        <pt x="968" y="1496" on="0"/>
        <pt x="987" y="1537" on="0"/>
        <pt x="1021" y="1562" on="0"/>
        <pt x="1066" y="1574" on="0"/>
        <pt x="1092" y="1574" on="1"/>
        <pt x="1158" y="1574" on="0"/>
        <pt x="1204" y="1501" on="0"/>
        <pt x="1204" y="1433" on="1"/>
        <pt x="1204" y="1395" on="0"/>
        <pt x="1203" y="1336" on="0"/>
        <pt x="1202" y="1264" on="0"/>
        <pt x="1201" y="1165" on="0"/>
        <pt x="1201" y="1087" on="1"/>
        <pt x="1210" y="575" on="1"/>
        <pt x="1210" y="462" on="0"/>
        <pt x="1161" y="246" on="0"/>
        <pt x="1042" y="75" on="0"/>
        <pt x="841" y="-29" on="0"/>
        <pt x="689" y="-29" on="1"/>
        <pt x="634" y="-29" on="0"/>
        <pt x="507" y="-11" on="0"/>
        <pt x="382" y="32" on="0"/>
        <pt x="267" y="103" on="0"/>
        <pt x="179" y="209" on="0"/>
        <pt x="126" y="353" on="0"/>
      </contour>
    </TTGlyph>
    <TTGlyph name="Jcircumflex" xMin="126" yMin="-29" xMax="1420" yMax="2010">
      <component glyphName=".ttfautohint" x="126" y="0" flags="0x0"/>
      <component glyphName="J" x="0" y="0" flags="0x4"/>
      <component glyphName="circumflex.cap" x="540" y="0" flags="0x4"/>
    </TTGlyph>
    <TTGlyph name="K" xMin="198" yMin="-29" xMax="1390" yMax="1574">
      <contour>
        <pt x="203" y="93" on="1"/>
        <pt x="203" y="433" on="0"/>
        <pt x="200" y="1105" on="0"/>
        <pt x="198" y="1446" on="1"/>
        <pt x="198" y="1515" on="0"/>
        <pt x="257" y="1574" on="0"/>
        <pt x="319" y="1574" on="1"/>
        <pt x="342" y="1574" on="0"/>
        <pt x="384" y="1560" on="0"/>
        <pt x="416" y="1533" on="0"/>
        <pt x="435" y="1495" on="0"/>
        <pt x="435" y="1471" on="1"/>
        <pt x="435" y="1328" on="0"/>
        <pt x="434" y="1070" on="0"/>
        <pt x="433" y="939" on="1"/>
        <pt x="966" y="1443" on="1"/>
        <pt x="977" y="1459" on="0"/>
        <pt x="1024" y="1504" on="0"/>
        <pt x="1079" y="1545" on="0"/>
        <pt x="1134" y="1574" on="0"/>
        <pt x="1155" y="1574" on="1"/>
        <pt x="1178" y="1574" on="0"/>
        <pt x="1220" y="1562" on="0"/>
        <pt x="1251" y="1536" on="0"/>
        <pt x="1270" y="1494" on="0"/>
        <pt x="1270" y="1465" on="1"/>
        <pt x="1270" y="1434" on="0"/>
        <pt x="1251" y="1389" on="0"/>
        <pt x="1219" y="1354" on="0"/>
        <pt x="1180" y="1327" on="0"/>
        <pt x="1159" y="1315" on="1"/>
        <pt x="1016" y="1188" on="0"/>
        <pt x="724" y="945" on="0"/>
        <pt x="574" y="818" on="1"/>
        <pt x="640" y="800" on="0"/>
        <pt x="767" y="715" on="0"/>
        <pt x="883" y="604" on="0"/>
        <pt x="982" y="478" on="0"/>
        <pt x="1020" y="419" on="1"/>
        <pt x="1049" y="374" on="0"/>
        <pt x="1106" y="290" on="0"/>
        <pt x="1161" y="227" on="0"/>
        <pt x="1214" y="189" on="0"/>
        <pt x="1240" y="189" on="1"/>
        <pt x="1261" y="189" on="0"/>
        <pt x="1313" y="186" on="0"/>
        <pt x="1359" y="167" on="0"/>
        <pt x="1390" y="127" on="0"/>
        <pt x="1390" y="90" on="1"/>
        <pt x="1390" y="49" on="0"/>
        <pt x="1356" y="1" on="0"/>
        <pt x="1304" y="-23" on="0"/>
        <pt x="1239" y="-29" on="0"/>
        <pt x="1208" y="-29" on="1"/>
        <pt x="1151" y="-29" on="0"/>
        <pt x="1048" y="30" on="0"/>
        <pt x="955" y="127" on="0"/>
        <pt x="869" y="249" on="0"/>
        <pt x="827" y="312" on="1"/>
        <pt x="789" y="369" on="0"/>
        <pt x="700" y="486" on="0"/>
        <pt x="599" y="585" on="0"/>
        <pt x="489" y="659" on="0"/>
        <pt x="432" y="674" on="1"/>
        <pt x="432" y="562" on="1"/>
        <pt x="432" y="450" on="0"/>
        <pt x="433" y="244" on="0"/>
        <pt x="434" y="163" on="1"/>
        <pt x="437" y="135" on="0"/>
        <pt x="439" y="92" on="0"/>
        <pt x="440" y="72" on="1"/>
        <pt x="440" y="20" on="0"/>
        <pt x="373" y="-29" on="0"/>
        <pt x="314" y="-29" on="1"/>
        <pt x="301" y="-29" on="0"/>
        <pt x="263" y="-20" on="0"/>
        <pt x="228" y="7" on="0"/>
        <pt x="203" y="55" on="0"/>
      </contour>
    </TTGlyph>
    <TTGlyph name="Kcommaaccent" xMin="198" yMin="-550" xMax="1390" yMax="1574">
      <component glyphName=".ttfautohint" x="198" y="0" flags="0x0"/>
      <component glyphName="K" x="0" y="0" flags="0x204"/>
      <component glyphName="commaaccent" x="375" y="0" flags="0x4"/>
    </TTGlyph>
    <TTGlyph name="L" xMin="198" yMin="0" xMax="1014" yMax="1572">
      <contour>
        <pt x="198" y="111" on="1"/>
        <pt x="198" y="140" on="0"/>
        <pt x="215" y="197" on="0"/>
        <pt x="215" y="229" on="1"/>
        <pt x="200" y="1423" on="1"/>
        <pt x="201" y="1499" on="0"/>
        <pt x="252" y="1572" on="0"/>
        <pt x="314" y="1572" on="1"/>
        <pt x="348" y="1572" on="0"/>
        <pt x="394" y="1560" on="0"/>
        <pt x="422" y="1530" on="0"/>
        <pt x="433" y="1482" on="0"/>
        <pt x="433" y="1446" on="1"/>
        <pt x="433" y="1296" on="1"/>
        <pt x="433" y="1234" on="0"/>
        <pt x="432" y="1063" on="0"/>
        <pt x="432" y="869" on="0"/>
        <pt x="432" y="662" on="0"/>
        <pt x="432" y="465" on="0"/>
        <pt x="432" y="289" on="0"/>
        <pt x="433" y="223" on="1"/>
        <pt x="550" y="223" on="0"/>
        <pt x="711" y="224" on="0"/>
        <pt x="763" y="226" on="1"/>
        <pt x="791" y="228" on="0"/>
        <pt x="847" y="237" on="0"/>
        <pt x="879" y="237" on="1"/>
        <pt x="945" y="237" on="0"/>
        <pt x="1014" y="177" on="0"/>
        <pt x="1014" y="119" on="1"/>
        <pt x="1014" y="80" on="0"/>
        <pt x="984" y="33" on="0"/>
        <pt x="935" y="8" on="0"/>
        <pt x="874" y="0" on="0"/>
        <pt x="843" y="0" on="1"/>
        <pt x="312" y="0" on="1"/>
        <pt x="287" y="0" on="0"/>
        <pt x="245" y="9" on="0"/>
        <pt x="215" y="33" on="0"/>
        <pt x="198" y="76" on="0"/>
      </contour>
    </TTGlyph>
    <TTGlyph name="Lacute" xMin="198" yMin="0" xMax="1014" yMax="2010">
      <component glyphName=".ttfautohint" x="198" y="0" flags="0x0"/>
      <component glyphName="L" x="0" y="0" flags="0x204"/>
      <component glyphName="acute.cap" x="15" y="0" flags="0x4"/>
    </TTGlyph>
    <TTGlyph name="Lcaron" xMin="198" yMin="17" xMax="1014" yMax="1693">
      <component glyphName=".ttfautohint" x="198" y="17" flags="0x0"/>
      <component glyphName="L" x="0" y="17" flags="0x4"/>
      <component glyphName="caronvertical" x="539" y="0" flags="0x4"/>
    </TTGlyph>
    <TTGlyph name="Lcommaaccent" xMin="198" yMin="-550" xMax="1014" yMax="1572">
      <component glyphName=".ttfautohint" x="198" y="0" flags="0x0"/>
      <component glyphName="L" x="0" y="0" flags="0x204"/>
      <component glyphName="commaaccent" x="268" y="0" flags="0x4"/>
    </TTGlyph>
    <TTGlyph name="Ldot" xMin="198" yMin="0" xMax="1105" yMax="1572">
      <component glyphName=".ttfautohint" x="198" y="0" flags="0x0"/>
      <component glyphName="L" x="0" y="0" flags="0x4"/>
      <component glyphName="periodcentered" x="548" y="320" flags="0x4"/>
    </TTGlyph>
    <TTGlyph name="Lslash" xMin="21" yMin="0" xMax="1034" yMax="1572">
      <contour>
        <pt x="218" y="111" on="1"/>
        <pt x="218" y="140" on="0"/>
        <pt x="235" y="197" on="0"/>
        <pt x="235" y="229" on="1"/>
        <pt x="231" y="562" on="1"/>
        <pt x="230" y="562" on="1"/>
        <pt x="224" y="554" on="0"/>
        <pt x="207" y="536" on="0"/>
        <pt x="184" y="520" on="0"/>
        <pt x="153" y="509" on="0"/>
        <pt x="133" y="509" on="1"/>
        <pt x="112" y="509" on="0"/>
        <pt x="72" y="530" on="0"/>
        <pt x="40" y="564" on="0"/>
        <pt x="21" y="610" on="0"/>
        <pt x="21" y="635" on="1"/>
        <pt x="21" y="654" on="0"/>
        <pt x="43" y="691" on="0"/>
        <pt x="60" y="705" on="1"/>
        <pt x="227" y="819" on="1"/>
        <pt x="220" y="1423" on="1"/>
        <pt x="221" y="1499" on="0"/>
        <pt x="272" y="1572" on="0"/>
        <pt x="334" y="1572" on="1"/>
        <pt x="368" y="1572" on="0"/>
        <pt x="414" y="1560" on="0"/>
        <pt x="442" y="1530" on="0"/>
        <pt x="453" y="1482" on="0"/>
        <pt x="453" y="1446" on="1"/>
        <pt x="453" y="1296" on="1"/>
        <pt x="452" y="1234" on="0"/>
        <pt x="452" y="1067" on="0"/>
        <pt x="452" y="971" on="1"/>
        <pt x="673" y="1122" on="1"/>
        <pt x="684" y="1130" on="0"/>
        <pt x="718" y="1144" on="0"/>
        <pt x="734" y="1144" on="1"/>
        <pt x="782" y="1144" on="0"/>
        <pt x="835" y="1094" on="0"/>
        <pt x="835" y="1034" on="1"/>
        <pt x="835" y="1008" on="0"/>
        <pt x="805" y="972" on="0"/>
        <pt x="790" y="959" on="1"/>
        <pt x="771" y="945" on="0"/>
        <pt x="702" y="895" on="0"/>
        <pt x="612" y="831" on="0"/>
        <pt x="506" y="758" on="0"/>
        <pt x="452" y="721" on="1"/>
        <pt x="452" y="650" on="0"/>
        <pt x="452" y="511" on="0"/>
        <pt x="452" y="382" on="0"/>
        <pt x="453" y="268" on="0"/>
        <pt x="453" y="223" on="1"/>
        <pt x="570" y="223" on="0"/>
        <pt x="731" y="224" on="0"/>
        <pt x="783" y="226" on="1"/>
        <pt x="811" y="228" on="0"/>
        <pt x="867" y="237" on="0"/>
        <pt x="899" y="237" on="1"/>
        <pt x="965" y="237" on="0"/>
        <pt x="1034" y="177" on="0"/>
        <pt x="1034" y="119" on="1"/>
        <pt x="1034" y="80" on="0"/>
        <pt x="1004" y="33" on="0"/>
        <pt x="955" y="8" on="0"/>
        <pt x="894" y="0" on="0"/>
        <pt x="863" y="0" on="1"/>
        <pt x="332" y="0" on="1"/>
        <pt x="307" y="0" on="0"/>
        <pt x="265" y="9" on="0"/>
        <pt x="235" y="33" on="0"/>
        <pt x="218" y="76" on="0"/>
      </contour>
    </TTGlyph>
    <TTGlyph name="M" xMin="52" yMin="-29" xMax="1975" yMax="1574">
      <contour>
        <pt x="52" y="79" on="1"/>
        <pt x="52" y="97" on="0"/>
        <pt x="57" y="110" on="1"/>
        <pt x="65" y="131" on="0"/>
        <pt x="104" y="259" on="0"/>
        <pt x="161" y="448" on="0"/>
        <pt x="232" y="686" on="0"/>
        <pt x="311" y="951" on="0"/>
        <pt x="394" y="1229" on="0"/>
        <pt x="434" y="1364" on="1"/>
        <pt x="434" y="1363" on="1"/>
        <pt x="441" y="1391" on="0"/>
        <pt x="458" y="1448" on="0"/>
        <pt x="475" y="1496" on="0"/>
        <pt x="492" y="1531" on="0"/>
        <pt x="498" y="1537" on="1"/>
        <pt x="514" y="1554" on="0"/>
        <pt x="568" y="1574" on="0"/>
        <pt x="594" y="1574" on="1"/>
        <pt x="629" y="1574" on="0"/>
        <pt x="675" y="1549" on="0"/>
        <pt x="708" y="1500" on="0"/>
        <pt x="733" y="1428" on="0"/>
        <pt x="747" y="1382" on="1"/>
        <pt x="998" y="585" on="1"/>
        <pt x="1012" y="543" on="1"/>
        <pt x="1066" y="709" on="0"/>
        <pt x="1141" y="971" on="0"/>
        <pt x="1196" y="1176" on="0"/>
        <pt x="1237" y="1332" on="0"/>
        <pt x="1257" y="1394" on="1"/>
        <pt x="1267" y="1425" on="0"/>
        <pt x="1287" y="1489" on="0"/>
        <pt x="1318" y="1541" on="0"/>
        <pt x="1367" y="1574" on="0"/>
        <pt x="1408" y="1574" on="1"/>
        <pt x="1443" y="1574" on="0"/>
        <pt x="1495" y="1553" on="0"/>
        <pt x="1510" y="1516" on="1"/>
        <pt x="1517" y="1499" on="0"/>
        <pt x="1531" y="1463" on="0"/>
        <pt x="1552" y="1408" on="0"/>
        <pt x="1582" y="1324" on="0"/>
        <pt x="1626" y="1194" on="0"/>
        <pt x="1686" y="1010" on="0"/>
        <pt x="1769" y="753" on="0"/>
        <pt x="1876" y="414" on="0"/>
        <pt x="1944" y="196" on="1"/>
        <pt x="1956" y="164" on="0"/>
        <pt x="1971" y="118" on="0"/>
        <pt x="1973" y="98" on="1"/>
        <pt x="1975" y="72" on="0"/>
        <pt x="1966" y="26" on="0"/>
        <pt x="1942" y="-9" on="0"/>
        <pt x="1900" y="-29" on="0"/>
        <pt x="1869" y="-29" on="1"/>
        <pt x="1829" y="-29" on="0"/>
        <pt x="1777" y="4" on="0"/>
        <pt x="1744" y="52" on="0"/>
        <pt x="1726" y="108" on="0"/>
        <pt x="1721" y="132" on="1"/>
        <pt x="1702" y="202" on="0"/>
        <pt x="1654" y="373" on="0"/>
        <pt x="1600" y="561" on="0"/>
        <pt x="1542" y="756" on="0"/>
        <pt x="1485" y="943" on="0"/>
        <pt x="1430" y="1111" on="0"/>
        <pt x="1406" y="1179" on="1"/>
        <pt x="1368" y="1073" on="0"/>
        <pt x="1306" y="856" on="0"/>
        <pt x="1245" y="637" on="0"/>
        <pt x="1180" y="418" on="0"/>
        <pt x="1140" y="310" on="1"/>
        <pt x="1132" y="290" on="0"/>
        <pt x="1125" y="242" on="0"/>
        <pt x="1125" y="226" on="1"/>
        <pt x="1125" y="198" on="0"/>
        <pt x="1103" y="162" on="0"/>
        <pt x="1068" y="141" on="0"/>
        <pt x="1024" y="132" on="0"/>
        <pt x="1002" y="132" on="1"/>
        <pt x="965" y="132" on="0"/>
        <pt x="920" y="153" on="0"/>
        <pt x="893" y="189" on="0"/>
        <pt x="880" y="234" on="0"/>
        <pt x="876" y="258" on="1"/>
        <pt x="874" y="272" on="0"/>
        <pt x="869" y="299" on="0"/>
        <pt x="865" y="313" on="1"/>
        <pt x="848" y="373" on="0"/>
        <pt x="807" y="518" on="0"/>
        <pt x="761" y="675" on="0"/>
        <pt x="712" y="836" on="0"/>
        <pt x="663" y="989" on="0"/>
        <pt x="616" y="1127" on="0"/>
        <pt x="596" y="1182" on="1"/>
        <pt x="571" y="1114" on="0"/>
        <pt x="518" y="931" on="0"/>
        <pt x="463" y="726" on="0"/>
        <pt x="408" y="510" on="0"/>
        <pt x="355" y="305" on="0"/>
        <pt x="305" y="123" on="0"/>
        <pt x="283" y="56" on="1"/>
        <pt x="260" y="17" on="0"/>
        <pt x="215" y="-29" on="0"/>
        <pt x="171" y="-29" on="1"/>
        <pt x="145" y="-29" on="0"/>
        <pt x="102" y="-12" on="0"/>
        <pt x="70" y="18" on="0"/>
        <pt x="52" y="57" on="0"/>
      </contour>
    </TTGlyph>
    <TTGlyph name="N" xMin="199" yMin="-29" xMax="1525" yMax="1574">
      <contour>
        <pt x="203" y="64" on="1"/>
        <pt x="203" y="106" on="0"/>
        <pt x="215" y="164" on="0"/>
        <pt x="216" y="162" on="1"/>
        <pt x="218" y="271" on="0"/>
        <pt x="221" y="495" on="0"/>
        <pt x="221" y="620" on="1"/>
        <pt x="221" y="699" on="0"/>
        <pt x="221" y="884" on="0"/>
        <pt x="218" y="1073" on="0"/>
        <pt x="212" y="1256" on="0"/>
        <pt x="207" y="1334" on="1"/>
        <pt x="203" y="1357" on="0"/>
        <pt x="199" y="1394" on="0"/>
        <pt x="199" y="1415" on="1"/>
        <pt x="199" y="1464" on="0"/>
        <pt x="241" y="1521" on="0"/>
        <pt x="288" y="1532" on="1"/>
        <pt x="308" y="1549" on="0"/>
        <pt x="357" y="1562" on="0"/>
        <pt x="380" y="1562" on="1"/>
        <pt x="404" y="1562" on="0"/>
        <pt x="443" y="1534" on="0"/>
        <pt x="473" y="1496" on="0"/>
        <pt x="493" y="1455" on="0"/>
        <pt x="497" y="1442" on="1"/>
        <pt x="528" y="1396" on="0"/>
        <pt x="615" y="1278" on="0"/>
        <pt x="718" y="1143" on="0"/>
        <pt x="834" y="996" on="0"/>
        <pt x="953" y="846" on="0"/>
        <pt x="1071" y="697" on="0"/>
        <pt x="1177" y="559" on="0"/>
        <pt x="1269" y="436" on="0"/>
        <pt x="1302" y="387" on="1"/>
        <pt x="1302" y="601" on="0"/>
        <pt x="1299" y="910" on="0"/>
        <pt x="1295" y="1127" on="0"/>
        <pt x="1289" y="1267" on="0"/>
        <pt x="1285" y="1359" on="0"/>
        <pt x="1282" y="1418" on="0"/>
        <pt x="1282" y="1445" on="1"/>
        <pt x="1282" y="1485" on="0"/>
        <pt x="1299" y="1536" on="0"/>
        <pt x="1330" y="1564" on="0"/>
        <pt x="1376" y="1574" on="0"/>
        <pt x="1406" y="1574" on="1"/>
        <pt x="1445" y="1574" on="0"/>
        <pt x="1489" y="1542" on="0"/>
        <pt x="1512" y="1493" on="0"/>
        <pt x="1517" y="1432" on="0"/>
        <pt x="1517" y="1403" on="1"/>
        <pt x="1517" y="256" on="1"/>
        <pt x="1517" y="220" on="0"/>
        <pt x="1525" y="147" on="0"/>
        <pt x="1525" y="106" on="1"/>
        <pt x="1525" y="67" on="0"/>
        <pt x="1513" y="16" on="0"/>
        <pt x="1486" y="-16" on="0"/>
        <pt x="1443" y="-29" on="0"/>
        <pt x="1413" y="-29" on="1"/>
        <pt x="1357" y="-29" on="0"/>
        <pt x="1290" y="27" on="0"/>
        <pt x="1276" y="67" on="1"/>
        <pt x="1181" y="197" on="0"/>
        <pt x="986" y="450" on="0"/>
        <pt x="788" y="703" on="0"/>
        <pt x="588" y="960" on="0"/>
        <pt x="489" y="1093" on="1"/>
        <pt x="429" y="1187" on="1"/>
        <pt x="430" y="1034" on="0"/>
        <pt x="432" y="795" on="0"/>
        <pt x="434" y="608" on="0"/>
        <pt x="436" y="465" on="0"/>
        <pt x="437" y="352" on="0"/>
        <pt x="438" y="259" on="0"/>
        <pt x="438" y="215" on="1"/>
        <pt x="439" y="189" on="0"/>
        <pt x="444" y="130" on="0"/>
        <pt x="444" y="102" on="1"/>
        <pt x="444" y="76" on="0"/>
        <pt x="435" y="28" on="0"/>
        <pt x="409" y="-8" on="0"/>
        <pt x="362" y="-29" on="0"/>
        <pt x="324" y="-29" on="1"/>
        <pt x="273" y="-29" on="0"/>
        <pt x="203" y="21" on="0"/>
      </contour>
    </TTGlyph>
    <TTGlyph name="Nacute" xMin="199" yMin="-29" xMax="1525" yMax="2010">
      <component glyphName=".ttfautohint" x="199" y="0" flags="0x0"/>
      <component glyphName="N" x="0" y="0" flags="0x204"/>
      <component glyphName="acute.cap" x="543" y="0" flags="0x4"/>
    </TTGlyph>
    <TTGlyph name="Ncaron" xMin="199" yMin="-29" xMax="1525" yMax="2010">
      <component glyphName=".ttfautohint" x="199" y="0" flags="0x0"/>
      <component glyphName="N" x="0" y="0" flags="0x204"/>
      <component glyphName="caron.cap" x="374" y="0" flags="0x4"/>
    </TTGlyph>
    <TTGlyph name="Ncommaaccent" xMin="199" yMin="-550" xMax="1525" yMax="1574">
      <component glyphName=".ttfautohint" x="199" y="0" flags="0x0"/>
      <component glyphName="N" x="0" y="0" flags="0x204"/>
      <component glyphName="commaaccent" x="543" y="0" flags="0x4"/>
    </TTGlyph>
    <TTGlyph name="Ntilde" xMin="199" yMin="-29" xMax="1525" yMax="2010">
      <component glyphName=".ttfautohint" x="199" y="0" flags="0x0"/>
      <component glyphName="N" x="0" y="0" flags="0x204"/>
      <component glyphName="tilde.cap" x="374" y="0" flags="0x4"/>
    </TTGlyph>
    <TTGlyph name="O" xMin="144" yMin="-29" xMax="1540" yMax="1574">
      <contour>
        <pt x="144" y="773" on="1"/>
        <pt x="144" y="951" on="0"/>
        <pt x="245" y="1245" on="0"/>
        <pt x="430" y="1457" on="0"/>
        <pt x="691" y="1574" on="0"/>
        <pt x="850" y="1574" on="1"/>
        <pt x="1018" y="1574" on="0"/>
        <pt x="1275" y="1457" on="0"/>
        <pt x="1450" y="1245" on="0"/>
        <pt x="1540" y="951" on="0"/>
        <pt x="1540" y="773" on="1"/>
        <pt x="1540" y="604" on="0"/>
        <pt x="1442" y="311" on="0"/>
        <pt x="1260" y="95" on="0"/>
        <pt x="1002" y="-29" on="0"/>
        <pt x="842" y="-29" on="1"/>
        <pt x="736" y="-29" on="0"/>
        <pt x="550" y="27" on="0"/>
        <pt x="395" y="131" on="0"/>
        <pt x="273" y="276" on="0"/>
        <pt x="188" y="454" on="0"/>
        <pt x="144" y="660" on="0"/>
      </contour>
      <contour>
        <pt x="372" y="773" on="1"/>
        <pt x="372" y="698" on="0"/>
        <pt x="400" y="551" on="0"/>
        <pt x="455" y="418" on="0"/>
        <pt x="536" y="305" on="0"/>
        <pt x="641" y="222" on="0"/>
        <pt x="770" y="175" on="0"/>
        <pt x="845" y="175" on="1"/>
        <pt x="924" y="175" on="0"/>
        <pt x="1054" y="222" on="0"/>
        <pt x="1158" y="305" on="0"/>
        <pt x="1235" y="418" on="0"/>
        <pt x="1286" y="551" on="0"/>
        <pt x="1311" y="698" on="0"/>
        <pt x="1311" y="773" on="1"/>
        <pt x="1311" y="893" on="0"/>
        <pt x="1255" y="1108" on="0"/>
        <pt x="1140" y="1272" on="0"/>
        <pt x="965" y="1368" on="0"/>
        <pt x="845" y="1368" on="1"/>
        <pt x="732" y="1368" on="0"/>
        <pt x="556" y="1282" on="0"/>
        <pt x="435" y="1126" on="0"/>
        <pt x="372" y="907" on="0"/>
      </contour>
    </TTGlyph>
    <TTGlyph name="OE" xMin="144" yMin="-29" xMax="2302" yMax="1574">
      <contour>
        <pt x="144" y="773" on="1"/>
        <pt x="144" y="951" on="0"/>
        <pt x="245" y="1245" on="0"/>
        <pt x="430" y="1457" on="0"/>
        <pt x="691" y="1574" on="0"/>
        <pt x="850" y="1574" on="1"/>
        <pt x="997" y="1574" on="0"/>
        <pt x="1230" y="1484" on="0"/>
        <pt x="1316" y="1401" on="1"/>
        <pt x="1316" y="1412" on="1"/>
        <pt x="1316" y="1461" on="0"/>
        <pt x="1339" y="1515" on="0"/>
        <pt x="1375" y="1541" on="0"/>
        <pt x="1422" y="1545" on="0"/>
        <pt x="1446" y="1545" on="1"/>
        <pt x="1973" y="1545" on="1"/>
        <pt x="1991" y="1547" on="0"/>
        <pt x="2036" y="1554" on="0"/>
        <pt x="2045" y="1554" on="1"/>
        <pt x="2083" y="1554" on="0"/>
        <pt x="2130" y="1540" on="0"/>
        <pt x="2157" y="1513" on="0"/>
        <pt x="2166" y="1473" on="0"/>
        <pt x="2166" y="1446" on="1"/>
        <pt x="2166" y="1408" on="0"/>
        <pt x="2147" y="1362" on="0"/>
        <pt x="2114" y="1337" on="0"/>
        <pt x="2070" y="1329" on="0"/>
        <pt x="2045" y="1329" on="1"/>
        <pt x="2034" y="1329" on="0"/>
        <pt x="1998" y="1330" on="0"/>
        <pt x="1978" y="1332" on="1"/>
        <pt x="1881" y="1332" on="0"/>
        <pt x="1762" y="1332" on="0"/>
        <pt x="1691" y="1331" on="0"/>
        <pt x="1654" y="1331" on="0"/>
        <pt x="1640" y="1331" on="1"/>
        <pt x="1547" y="1331" on="1"/>
        <pt x="1547" y="1014" on="1"/>
        <pt x="1553" y="1014" on="0"/>
        <pt x="1570" y="1013" on="0"/>
        <pt x="1606" y="1013" on="0"/>
        <pt x="1669" y="1013" on="0"/>
        <pt x="1775" y="1013" on="0"/>
        <pt x="1931" y="1013" on="0"/>
        <pt x="2042" y="1013" on="1"/>
        <pt x="2053" y="1013" on="0"/>
        <pt x="2081" y="1015" on="0"/>
        <pt x="2095" y="1017" on="1"/>
        <pt x="2113" y="1019" on="0"/>
        <pt x="2161" y="1023" on="0"/>
        <pt x="2189" y="1023" on="1"/>
        <pt x="2216" y="1023" on="0"/>
        <pt x="2258" y="1001" on="0"/>
        <pt x="2287" y="968" on="0"/>
        <pt x="2302" y="930" on="0"/>
        <pt x="2302" y="913" on="1"/>
        <pt x="2302" y="859" on="0"/>
        <pt x="2231" y="809" on="0"/>
        <pt x="2175" y="809" on="1"/>
        <pt x="1547" y="808" on="1"/>
        <pt x="1547" y="209" on="1"/>
        <pt x="1646" y="209" on="0"/>
        <pt x="1846" y="203" on="0"/>
        <pt x="1955" y="203" on="1"/>
        <pt x="1985" y="203" on="0"/>
        <pt x="2035" y="209" on="0"/>
        <pt x="2058" y="213" on="1"/>
        <pt x="2079" y="216" on="0"/>
        <pt x="2122" y="221" on="0"/>
        <pt x="2148" y="221" on="1"/>
        <pt x="2178" y="221" on="0"/>
        <pt x="2229" y="212" on="0"/>
        <pt x="2267" y="189" on="0"/>
        <pt x="2289" y="150" on="0"/>
        <pt x="2289" y="120" on="1"/>
        <pt x="2289" y="76" on="0"/>
        <pt x="2259" y="28" on="0"/>
        <pt x="2208" y="5" on="0"/>
        <pt x="2143" y="0" on="0"/>
        <pt x="2108" y="0" on="1"/>
        <pt x="1435" y="0" on="1"/>
        <pt x="1409" y="0" on="0"/>
        <pt x="1366" y="12" on="0"/>
        <pt x="1334" y="39" on="0"/>
        <pt x="1316" y="82" on="0"/>
        <pt x="1316" y="113" on="1"/>
        <pt x="1316" y="128" on="0"/>
        <pt x="1323" y="162" on="0"/>
        <pt x="1328" y="177" on="1"/>
        <pt x="1237" y="80" on="0"/>
        <pt x="993" y="-29" on="0"/>
        <pt x="842" y="-29" on="1"/>
        <pt x="736" y="-29" on="0"/>
        <pt x="550" y="27" on="0"/>
        <pt x="395" y="131" on="0"/>
        <pt x="273" y="276" on="0"/>
        <pt x="188" y="454" on="0"/>
        <pt x="144" y="660" on="0"/>
      </contour>
      <contour>
        <pt x="372" y="773" on="1"/>
        <pt x="372" y="698" on="0"/>
        <pt x="400" y="551" on="0"/>
        <pt x="455" y="418" on="0"/>
        <pt x="536" y="305" on="0"/>
        <pt x="641" y="222" on="0"/>
        <pt x="770" y="175" on="0"/>
        <pt x="845" y="175" on="1"/>
        <pt x="924" y="175" on="0"/>
        <pt x="1054" y="222" on="0"/>
        <pt x="1158" y="305" on="0"/>
        <pt x="1235" y="418" on="0"/>
        <pt x="1286" y="551" on="0"/>
        <pt x="1311" y="698" on="0"/>
        <pt x="1311" y="773" on="1"/>
        <pt x="1311" y="893" on="0"/>
        <pt x="1255" y="1108" on="0"/>
        <pt x="1140" y="1272" on="0"/>
        <pt x="965" y="1368" on="0"/>
        <pt x="845" y="1368" on="1"/>
        <pt x="732" y="1368" on="0"/>
        <pt x="556" y="1282" on="0"/>
        <pt x="435" y="1126" on="0"/>
        <pt x="372" y="907" on="0"/>
      </contour>
    </TTGlyph>
    <TTGlyph name="Oacute" xMin="144" yMin="-29" xMax="1540" yMax="2010">
      <component glyphName=".ttfautohint" x="144" y="0" flags="0x0"/>
      <component glyphName="O" x="0" y="0" flags="0x204"/>
      <component glyphName="acute.cap" x="526" y="0" flags="0x4"/>
    </TTGlyph>
    <TTGlyph name="Obreve" xMin="144" yMin="-29" xMax="1540" yMax="2003">
      <component glyphName=".ttfautohint" x="144" y="0" flags="0x0"/>
      <component glyphName="O" x="0" y="0" flags="0x204"/>
      <component glyphName="breve.cap" x="357" y="0" flags="0x4"/>
    </TTGlyph>
    <TTGlyph name="Ocircumflex" xMin="144" yMin="-29" xMax="1540" yMax="2010">
      <component glyphName=".ttfautohint" x="144" y="0" flags="0x0"/>
      <component glyphName="O" x="0" y="0" flags="0x204"/>
      <component glyphName="circumflex.cap" x="357" y="0" flags="0x4"/>
    </TTGlyph>
    <TTGlyph name="Odieresis" xMin="144" yMin="-29" xMax="1540" yMax="1968">
      <component glyphName=".ttfautohint" x="144" y="0" flags="0x0"/>
      <component glyphName="O" x="0" y="0" flags="0x204"/>
      <component glyphName="dieresis.cap" x="357" y="0" flags="0x4"/>
    </TTGlyph>
    <TTGlyph name="Ograve" xMin="144" yMin="-29" xMax="1540" yMax="2010">
      <component glyphName=".ttfautohint" x="144" y="0" flags="0x0"/>
      <component glyphName="O" x="0" y="0" flags="0x204"/>
      <component glyphName="grave.cap" x="526" y="0" flags="0x4"/>
    </TTGlyph>
    <TTGlyph name="Ohungarumlaut" xMin="144" yMin="-29" xMax="1540" yMax="2010">
      <component glyphName=".ttfautohint" x="144" y="0" flags="0x0"/>
      <component glyphName="O" x="0" y="0" flags="0x204"/>
      <component glyphName="hungarumlaut.cap" x="595" y="0" flags="0x4"/>
    </TTGlyph>
    <TTGlyph name="Omacron" xMin="144" yMin="-29" xMax="1540" yMax="1841">
      <component glyphName=".ttfautohint" x="144" y="0" flags="0x0"/>
      <component glyphName="O" x="0" y="0" flags="0x204"/>
      <component glyphName="macron.cap" x="357" y="0" flags="0x4"/>
    </TTGlyph>
    <TTGlyph name="Omega" xMin="70" yMin="0" xMax="1569" yMax="1596">
      <component glyphName=".ttfautohint" x="70" y="0" flags="0x0"/>
      <component glyphName="uni03A9" x="0" y="0" flags="0x204"/>
    </TTGlyph>
    <TTGlyph name="Oslash" xMin="144" yMin="-197" xMax="1540" yMax="1710">
      <contour>
        <pt x="419" y="-89" on="1"/>
        <pt x="419" y="-75" on="0"/>
        <pt x="434" y="-13" on="0"/>
        <pt x="456" y="16" on="1"/>
        <pt x="486" y="87" on="1"/>
        <pt x="405" y="138" on="0"/>
        <pt x="278" y="284" on="0"/>
        <pt x="190" y="464" on="0"/>
        <pt x="144" y="675" on="0"/>
        <pt x="144" y="790" on="1"/>
        <pt x="144" y="968" on="0"/>
        <pt x="245" y="1262" on="0"/>
        <pt x="430" y="1474" on="0"/>
        <pt x="691" y="1591" on="0"/>
        <pt x="850" y="1591" on="1"/>
        <pt x="896" y="1591" on="0"/>
        <pt x="982" y="1581" on="0"/>
        <pt x="1023" y="1572" on="1"/>
        <pt x="1028" y="1589" on="0"/>
        <pt x="1040" y="1624" on="0"/>
        <pt x="1046" y="1642" on="1"/>
        <pt x="1050" y="1653" on="0"/>
        <pt x="1064" y="1677" on="0"/>
        <pt x="1087" y="1697" on="0"/>
        <pt x="1118" y="1710" on="0"/>
        <pt x="1139" y="1710" on="1"/>
        <pt x="1195" y="1710" on="0"/>
        <pt x="1258" y="1654" on="0"/>
        <pt x="1258" y="1613" on="1"/>
        <pt x="1258" y="1590" on="0"/>
        <pt x="1250" y="1566" on="1"/>
        <pt x="1221" y="1493" on="1"/>
        <pt x="1299" y="1444" on="0"/>
        <pt x="1419" y="1302" on="0"/>
        <pt x="1499" y="1122" on="0"/>
        <pt x="1540" y="910" on="0"/>
        <pt x="1540" y="790" on="1"/>
        <pt x="1540" y="621" on="0"/>
        <pt x="1442" y="328" on="0"/>
        <pt x="1260" y="112" on="0"/>
        <pt x="1002" y="-12" on="0"/>
        <pt x="842" y="-12" on="1"/>
        <pt x="800" y="-12" on="0"/>
        <pt x="720" y="-2" on="0"/>
        <pt x="682" y="6" on="1"/>
        <pt x="662" y="-57" on="1"/>
        <pt x="659" y="-68" on="0"/>
        <pt x="657" y="-84" on="1"/>
        <pt x="656" y="-94" on="0"/>
        <pt x="648" y="-132" on="0"/>
        <pt x="626" y="-169" on="0"/>
        <pt x="584" y="-197" on="0"/>
        <pt x="550" y="-197" on="1"/>
        <pt x="489" y="-197" on="0"/>
        <pt x="419" y="-135" on="0"/>
      </contour>
      <contour>
        <pt x="572" y="294" on="1"/>
        <pt x="663" y="524" on="0"/>
        <pt x="851" y="1056" on="0"/>
        <pt x="956" y="1372" on="1"/>
        <pt x="930" y="1378" on="0"/>
        <pt x="875" y="1385" on="0"/>
        <pt x="845" y="1385" on="1"/>
        <pt x="732" y="1385" on="0"/>
        <pt x="556" y="1299" on="0"/>
        <pt x="435" y="1143" on="0"/>
        <pt x="372" y="924" on="0"/>
        <pt x="372" y="790" on="1"/>
        <pt x="372" y="718" on="0"/>
        <pt x="398" y="577" on="0"/>
        <pt x="449" y="448" on="0"/>
        <pt x="523" y="336" on="0"/>
      </contour>
      <contour>
        <pt x="748" y="203" on="1"/>
        <pt x="795" y="192" on="0"/>
        <pt x="845" y="192" on="1"/>
        <pt x="924" y="192" on="0"/>
        <pt x="1054" y="239" on="0"/>
        <pt x="1158" y="322" on="0"/>
        <pt x="1235" y="435" on="0"/>
        <pt x="1286" y="568" on="0"/>
        <pt x="1311" y="715" on="0"/>
        <pt x="1311" y="790" on="1"/>
        <pt x="1311" y="864" on="0"/>
        <pt x="1289" y="1004" on="0"/>
        <pt x="1246" y="1130" on="0"/>
        <pt x="1180" y="1237" on="0"/>
        <pt x="1135" y="1278" on="1"/>
        <pt x="1072" y="1116" on="0"/>
        <pt x="969" y="841" on="0"/>
        <pt x="878" y="587" on="0"/>
        <pt x="793" y="339" on="0"/>
      </contour>
    </TTGlyph>
    <TTGlyph name="Otilde" xMin="144" yMin="-29" xMax="1540" yMax="2010">
      <component glyphName=".ttfautohint" x="144" y="0" flags="0x0"/>
      <component glyphName="O" x="0" y="0" flags="0x204"/>
      <component glyphName="tilde.cap" x="357" y="0" flags="0x4"/>
    </TTGlyph>
    <TTGlyph name="P" xMin="198" yMin="-29" xMax="1308" yMax="1561">
      <contour>
        <pt x="207" y="83" on="1"/>
        <pt x="207" y="115" on="0"/>
        <pt x="216" y="180" on="0"/>
        <pt x="217" y="215" on="1"/>
        <pt x="213" y="1365" on="1"/>
        <pt x="207" y="1379" on="0"/>
        <pt x="198" y="1429" on="0"/>
        <pt x="198" y="1451" on="1"/>
        <pt x="198" y="1471" on="0"/>
        <pt x="212" y="1511" on="0"/>
        <pt x="239" y="1542" on="0"/>
        <pt x="279" y="1561" on="0"/>
        <pt x="305" y="1561" on="1"/>
        <pt x="349" y="1561" on="0"/>
        <pt x="437" y="1552" on="0"/>
        <pt x="485" y="1552" on="1"/>
        <pt x="523" y="1552" on="0"/>
        <pt x="600" y="1561" on="0"/>
        <pt x="643" y="1561" on="1"/>
        <pt x="784" y="1561" on="0"/>
        <pt x="1028" y="1483" on="0"/>
        <pt x="1206" y="1332" on="0"/>
        <pt x="1308" y="1112" on="0"/>
        <pt x="1308" y="971" on="1"/>
        <pt x="1308" y="837" on="0"/>
        <pt x="1240" y="638" on="0"/>
        <pt x="1123" y="496" on="0"/>
        <pt x="966" y="405" on="0"/>
        <pt x="785" y="353" on="0"/>
        <pt x="591" y="333" on="0"/>
        <pt x="496" y="333" on="1"/>
        <pt x="486" y="333" on="0"/>
        <pt x="472" y="332" on="0"/>
        <pt x="460" y="332" on="0"/>
        <pt x="447" y="333" on="0"/>
        <pt x="438" y="333" on="1"/>
        <pt x="438" y="298" on="0"/>
        <pt x="438" y="257" on="0"/>
        <pt x="439" y="231" on="0"/>
        <pt x="439" y="213" on="0"/>
        <pt x="439" y="201" on="1"/>
        <pt x="439" y="169" on="0"/>
        <pt x="452" y="105" on="0"/>
        <pt x="452" y="69" on="1"/>
        <pt x="452" y="42" on="0"/>
        <pt x="428" y="5" on="0"/>
        <pt x="392" y="-18" on="0"/>
        <pt x="350" y="-29" on="0"/>
        <pt x="332" y="-29" on="1"/>
        <pt x="308" y="-29" on="0"/>
        <pt x="262" y="-14" on="0"/>
        <pt x="228" y="15" on="0"/>
        <pt x="207" y="56" on="0"/>
      </contour>
      <contour>
        <pt x="439" y="550" on="1"/>
        <pt x="459" y="549" on="0"/>
        <pt x="502" y="547" on="0"/>
        <pt x="540" y="545" on="0"/>
        <pt x="570" y="544" on="0"/>
        <pt x="578" y="544" on="1"/>
        <pt x="689" y="544" on="0"/>
        <pt x="850" y="580" on="0"/>
        <pt x="960" y="642" on="0"/>
        <pt x="1028" y="725" on="0"/>
        <pt x="1064" y="822" on="0"/>
        <pt x="1076" y="927" on="0"/>
        <pt x="1076" y="979" on="1"/>
        <pt x="1076" y="1062" on="0"/>
        <pt x="1029" y="1183" on="0"/>
        <pt x="953" y="1265" on="0"/>
        <pt x="856" y="1315" on="0"/>
        <pt x="755" y="1342" on="0"/>
        <pt x="659" y="1351" on="0"/>
        <pt x="623" y="1351" on="1"/>
        <pt x="577" y="1351" on="0"/>
        <pt x="484" y="1348" on="0"/>
        <pt x="431" y="1347" on="1"/>
        <pt x="433" y="1216" on="0"/>
        <pt x="435" y="1017" on="0"/>
        <pt x="436" y="864" on="0"/>
        <pt x="437" y="750" on="0"/>
        <pt x="438" y="660" on="0"/>
        <pt x="439" y="586" on="0"/>
      </contour>
    </TTGlyph>
    <TTGlyph name="Q" xMin="144" yMin="-29" xMax="1698" yMax="1574">
      <contour>
        <pt x="144" y="773" on="1"/>
        <pt x="144" y="951" on="0"/>
        <pt x="245" y="1245" on="0"/>
        <pt x="430" y="1457" on="0"/>
        <pt x="691" y="1574" on="0"/>
        <pt x="850" y="1574" on="1"/>
        <pt x="1018" y="1574" on="0"/>
        <pt x="1275" y="1457" on="0"/>
        <pt x="1450" y="1245" on="0"/>
        <pt x="1540" y="951" on="0"/>
        <pt x="1540" y="773" on="1"/>
        <pt x="1540" y="621" on="0"/>
        <pt x="1462" y="356" on="0"/>
        <pt x="1387" y="250" on="1"/>
        <pt x="1413" y="224" on="0"/>
        <pt x="1466" y="189" on="0"/>
        <pt x="1491" y="190" on="1"/>
        <pt x="1503" y="190" on="0"/>
        <pt x="1527" y="199" on="0"/>
        <pt x="1553" y="210" on="0"/>
        <pt x="1581" y="219" on="0"/>
        <pt x="1598" y="219" on="1"/>
        <pt x="1616" y="219" on="0"/>
        <pt x="1652" y="206" on="0"/>
        <pt x="1680" y="179" on="0"/>
        <pt x="1698" y="140" on="0"/>
        <pt x="1698" y="113" on="1"/>
        <pt x="1698" y="77" on="0"/>
        <pt x="1667" y="24" on="0"/>
        <pt x="1615" y="-12" on="0"/>
        <pt x="1544" y="-29" on="0"/>
        <pt x="1505" y="-29" on="1"/>
        <pt x="1468" y="-29" on="0"/>
        <pt x="1400" y="-8" on="0"/>
        <pt x="1337" y="29" on="0"/>
        <pt x="1279" y="79" on="0"/>
        <pt x="1252" y="107" on="1"/>
        <pt x="1168" y="42" on="0"/>
        <pt x="963" y="-29" on="0"/>
        <pt x="842" y="-29" on="1"/>
        <pt x="736" y="-29" on="0"/>
        <pt x="550" y="27" on="0"/>
        <pt x="395" y="131" on="0"/>
        <pt x="273" y="276" on="0"/>
        <pt x="188" y="454" on="0"/>
        <pt x="144" y="660" on="0"/>
      </contour>
      <contour>
        <pt x="372" y="773" on="1"/>
        <pt x="372" y="698" on="0"/>
        <pt x="400" y="551" on="0"/>
        <pt x="455" y="418" on="0"/>
        <pt x="536" y="305" on="0"/>
        <pt x="641" y="222" on="0"/>
        <pt x="770" y="175" on="0"/>
        <pt x="845" y="175" on="1"/>
        <pt x="926" y="175" on="0"/>
        <pt x="1060" y="224" on="0"/>
        <pt x="1113" y="269" on="1"/>
        <pt x="1090" y="296" on="0"/>
        <pt x="1044" y="342" on="0"/>
        <pt x="999" y="376" on="0"/>
        <pt x="953" y="396" on="0"/>
        <pt x="929" y="396" on="1"/>
        <pt x="921" y="396" on="0"/>
        <pt x="897" y="393" on="0"/>
        <pt x="883" y="393" on="1"/>
        <pt x="869" y="393" on="0"/>
        <pt x="821" y="400" on="0"/>
        <pt x="774" y="423" on="0"/>
        <pt x="740" y="465" on="0"/>
        <pt x="740" y="501" on="1"/>
        <pt x="740" y="535" on="0"/>
        <pt x="765" y="578" on="0"/>
        <pt x="806" y="603" on="0"/>
        <pt x="856" y="613" on="0"/>
        <pt x="881" y="613" on="1"/>
        <pt x="938" y="613" on="0"/>
        <pt x="1030" y="589" on="0"/>
        <pt x="1112" y="542" on="0"/>
        <pt x="1191" y="473" on="0"/>
        <pt x="1235" y="429" on="1"/>
        <pt x="1273" y="505" on="0"/>
        <pt x="1311" y="681" on="0"/>
        <pt x="1311" y="773" on="1"/>
        <pt x="1311" y="893" on="0"/>
        <pt x="1255" y="1108" on="0"/>
        <pt x="1140" y="1272" on="0"/>
        <pt x="965" y="1368" on="0"/>
        <pt x="845" y="1368" on="1"/>
        <pt x="732" y="1368" on="0"/>
        <pt x="556" y="1282" on="0"/>
        <pt x="435" y="1126" on="0"/>
        <pt x="372" y="907" on="0"/>
      </contour>
    </TTGlyph>
    <TTGlyph name="R" xMin="198" yMin="-29" xMax="1516" yMax="1561">
      <contour>
        <pt x="205" y="111" on="1"/>
        <pt x="205" y="133" on="0"/>
        <pt x="209" y="175" on="0"/>
        <pt x="211" y="193" on="1"/>
        <pt x="211" y="332" on="0"/>
        <pt x="211" y="566" on="0"/>
        <pt x="211" y="769" on="0"/>
        <pt x="211" y="947" on="0"/>
        <pt x="211" y="1114" on="0"/>
        <pt x="212" y="1275" on="0"/>
        <pt x="212" y="1359" on="1"/>
        <pt x="207" y="1373" on="0"/>
        <pt x="198" y="1423" on="0"/>
        <pt x="198" y="1445" on="1"/>
        <pt x="198" y="1466" on="0"/>
        <pt x="211" y="1508" on="0"/>
        <pt x="238" y="1541" on="0"/>
        <pt x="278" y="1561" on="0"/>
        <pt x="304" y="1561" on="1"/>
        <pt x="346" y="1561" on="0"/>
        <pt x="432" y="1551" on="0"/>
        <pt x="486" y="1551" on="1"/>
        <pt x="531" y="1551" on="0"/>
        <pt x="621" y="1560" on="0"/>
        <pt x="672" y="1561" on="1"/>
        <pt x="823" y="1561" on="0"/>
        <pt x="1068" y="1501" on="0"/>
        <pt x="1241" y="1375" on="0"/>
        <pt x="1335" y="1180" on="0"/>
        <pt x="1335" y="1045" on="1"/>
        <pt x="1335" y="917" on="0"/>
        <pt x="1264" y="718" on="0"/>
        <pt x="1153" y="570" on="0"/>
        <pt x="1016" y="471" on="0"/>
        <pt x="951" y="445" on="1"/>
        <pt x="960" y="391" on="0"/>
        <pt x="999" y="296" on="0"/>
        <pt x="1060" y="224" on="0"/>
        <pt x="1142" y="182" on="0"/>
        <pt x="1193" y="182" on="1"/>
        <pt x="1231" y="182" on="0"/>
        <pt x="1294" y="206" on="0"/>
        <pt x="1317" y="241" on="1"/>
        <pt x="1331" y="261" on="0"/>
        <pt x="1371" y="292" on="0"/>
        <pt x="1402" y="292" on="1"/>
        <pt x="1456" y="292" on="0"/>
        <pt x="1516" y="232" on="0"/>
        <pt x="1516" y="186" on="1"/>
        <pt x="1516" y="143" on="0"/>
        <pt x="1467" y="65" on="0"/>
        <pt x="1378" y="6" on="0"/>
        <pt x="1252" y="-29" on="0"/>
        <pt x="1175" y="-29" on="1"/>
        <pt x="1104" y="-29" on="0"/>
        <pt x="989" y="12" on="0"/>
        <pt x="898" y="81" on="0"/>
        <pt x="828" y="170" on="0"/>
        <pt x="778" y="267" on="0"/>
        <pt x="746" y="363" on="0"/>
        <pt x="737" y="405" on="1"/>
        <pt x="725" y="405" on="0"/>
        <pt x="685" y="405" on="0"/>
        <pt x="643" y="405" on="0"/>
        <pt x="602" y="406" on="0"/>
        <pt x="589" y="406" on="1"/>
        <pt x="560" y="407" on="0"/>
        <pt x="475" y="408" on="0"/>
        <pt x="440" y="408" on="1"/>
        <pt x="440" y="262" on="1"/>
        <pt x="442" y="215" on="0"/>
        <pt x="462" y="126" on="0"/>
        <pt x="462" y="79" on="1"/>
        <pt x="462" y="50" on="0"/>
        <pt x="439" y="10" on="0"/>
        <pt x="403" y="-17" on="0"/>
        <pt x="361" y="-29" on="0"/>
        <pt x="342" y="-29" on="1"/>
        <pt x="312" y="-29" on="0"/>
        <pt x="262" y="-8" on="0"/>
        <pt x="226" y="29" on="0"/>
        <pt x="205" y="80" on="0"/>
      </contour>
      <contour>
        <pt x="439" y="623" on="1"/>
        <pt x="465" y="622" on="0"/>
        <pt x="535" y="620" on="0"/>
        <pt x="599" y="618" on="0"/>
        <pt x="649" y="617" on="0"/>
        <pt x="656" y="617" on="1"/>
        <pt x="791" y="617" on="0"/>
        <pt x="964" y="691" on="0"/>
        <pt x="1062" y="813" on="0"/>
        <pt x="1099" y="971" on="0"/>
        <pt x="1099" y="1054" on="1"/>
        <pt x="1099" y="1127" on="0"/>
        <pt x="1053" y="1228" on="0"/>
        <pt x="977" y="1294" on="0"/>
        <pt x="881" y="1332" on="0"/>
        <pt x="782" y="1350" on="0"/>
        <pt x="687" y="1354" on="0"/>
        <pt x="651" y="1354" on="1"/>
        <pt x="600" y="1354" on="0"/>
        <pt x="495" y="1351" on="0"/>
        <pt x="434" y="1350" on="1"/>
        <pt x="432" y="1312" on="0"/>
        <pt x="431" y="1250" on="0"/>
        <pt x="430" y="1191" on="0"/>
        <pt x="430" y="1130" on="0"/>
        <pt x="430" y="1092" on="1"/>
        <pt x="430" y="1024" on="0"/>
        <pt x="431" y="907" on="0"/>
        <pt x="433" y="796" on="0"/>
        <pt x="436" y="684" on="0"/>
      </contour>
      <contour>
        <pt x="908" y="431" on="1"/>
        <pt x="907" y="431" on="0"/>
        <pt x="907" y="430" on="1"/>
      </contour>
      <contour>
        <pt x="906" y="430" on="1"/>
        <pt x="907" y="430" on="1"/>
      </contour>
    </TTGlyph>
    <TTGlyph name="Racute" xMin="198" yMin="-29" xMax="1516" yMax="2010">
      <component glyphName=".ttfautohint" x="198" y="0" flags="0x0"/>
      <component glyphName="R" x="0" y="0" flags="0x204"/>
      <component glyphName="acute.cap" x="403" y="0" flags="0x4"/>
    </TTGlyph>
    <TTGlyph name="Rcaron" xMin="198" yMin="-29" xMax="1516" yMax="2010">
      <component glyphName=".ttfautohint" x="198" y="0" flags="0x0"/>
      <component glyphName="R" x="0" y="0" flags="0x204"/>
      <component glyphName="caron.cap" x="235" y="0" flags="0x4"/>
    </TTGlyph>
    <TTGlyph name="Rcommaaccent" xMin="198" yMin="-550" xMax="1516" yMax="1561">
      <component glyphName=".ttfautohint" x="198" y="0" flags="0x0"/>
      <component glyphName="R" x="0" y="0" flags="0x204"/>
      <component glyphName="commaaccent" x="379" y="0" flags="0x4"/>
    </TTGlyph>
    <TTGlyph name="S" xMin="152" yMin="-30" xMax="1208" yMax="1574">
      <contour>
        <pt x="154" y="359" on="1"/>
        <pt x="159" y="440" on="0"/>
        <pt x="216" y="525" on="0"/>
        <pt x="288" y="525" on="1"/>
        <pt x="333" y="525" on="0"/>
        <pt x="397" y="474" on="0"/>
        <pt x="397" y="429" on="1"/>
        <pt x="397" y="403" on="0"/>
        <pt x="387" y="351" on="0"/>
        <pt x="389" y="323" on="1"/>
        <pt x="393" y="289" on="0"/>
        <pt x="445" y="233" on="0"/>
        <pt x="525" y="192" on="0"/>
        <pt x="627" y="169" on="0"/>
        <pt x="680" y="169" on="1"/>
        <pt x="734" y="169" on="0"/>
        <pt x="841" y="188" on="0"/>
        <pt x="928" y="240" on="0"/>
        <pt x="982" y="330" on="0"/>
        <pt x="982" y="402" on="1"/>
        <pt x="982" y="449" on="0"/>
        <pt x="936" y="532" on="0"/>
        <pt x="864" y="601" on="0"/>
        <pt x="777" y="657" on="0"/>
        <pt x="737" y="678" on="1"/>
        <pt x="680" y="707" on="0"/>
        <pt x="561" y="762" on="0"/>
        <pt x="448" y="823" on="0"/>
        <pt x="347" y="896" on="0"/>
        <pt x="271" y="994" on="0"/>
        <pt x="227" y="1123" on="0"/>
        <pt x="227" y="1208" on="1"/>
        <pt x="227" y="1303" on="0"/>
        <pt x="308" y="1441" on="0"/>
        <pt x="440" y="1531" on="0"/>
        <pt x="611" y="1574" on="0"/>
        <pt x="701" y="1574" on="1"/>
        <pt x="781" y="1574" on="0"/>
        <pt x="931" y="1546" on="0"/>
        <pt x="1049" y="1483" on="0"/>
        <pt x="1127" y="1378" on="0"/>
        <pt x="1135" y="1302" on="1"/>
        <pt x="1137" y="1274" on="0"/>
        <pt x="1119" y="1231" on="0"/>
        <pt x="1087" y="1202" on="0"/>
        <pt x="1046" y="1187" on="0"/>
        <pt x="1025" y="1187" on="1"/>
        <pt x="993" y="1187" on="0"/>
        <pt x="949" y="1207" on="0"/>
        <pt x="921" y="1237" on="0"/>
        <pt x="907" y="1275" on="0"/>
        <pt x="905" y="1293" on="1"/>
        <pt x="890" y="1317" on="0"/>
        <pt x="842" y="1348" on="0"/>
        <pt x="783" y="1367" on="0"/>
        <pt x="719" y="1374" on="0"/>
        <pt x="689" y="1374" on="1"/>
        <pt x="647" y="1374" on="0"/>
        <pt x="564" y="1356" on="0"/>
        <pt x="496" y="1316" on="0"/>
        <pt x="454" y="1254" on="0"/>
        <pt x="454" y="1209" on="1"/>
        <pt x="454" y="1156" on="0"/>
        <pt x="504" y="1074" on="0"/>
        <pt x="580" y="1010" on="0"/>
        <pt x="673" y="958" on="0"/>
        <pt x="717" y="936" on="1"/>
        <pt x="770" y="909" on="0"/>
        <pt x="884" y="848" on="0"/>
        <pt x="993" y="777" on="0"/>
        <pt x="1091" y="693" on="0"/>
        <pt x="1165" y="590" on="0"/>
        <pt x="1208" y="468" on="0"/>
        <pt x="1208" y="394" on="1"/>
        <pt x="1208" y="315" on="0"/>
        <pt x="1164" y="191" on="0"/>
        <pt x="1088" y="97" on="0"/>
        <pt x="986" y="31" on="0"/>
        <pt x="868" y="-11" on="0"/>
        <pt x="741" y="-30" on="0"/>
        <pt x="678" y="-30" on="1"/>
        <pt x="625" y="-30" on="0"/>
        <pt x="504" y="-12" on="0"/>
        <pt x="386" y="27" on="0"/>
        <pt x="279" y="88" on="0"/>
        <pt x="198" y="175" on="0"/>
        <pt x="152" y="288" on="0"/>
      </contour>
    </TTGlyph>
    <TTGlyph name="Sacute" xMin="152" yMin="-30" xMax="1208" yMax="2010">
      <component glyphName=".ttfautohint" x="152" y="0" flags="0x0"/>
      <component glyphName="S" x="0" y="0" flags="0x204"/>
      <component glyphName="acute.cap" x="390" y="0" flags="0x4"/>
    </TTGlyph>
    <TTGlyph name="Scaron" xMin="152" yMin="-30" xMax="1208" yMax="2010">
      <component glyphName=".ttfautohint" x="152" y="0" flags="0x0"/>
      <component glyphName="S" x="0" y="0" flags="0x204"/>
      <component glyphName="caron.cap" x="222" y="0" flags="0x4"/>
    </TTGlyph>
    <TTGlyph name="Scedilla" xMin="152" yMin="-546" xMax="1208" yMax="1574">
      <component glyphName=".ttfautohint" x="152" y="0" flags="0x0"/>
      <component glyphName="S" x="0" y="0" flags="0x204"/>
      <component glyphName="cedilla" x="81" y="0" flags="0x4"/>
    </TTGlyph>
    <TTGlyph name="Scircumflex" xMin="152" yMin="-30" xMax="1208" yMax="2010">
      <component glyphName=".ttfautohint" x="152" y="0" flags="0x0"/>
      <component glyphName="S" x="0" y="0" flags="0x204"/>
      <component glyphName="circumflex.cap" x="222" y="0" flags="0x4"/>
    </TTGlyph>
    <TTGlyph name="Scommaaccent" xMin="152" yMin="-550" xMax="1208" yMax="1574">
      <component glyphName=".ttfautohint" x="152" y="0" flags="0x0"/>
      <component glyphName="S" x="0" y="0" flags="0x204"/>
      <component glyphName="commaaccent" x="337" y="0" flags="0x4"/>
    </TTGlyph>
    <TTGlyph name="T" xMin="40" yMin="-30" xMax="1099" yMax="1545">
      <contour>
        <pt x="445" y="1320" on="1"/>
        <pt x="375" y="1320" on="0"/>
        <pt x="225" y="1318" on="0"/>
        <pt x="136" y="1318" on="1"/>
        <pt x="112" y="1318" on="0"/>
        <pt x="76" y="1340" on="0"/>
        <pt x="52" y="1375" on="0"/>
        <pt x="40" y="1419" on="0"/>
        <pt x="40" y="1441" on="1"/>
        <pt x="40" y="1500" on="0"/>
        <pt x="106" y="1545" on="0"/>
        <pt x="180" y="1545" on="1"/>
        <pt x="978" y="1545" on="1"/>
        <pt x="998" y="1545" on="0"/>
        <pt x="1041" y="1535" on="0"/>
        <pt x="1076" y="1509" on="0"/>
        <pt x="1099" y="1467" on="0"/>
        <pt x="1099" y="1434" on="1"/>
        <pt x="1099" y="1410" on="0"/>
        <pt x="1083" y="1366" on="0"/>
        <pt x="1056" y="1334" on="0"/>
        <pt x="1019" y="1314" on="0"/>
        <pt x="998" y="1314" on="1"/>
        <pt x="982" y="1314" on="0"/>
        <pt x="952" y="1320" on="0"/>
        <pt x="935" y="1320" on="1"/>
        <pt x="677" y="1320" on="1"/>
        <pt x="674" y="192" on="1"/>
        <pt x="674" y="168" on="0"/>
        <pt x="681" y="122" on="0"/>
        <pt x="681" y="95" on="1"/>
        <pt x="681" y="73" on="0"/>
        <pt x="673" y="29" on="0"/>
        <pt x="647" y="-7" on="0"/>
        <pt x="599" y="-30" on="0"/>
        <pt x="560" y="-30" on="1"/>
        <pt x="514" y="-30" on="0"/>
        <pt x="466" y="1" on="0"/>
        <pt x="445" y="49" on="0"/>
        <pt x="443" y="107" on="0"/>
        <pt x="443" y="134" on="1"/>
      </contour>
    </TTGlyph>
    <TTGlyph name="Tbar" xMin="40" yMin="-30" xMax="1099" yMax="1545">
      <contour>
        <pt x="444" y="782" on="1"/>
        <pt x="409" y="780" on="0"/>
        <pt x="339" y="775" on="0"/>
        <pt x="301" y="775" on="1"/>
        <pt x="275" y="775" on="0"/>
        <pt x="227" y="786" on="0"/>
        <pt x="189" y="813" on="0"/>
        <pt x="167" y="858" on="0"/>
        <pt x="167" y="891" on="1"/>
        <pt x="167" y="936" on="0"/>
        <pt x="243" y="991" on="0"/>
        <pt x="307" y="991" on="1"/>
        <pt x="341" y="991" on="0"/>
        <pt x="409" y="988" on="0"/>
        <pt x="444" y="986" on="1"/>
        <pt x="445" y="1320" on="1"/>
        <pt x="375" y="1320" on="0"/>
        <pt x="225" y="1318" on="0"/>
        <pt x="136" y="1318" on="1"/>
        <pt x="112" y="1318" on="0"/>
        <pt x="76" y="1340" on="0"/>
        <pt x="52" y="1375" on="0"/>
        <pt x="40" y="1419" on="0"/>
        <pt x="40" y="1441" on="1"/>
        <pt x="40" y="1500" on="0"/>
        <pt x="106" y="1545" on="0"/>
        <pt x="180" y="1545" on="1"/>
        <pt x="978" y="1545" on="1"/>
        <pt x="998" y="1545" on="0"/>
        <pt x="1041" y="1535" on="0"/>
        <pt x="1076" y="1509" on="0"/>
        <pt x="1099" y="1467" on="0"/>
        <pt x="1099" y="1434" on="1"/>
        <pt x="1099" y="1410" on="0"/>
        <pt x="1083" y="1366" on="0"/>
        <pt x="1056" y="1334" on="0"/>
        <pt x="1019" y="1314" on="0"/>
        <pt x="998" y="1314" on="1"/>
        <pt x="982" y="1314" on="0"/>
        <pt x="952" y="1320" on="0"/>
        <pt x="935" y="1320" on="1"/>
        <pt x="677" y="1320" on="1"/>
        <pt x="676" y="988" on="1"/>
        <pt x="718" y="993" on="0"/>
        <pt x="800" y="1001" on="0"/>
        <pt x="844" y="1001" on="1"/>
        <pt x="868" y="1001" on="0"/>
        <pt x="913" y="994" on="0"/>
        <pt x="947" y="970" on="0"/>
        <pt x="967" y="926" on="0"/>
        <pt x="967" y="889" on="1"/>
        <pt x="967" y="856" on="0"/>
        <pt x="939" y="812" on="0"/>
        <pt x="900" y="786" on="0"/>
        <pt x="860" y="775" on="0"/>
        <pt x="847" y="775" on="1"/>
        <pt x="805" y="775" on="0"/>
        <pt x="720" y="778" on="0"/>
        <pt x="675" y="780" on="1"/>
        <pt x="674" y="192" on="1"/>
        <pt x="674" y="168" on="0"/>
        <pt x="681" y="122" on="0"/>
        <pt x="681" y="95" on="1"/>
        <pt x="681" y="73" on="0"/>
        <pt x="673" y="29" on="0"/>
        <pt x="647" y="-7" on="0"/>
        <pt x="599" y="-30" on="0"/>
        <pt x="560" y="-30" on="1"/>
        <pt x="514" y="-30" on="0"/>
        <pt x="466" y="1" on="0"/>
        <pt x="445" y="49" on="0"/>
        <pt x="443" y="107" on="0"/>
        <pt x="443" y="134" on="1"/>
      </contour>
    </TTGlyph>
    <TTGlyph name="Tcaron" xMin="40" yMin="-30" xMax="1099" yMax="2010">
      <component glyphName=".ttfautohint" x="40" y="0" flags="0x0"/>
      <component glyphName="T" x="0" y="0" flags="0x204"/>
      <component glyphName="caron.cap" x="80" y="0" flags="0x4"/>
    </TTGlyph>
    <TTGlyph name="Tcommaaccent" xMin="40" yMin="-550" xMax="1099" yMax="1545">
      <component glyphName=".ttfautohint" x="40" y="0" flags="0x0"/>
      <component glyphName="T" x="0" y="0" flags="0x204"/>
      <component glyphName="commaaccent" x="225" y="0" flags="0x4"/>
    </TTGlyph>
    <TTGlyph name="Thorn" xMin="198" yMin="-16" xMax="1338" yMax="1571">
      <contour>
        <pt x="204" y="89" on="1"/>
        <pt x="204" y="140" on="0"/>
        <pt x="219" y="241" on="0"/>
        <pt x="219" y="295" on="1"/>
        <pt x="219" y="552" on="0"/>
        <pt x="210" y="1072" on="0"/>
        <pt x="210" y="1346" on="1"/>
        <pt x="210" y="1375" on="0"/>
        <pt x="198" y="1434" on="0"/>
        <pt x="198" y="1464" on="1"/>
        <pt x="198" y="1490" on="0"/>
        <pt x="212" y="1530" on="0"/>
        <pt x="247" y="1557" on="0"/>
        <pt x="305" y="1571" on="0"/>
        <pt x="350" y="1571" on="1"/>
        <pt x="396" y="1571" on="0"/>
        <pt x="447" y="1513" on="0"/>
        <pt x="447" y="1466" on="1"/>
        <pt x="447" y="1439" on="0"/>
        <pt x="440" y="1383" on="0"/>
        <pt x="438" y="1354" on="1"/>
        <pt x="438" y="1349" on="0"/>
        <pt x="437" y="1337" on="0"/>
        <pt x="437" y="1332" on="1"/>
        <pt x="458" y="1332" on="1"/>
        <pt x="502" y="1332" on="0"/>
        <pt x="590" y="1335" on="0"/>
        <pt x="642" y="1335" on="1"/>
        <pt x="798" y="1335" on="0"/>
        <pt x="1054" y="1276" on="0"/>
        <pt x="1237" y="1147" on="0"/>
        <pt x="1338" y="945" on="0"/>
        <pt x="1338" y="803" on="1"/>
        <pt x="1338" y="675" on="0"/>
        <pt x="1270" y="490" on="0"/>
        <pt x="1154" y="364" on="0"/>
        <pt x="997" y="288" on="0"/>
        <pt x="819" y="248" on="0"/>
        <pt x="628" y="235" on="0"/>
        <pt x="536" y="235" on="1"/>
        <pt x="449" y="235" on="1"/>
        <pt x="451" y="210" on="0"/>
        <pt x="453" y="172" on="0"/>
        <pt x="455" y="157" on="1"/>
        <pt x="458" y="143" on="0"/>
        <pt x="459" y="109" on="0"/>
        <pt x="459" y="89" on="1"/>
        <pt x="459" y="66" on="0"/>
        <pt x="449" y="28" on="0"/>
        <pt x="422" y="0" on="0"/>
        <pt x="376" y="-16" on="0"/>
        <pt x="341" y="-16" on="1"/>
        <pt x="302" y="-16" on="0"/>
        <pt x="249" y="-3" on="0"/>
        <pt x="217" y="23" on="0"/>
        <pt x="204" y="63" on="0"/>
      </contour>
      <contour>
        <pt x="441" y="444" on="1"/>
        <pt x="485" y="442" on="0"/>
        <pt x="564" y="440" on="0"/>
        <pt x="575" y="440" on="1"/>
        <pt x="742" y="440" on="0"/>
        <pt x="950" y="485" on="0"/>
        <pt x="1067" y="577" on="0"/>
        <pt x="1108" y="717" on="0"/>
        <pt x="1108" y="812" on="1"/>
        <pt x="1108" y="889" on="0"/>
        <pt x="1061" y="998" on="0"/>
        <pt x="984" y="1069" on="0"/>
        <pt x="886" y="1110" on="0"/>
        <pt x="783" y="1130" on="0"/>
        <pt x="684" y="1135" on="0"/>
        <pt x="646" y="1135" on="1"/>
        <pt x="595" y="1135" on="0"/>
        <pt x="492" y="1133" on="0"/>
        <pt x="436" y="1132" on="1"/>
        <pt x="436" y="947" on="1"/>
        <pt x="436" y="777" on="0"/>
        <pt x="439" y="531" on="0"/>
      </contour>
    </TTGlyph>
    <TTGlyph name="U" xMin="188" yMin="-30" xMax="1338" yMax="1574">
      <contour>
        <pt x="189" y="735" on="1"/>
        <pt x="188" y="894" on="0"/>
        <pt x="191" y="1215" on="0"/>
        <pt x="191" y="1391" on="1"/>
        <pt x="191" y="1433" on="0"/>
        <pt x="200" y="1501" on="0"/>
        <pt x="224" y="1549" on="0"/>
        <pt x="265" y="1574" on="0"/>
        <pt x="297" y="1574" on="1"/>
        <pt x="370" y="1574" on="0"/>
        <pt x="430" y="1489" on="0"/>
        <pt x="430" y="1416" on="1"/>
        <pt x="430" y="1395" on="0"/>
        <pt x="428" y="1347" on="0"/>
        <pt x="426" y="1281" on="0"/>
        <pt x="423" y="1187" on="0"/>
        <pt x="421" y="1055" on="0"/>
        <pt x="419" y="875" on="0"/>
        <pt x="419" y="755" on="1"/>
        <pt x="419" y="683" on="0"/>
        <pt x="428" y="542" on="0"/>
        <pt x="455" y="415" on="0"/>
        <pt x="505" y="307" on="0"/>
        <pt x="584" y="228" on="0"/>
        <pt x="699" y="184" on="0"/>
        <pt x="778" y="184" on="1"/>
        <pt x="869" y="184" on="0"/>
        <pt x="995" y="258" on="0"/>
        <pt x="1074" y="400" on="0"/>
        <pt x="1109" y="609" on="0"/>
        <pt x="1109" y="744" on="1"/>
        <pt x="1109" y="987" on="0"/>
        <pt x="1101" y="1323" on="0"/>
        <pt x="1099" y="1398" on="1"/>
        <pt x="1098" y="1413" on="0"/>
        <pt x="1098" y="1445" on="0"/>
        <pt x="1098" y="1448" on="1"/>
        <pt x="1098" y="1519" on="0"/>
        <pt x="1161" y="1574" on="0"/>
        <pt x="1214" y="1574" on="1"/>
        <pt x="1248" y="1574" on="0"/>
        <pt x="1295" y="1554" on="0"/>
        <pt x="1323" y="1522" on="0"/>
        <pt x="1335" y="1482" on="0"/>
        <pt x="1335" y="1463" on="1"/>
        <pt x="1335" y="1430" on="0"/>
        <pt x="1330" y="1361" on="0"/>
        <pt x="1330" y="1324" on="1"/>
        <pt x="1330" y="1244" on="0"/>
        <pt x="1332" y="1108" on="0"/>
        <pt x="1334" y="1046" on="1"/>
        <pt x="1334" y="974" on="0"/>
        <pt x="1338" y="827" on="0"/>
        <pt x="1338" y="742" on="1"/>
        <pt x="1338" y="559" on="0"/>
        <pt x="1269" y="272" on="0"/>
        <pt x="1127" y="74" on="0"/>
        <pt x="912" y="-30" on="0"/>
        <pt x="767" y="-30" on="1"/>
        <pt x="694" y="-30" on="0"/>
        <pt x="552" y="-3" on="0"/>
        <pt x="424" y="63" on="0"/>
        <pt x="315" y="175" on="0"/>
        <pt x="235" y="345" on="0"/>
        <pt x="189" y="579" on="0"/>
      </contour>
    </TTGlyph>
    <TTGlyph name="Uacute" xMin="188" yMin="-30" xMax="1338" yMax="2010">
      <component glyphName=".ttfautohint" x="188" y="0" flags="0x0"/>
      <component glyphName="U" x="0" y="0" flags="0x204"/>
      <component glyphName="acute.cap" x="438" y="0" flags="0x4"/>
    </TTGlyph>
    <TTGlyph name="Ubreve" xMin="188" yMin="-30" xMax="1338" yMax="2003">
      <component glyphName=".ttfautohint" x="188" y="0" flags="0x0"/>
      <component glyphName="U" x="0" y="0" flags="0x204"/>
      <component glyphName="breve.cap" x="269" y="0" flags="0x4"/>
    </TTGlyph>
    <TTGlyph name="Ucircumflex" xMin="188" yMin="-30" xMax="1338" yMax="2010">
      <component glyphName=".ttfautohint" x="188" y="0" flags="0x0"/>
      <component glyphName="U" x="0" y="0" flags="0x204"/>
      <component glyphName="circumflex.cap" x="269" y="0" flags="0x4"/>
    </TTGlyph>
    <TTGlyph name="Udieresis" xMin="188" yMin="-30" xMax="1338" yMax="1968">
      <component glyphName=".ttfautohint" x="188" y="0" flags="0x0"/>
      <component glyphName="U" x="0" y="0" flags="0x204"/>
      <component glyphName="dieresis.cap" x="269" y="0" flags="0x4"/>
    </TTGlyph>
    <TTGlyph name="Ugrave" xMin="188" yMin="-30" xMax="1338" yMax="2010">
      <component glyphName=".ttfautohint" x="188" y="0" flags="0x0"/>
      <component glyphName="U" x="0" y="0" flags="0x204"/>
      <component glyphName="grave.cap" x="438" y="0" flags="0x4"/>
    </TTGlyph>
    <TTGlyph name="Uhungarumlaut" xMin="188" yMin="-30" xMax="1340" yMax="2010">
      <component glyphName=".ttfautohint" x="188" y="0" flags="0x0"/>
      <component glyphName="U" x="0" y="0" flags="0x204"/>
      <component glyphName="hungarumlaut.cap" x="507" y="0" flags="0x4"/>
    </TTGlyph>
    <TTGlyph name="Umacron" xMin="188" yMin="-30" xMax="1338" yMax="1841">
      <component glyphName=".ttfautohint" x="188" y="0" flags="0x0"/>
      <component glyphName="U" x="0" y="0" flags="0x204"/>
      <component glyphName="macron.cap" x="269" y="0" flags="0x4"/>
    </TTGlyph>
    <TTGlyph name="Uogonek" xMin="183" yMin="-487" xMax="1333" yMax="1591">
      <contour>
        <pt x="622" y="-243" on="1"/>
        <pt x="622" y="-186" on="0"/>
        <pt x="658" y="-68" on="0"/>
        <pt x="705" y="-11" on="1"/>
        <pt x="637" y="-7" on="0"/>
        <pt x="508" y="29" on="0"/>
        <pt x="393" y="101" on="0"/>
        <pt x="295" y="216" on="0"/>
        <pt x="225" y="382" on="0"/>
        <pt x="184" y="606" on="0"/>
        <pt x="184" y="752" on="1"/>
        <pt x="183" y="911" on="0"/>
        <pt x="186" y="1232" on="0"/>
        <pt x="186" y="1408" on="1"/>
        <pt x="186" y="1450" on="0"/>
        <pt x="195" y="1518" on="0"/>
        <pt x="219" y="1566" on="0"/>
        <pt x="260" y="1591" on="0"/>
        <pt x="292" y="1591" on="1"/>
        <pt x="365" y="1591" on="0"/>
        <pt x="425" y="1506" on="0"/>
        <pt x="425" y="1433" on="1"/>
        <pt x="425" y="1412" on="0"/>
        <pt x="423" y="1364" on="0"/>
        <pt x="421" y="1298" on="0"/>
        <pt x="418" y="1204" on="0"/>
        <pt x="416" y="1072" on="0"/>
        <pt x="414" y="892" on="0"/>
        <pt x="414" y="772" on="1"/>
        <pt x="414" y="700" on="0"/>
        <pt x="423" y="559" on="0"/>
        <pt x="450" y="432" on="0"/>
        <pt x="500" y="324" on="0"/>
        <pt x="579" y="245" on="0"/>
        <pt x="694" y="201" on="0"/>
        <pt x="773" y="201" on="1"/>
        <pt x="864" y="201" on="0"/>
        <pt x="990" y="275" on="0"/>
        <pt x="1069" y="417" on="0"/>
        <pt x="1104" y="626" on="0"/>
        <pt x="1104" y="761" on="1"/>
        <pt x="1104" y="1004" on="0"/>
        <pt x="1096" y="1340" on="0"/>
        <pt x="1094" y="1415" on="1"/>
        <pt x="1093" y="1430" on="0"/>
        <pt x="1093" y="1462" on="0"/>
        <pt x="1093" y="1465" on="1"/>
        <pt x="1093" y="1536" on="0"/>
        <pt x="1156" y="1591" on="0"/>
        <pt x="1209" y="1591" on="1"/>
        <pt x="1243" y="1591" on="0"/>
        <pt x="1290" y="1571" on="0"/>
        <pt x="1318" y="1539" on="0"/>
        <pt x="1330" y="1499" on="0"/>
        <pt x="1330" y="1480" on="1"/>
        <pt x="1330" y="1447" on="0"/>
        <pt x="1325" y="1378" on="0"/>
        <pt x="1325" y="1341" on="1"/>
        <pt x="1325" y="1261" on="0"/>
        <pt x="1327" y="1125" on="0"/>
        <pt x="1329" y="1063" on="1"/>
        <pt x="1329" y="991" on="0"/>
        <pt x="1333" y="844" on="0"/>
        <pt x="1333" y="759" on="1"/>
        <pt x="1333" y="475" on="0"/>
        <pt x="1164" y="100" on="0"/>
        <pt x="991" y="28" on="1"/>
        <pt x="939" y="-4" on="0"/>
        <pt x="878" y="-64" on="0"/>
        <pt x="847" y="-121" on="0"/>
        <pt x="839" y="-172" on="0"/>
        <pt x="839" y="-194" on="1"/>
        <pt x="839" y="-211" on="0"/>
        <pt x="850" y="-242" on="0"/>
        <pt x="872" y="-267" on="0"/>
        <pt x="906" y="-282" on="0"/>
        <pt x="929" y="-282" on="1"/>
        <pt x="947" y="-282" on="0"/>
        <pt x="972" y="-277" on="0"/>
        <pt x="993" y="-266" on="0"/>
        <pt x="1012" y="-251" on="0"/>
        <pt x="1024" y="-241" on="1"/>
        <pt x="1039" y="-227" on="0"/>
        <pt x="1077" y="-214" on="0"/>
        <pt x="1096" y="-214" on="1"/>
        <pt x="1114" y="-214" on="0"/>
        <pt x="1153" y="-233" on="0"/>
        <pt x="1186" y="-265" on="0"/>
        <pt x="1207" y="-304" on="0"/>
        <pt x="1207" y="-324" on="1"/>
        <pt x="1207" y="-355" on="0"/>
        <pt x="1172" y="-414" on="0"/>
        <pt x="1102" y="-459" on="0"/>
        <pt x="996" y="-487" on="0"/>
        <pt x="924" y="-487" on="1"/>
        <pt x="849" y="-487" on="0"/>
        <pt x="736" y="-447" on="0"/>
        <pt x="660" y="-380" on="0"/>
        <pt x="622" y="-291" on="0"/>
      </contour>
    </TTGlyph>
    <TTGlyph name="Uring" xMin="188" yMin="-30" xMax="1338" yMax="2012">
      <component glyphName=".ttfautohint" x="188" y="0" flags="0x0"/>
      <component glyphName="U" x="0" y="0" flags="0x204"/>
      <component glyphName="ring.cap" x="438" y="0" flags="0x4"/>
    </TTGlyph>
    <TTGlyph name="Utilde" xMin="188" yMin="-30" xMax="1338" yMax="2010">
      <component glyphName=".ttfautohint" x="188" y="0" flags="0x0"/>
      <component glyphName="U" x="0" y="0" flags="0x204"/>
      <component glyphName="tilde.cap" x="269" y="0" flags="0x4"/>
    </TTGlyph>
    <TTGlyph name="V" xMin="27" yMin="-30" xMax="1315" yMax="1574">
      <contour>
        <pt x="557" y="72" on="1"/>
        <pt x="520" y="175" on="0"/>
        <pt x="434" y="405" on="0"/>
        <pt x="344" y="637" on="0"/>
        <pt x="257" y="858" on="0"/>
        <pt x="220" y="951" on="1"/>
        <pt x="185" y="1038" on="0"/>
        <pt x="122" y="1197" on="0"/>
        <pt x="73" y="1327" on="0"/>
        <pt x="39" y="1421" on="0"/>
        <pt x="34" y="1444" on="1"/>
        <pt x="27" y="1471" on="0"/>
        <pt x="40" y="1517" on="0"/>
        <pt x="71" y="1552" on="0"/>
        <pt x="116" y="1571" on="0"/>
        <pt x="143" y="1571" on="1"/>
        <pt x="215" y="1571" on="0"/>
        <pt x="243" y="1507" on="1"/>
        <pt x="257" y="1472" on="0"/>
        <pt x="312" y="1334" on="0"/>
        <pt x="383" y="1150" on="0"/>
        <pt x="467" y="933" on="0"/>
        <pt x="554" y="707" on="0"/>
        <pt x="638" y="482" on="0"/>
        <pt x="675" y="383" on="1"/>
        <pt x="714" y="485" on="0"/>
        <pt x="793" y="694" on="0"/>
        <pt x="869" y="896" on="0"/>
        <pt x="939" y="1084" on="0"/>
        <pt x="998" y="1247" on="0"/>
        <pt x="1046" y="1379" on="0"/>
        <pt x="1061" y="1424" on="1"/>
        <pt x="1062" y="1446" on="0"/>
        <pt x="1080" y="1498" on="0"/>
        <pt x="1113" y="1543" on="0"/>
        <pt x="1161" y="1574" on="0"/>
        <pt x="1193" y="1574" on="1"/>
        <pt x="1216" y="1574" on="0"/>
        <pt x="1260" y="1556" on="0"/>
        <pt x="1294" y="1525" on="0"/>
        <pt x="1315" y="1481" on="0"/>
        <pt x="1315" y="1456" on="1"/>
        <pt x="1315" y="1435" on="0"/>
        <pt x="1303" y="1393" on="0"/>
        <pt x="1286" y="1354" on="0"/>
        <pt x="1267" y="1321" on="0"/>
        <pt x="1260" y="1310" on="1"/>
        <pt x="1259" y="1308" on="1"/>
        <pt x="1212" y="1200" on="0"/>
        <pt x="1134" y="1010" on="0"/>
        <pt x="1064" y="832" on="0"/>
        <pt x="1001" y="663" on="0"/>
        <pt x="969" y="576" on="1"/>
        <pt x="932" y="475" on="0"/>
        <pt x="841" y="236" on="0"/>
        <pt x="789" y="103" on="1"/>
        <pt x="791" y="95" on="0"/>
        <pt x="793" y="77" on="0"/>
        <pt x="793" y="69" on="1"/>
        <pt x="793" y="38" on="0"/>
        <pt x="772" y="0" on="0"/>
        <pt x="737" y="-22" on="0"/>
        <pt x="691" y="-30" on="0"/>
        <pt x="667" y="-30" on="1"/>
        <pt x="638" y="-30" on="0"/>
        <pt x="601" y="-12" on="0"/>
        <pt x="577" y="18" on="0"/>
        <pt x="563" y="54" on="0"/>
      </contour>
    </TTGlyph>
    <TTGlyph name="W" xMin="52" yMin="-30" xMax="1942" yMax="1571">
      <contour>
        <pt x="540" y="100" on="1"/>
        <pt x="502" y="204" on="0"/>
        <pt x="420" y="432" on="0"/>
        <pt x="335" y="661" on="0"/>
        <pt x="252" y="885" on="0"/>
        <pt x="177" y="1088" on="0"/>
        <pt x="111" y="1262" on="0"/>
        <pt x="86" y="1327" on="1"/>
        <pt x="73" y="1360" on="0"/>
        <pt x="52" y="1430" on="0"/>
        <pt x="52" y="1461" on="1"/>
        <pt x="52" y="1570" on="0"/>
        <pt x="174" y="1570" on="1"/>
        <pt x="188" y="1570" on="0"/>
        <pt x="215" y="1565" on="0"/>
        <pt x="242" y="1545" on="0"/>
        <pt x="267" y="1508" on="0"/>
        <pt x="279" y="1475" on="1"/>
        <pt x="357" y="1257" on="0"/>
        <pt x="475" y="923" on="0"/>
        <pt x="566" y="663" on="0"/>
        <pt x="633" y="463" on="0"/>
        <pt x="660" y="380" on="1"/>
        <pt x="688" y="462" on="0"/>
        <pt x="738" y="608" on="0"/>
        <pt x="786" y="749" on="0"/>
        <pt x="836" y="890" on="0"/>
        <pt x="865" y="967" on="1"/>
        <pt x="857" y="982" on="0"/>
        <pt x="836" y="1038" on="0"/>
        <pt x="812" y="1106" on="0"/>
        <pt x="786" y="1180" on="0"/>
        <pt x="761" y="1249" on="0"/>
        <pt x="740" y="1304" on="0"/>
        <pt x="732" y="1320" on="1"/>
        <pt x="714" y="1352" on="0"/>
        <pt x="688" y="1418" on="0"/>
        <pt x="688" y="1444" on="1"/>
        <pt x="688" y="1509" on="0"/>
        <pt x="742" y="1564" on="0"/>
        <pt x="808" y="1564" on="1"/>
        <pt x="830" y="1564" on="0"/>
        <pt x="865" y="1544" on="0"/>
        <pt x="899" y="1487" on="0"/>
        <pt x="940" y="1387" on="0"/>
        <pt x="970" y="1307" on="1"/>
        <pt x="977" y="1290" on="0"/>
        <pt x="990" y="1236" on="0"/>
        <pt x="997" y="1218" on="1"/>
        <pt x="1007" y="1239" on="0"/>
        <pt x="1028" y="1297" on="0"/>
        <pt x="1049" y="1360" on="0"/>
        <pt x="1068" y="1424" on="0"/>
        <pt x="1076" y="1452" on="1"/>
        <pt x="1080" y="1471" on="0"/>
        <pt x="1095" y="1513" on="0"/>
        <pt x="1122" y="1548" on="0"/>
        <pt x="1165" y="1571" on="0"/>
        <pt x="1199" y="1571" on="1"/>
        <pt x="1250" y="1571" on="0"/>
        <pt x="1310" y="1506" on="0"/>
        <pt x="1310" y="1452" on="1"/>
        <pt x="1310" y="1424" on="0"/>
        <pt x="1286" y="1363" on="0"/>
        <pt x="1270" y="1332" on="1"/>
        <pt x="1227" y="1244" on="0"/>
        <pt x="1155" y="1080" on="0"/>
        <pt x="1120" y="990" on="1"/>
        <pt x="1143" y="930" on="0"/>
        <pt x="1188" y="808" on="0"/>
        <pt x="1239" y="664" on="0"/>
        <pt x="1301" y="488" on="0"/>
        <pt x="1341" y="374" on="1"/>
        <pt x="1387" y="505" on="0"/>
        <pt x="1471" y="766" on="0"/>
        <pt x="1556" y="1027" on="0"/>
        <pt x="1644" y="1286" on="0"/>
        <pt x="1694" y="1415" on="1"/>
        <pt x="1694" y="1414" on="1"/>
        <pt x="1700" y="1444" on="0"/>
        <pt x="1719" y="1500" on="0"/>
        <pt x="1749" y="1542" on="0"/>
        <pt x="1794" y="1567" on="0"/>
        <pt x="1826" y="1567" on="1"/>
        <pt x="1883" y="1567" on="0"/>
        <pt x="1942" y="1509" on="0"/>
        <pt x="1942" y="1458" on="1"/>
        <pt x="1942" y="1440" on="0"/>
        <pt x="1938" y="1410" on="0"/>
        <pt x="1931" y="1381" on="0"/>
        <pt x="1919" y="1350" on="0"/>
        <pt x="1911" y="1331" on="1"/>
        <pt x="1849" y="1176" on="0"/>
        <pt x="1742" y="887" on="0"/>
        <pt x="1637" y="592" on="0"/>
        <pt x="1529" y="276" on="0"/>
        <pt x="1466" y="94" on="1"/>
        <pt x="1468" y="89" on="0"/>
        <pt x="1466" y="83" on="0"/>
        <pt x="1466" y="78" on="1"/>
        <pt x="1466" y="56" on="0"/>
        <pt x="1449" y="17" on="0"/>
        <pt x="1416" y="-13" on="0"/>
        <pt x="1365" y="-30" on="0"/>
        <pt x="1331" y="-30" on="1"/>
        <pt x="1304" y="-30" on="0"/>
        <pt x="1270" y="-13" on="0"/>
        <pt x="1249" y="14" on="0"/>
        <pt x="1236" y="48" on="0"/>
        <pt x="1232" y="65" on="1"/>
        <pt x="1232" y="64" on="1"/>
        <pt x="1210" y="134" on="0"/>
        <pt x="1166" y="249" on="0"/>
        <pt x="1143" y="311" on="1"/>
        <pt x="1107" y="411" on="0"/>
        <pt x="1034" y="628" on="0"/>
        <pt x="996" y="730" on="1"/>
        <pt x="975" y="671" on="0"/>
        <pt x="925" y="515" on="0"/>
        <pt x="869" y="344" on="0"/>
        <pt x="809" y="170" on="0"/>
        <pt x="780" y="92" on="1"/>
        <pt x="782" y="83" on="0"/>
        <pt x="782" y="65" on="0"/>
        <pt x="782" y="62" on="1"/>
        <pt x="782" y="39" on="0"/>
        <pt x="761" y="5" on="0"/>
        <pt x="726" y="-18" on="0"/>
        <pt x="680" y="-30" on="0"/>
        <pt x="656" y="-30" on="1"/>
        <pt x="622" y="-30" on="0"/>
        <pt x="580" y="-3" on="0"/>
        <pt x="555" y="37" on="0"/>
        <pt x="543" y="82" on="0"/>
      </contour>
    </TTGlyph>
    <TTGlyph name="Wacute" xMin="52" yMin="-30" xMax="1942" yMax="2010">
      <component glyphName=".ttfautohint" x="52" y="0" flags="0x0"/>
      <component glyphName="W" x="0" y="0" flags="0x204"/>
      <component glyphName="acute.cap" x="682" y="0" flags="0x4"/>
    </TTGlyph>
    <TTGlyph name="Wcircumflex" xMin="52" yMin="-30" xMax="1942" yMax="2010">
      <component glyphName=".ttfautohint" x="52" y="0" flags="0x0"/>
      <component glyphName="W" x="0" y="0" flags="0x204"/>
      <component glyphName="circumflex.cap" x="514" y="0" flags="0x4"/>
    </TTGlyph>
    <TTGlyph name="Wdieresis" xMin="52" yMin="-30" xMax="1942" yMax="1968">
      <component glyphName=".ttfautohint" x="52" y="0" flags="0x0"/>
      <component glyphName="W" x="0" y="0" flags="0x204"/>
      <component glyphName="dieresis.cap" x="514" y="0" flags="0x4"/>
    </TTGlyph>
    <TTGlyph name="Wgrave" xMin="52" yMin="-30" xMax="1942" yMax="2010">
      <component glyphName=".ttfautohint" x="52" y="0" flags="0x0"/>
      <component glyphName="W" x="0" y="0" flags="0x204"/>
      <component glyphName="grave.cap" x="682" y="0" flags="0x4"/>
    </TTGlyph>
    <TTGlyph name="X" xMin="49" yMin="-30" xMax="1192" yMax="1572">
      <contour>
        <pt x="49" y="108" on="1"/>
        <pt x="49" y="133" on="0"/>
        <pt x="77" y="177" on="0"/>
        <pt x="100" y="205" on="1"/>
        <pt x="240" y="413" on="0"/>
        <pt x="433" y="713" on="0"/>
        <pt x="498" y="822" on="1"/>
        <pt x="438" y="915" on="0"/>
        <pt x="291" y="1134" on="0"/>
        <pt x="195" y="1272" on="1"/>
        <pt x="173" y="1303" on="0"/>
        <pt x="134" y="1361" on="0"/>
        <pt x="104" y="1410" on="0"/>
        <pt x="86" y="1449" on="0"/>
        <pt x="86" y="1463" on="1"/>
        <pt x="86" y="1486" on="0"/>
        <pt x="104" y="1526" on="0"/>
        <pt x="135" y="1555" on="0"/>
        <pt x="175" y="1572" on="0"/>
        <pt x="198" y="1572" on="1"/>
        <pt x="224" y="1572" on="0"/>
        <pt x="265" y="1549" on="0"/>
        <pt x="281" y="1529" on="1"/>
        <pt x="294" y="1511" on="0"/>
        <pt x="338" y="1445" on="0"/>
        <pt x="392" y="1360" on="0"/>
        <pt x="452" y="1264" on="0"/>
        <pt x="482" y="1216" on="1"/>
        <pt x="524" y="1147" on="0"/>
        <pt x="590" y="1040" on="0"/>
        <pt x="620" y="992" on="1"/>
        <pt x="650" y="1041" on="0"/>
        <pt x="714" y="1146" on="0"/>
        <pt x="783" y="1261" on="0"/>
        <pt x="857" y="1389" on="0"/>
        <pt x="899" y="1462" on="1"/>
        <pt x="910" y="1486" on="0"/>
        <pt x="931" y="1524" on="0"/>
        <pt x="957" y="1551" on="0"/>
        <pt x="992" y="1566" on="0"/>
        <pt x="1017" y="1566" on="1"/>
        <pt x="1042" y="1566" on="0"/>
        <pt x="1086" y="1550" on="0"/>
        <pt x="1119" y="1520" on="0"/>
        <pt x="1138" y="1478" on="0"/>
        <pt x="1138" y="1452" on="1"/>
        <pt x="1138" y="1427" on="0"/>
        <pt x="1100" y="1357" on="0"/>
        <pt x="1070" y="1323" on="1"/>
        <pt x="1013" y="1236" on="0"/>
        <pt x="919" y="1094" on="0"/>
        <pt x="839" y="971" on="0"/>
        <pt x="769" y="863" on="0"/>
        <pt x="735" y="811" on="1"/>
        <pt x="763" y="766" on="0"/>
        <pt x="830" y="658" on="0"/>
        <pt x="902" y="545" on="0"/>
        <pt x="974" y="433" on="0"/>
        <pt x="1039" y="333" on="0"/>
        <pt x="1093" y="252" on="0"/>
        <pt x="1111" y="227" on="1"/>
        <pt x="1124" y="209" on="0"/>
        <pt x="1140" y="192" on="1"/>
        <pt x="1160" y="171" on="0"/>
        <pt x="1192" y="128" on="0"/>
        <pt x="1192" y="97" on="1"/>
        <pt x="1192" y="71" on="0"/>
        <pt x="1180" y="25" on="0"/>
        <pt x="1148" y="-10" on="0"/>
        <pt x="1093" y="-30" on="0"/>
        <pt x="1051" y="-30" on="1"/>
        <pt x="1042" y="-30" on="0"/>
        <pt x="1016" y="-16" on="0"/>
        <pt x="988" y="11" on="0"/>
        <pt x="959" y="53" on="0"/>
        <pt x="947" y="80" on="1"/>
        <pt x="947" y="81" on="1"/>
        <pt x="945" y="88" on="0"/>
        <pt x="896" y="173" on="0"/>
        <pt x="810" y="317" on="0"/>
        <pt x="689" y="514" on="0"/>
        <pt x="614" y="635" on="1"/>
        <pt x="591" y="596" on="0"/>
        <pt x="536" y="501" on="0"/>
        <pt x="477" y="399" on="0"/>
        <pt x="416" y="294" on="0"/>
        <pt x="360" y="197" on="0"/>
        <pt x="310" y="111" on="0"/>
        <pt x="291" y="80" on="1"/>
        <pt x="265" y="33" on="0"/>
        <pt x="221" y="-30" on="0"/>
        <pt x="196" y="-30" on="1"/>
        <pt x="171" y="-30" on="0"/>
        <pt x="119" y="-14" on="0"/>
        <pt x="76" y="20" on="0"/>
        <pt x="49" y="72" on="0"/>
      </contour>
    </TTGlyph>
    <TTGlyph name="Y" xMin="20" yMin="-30" xMax="1206" yMax="1573">
      <contour>
        <pt x="500" y="69" on="1"/>
        <pt x="500" y="105" on="0"/>
        <pt x="502" y="162" on="0"/>
        <pt x="505" y="223" on="0"/>
        <pt x="508" y="297" on="0"/>
        <pt x="509" y="405" on="0"/>
        <pt x="508" y="557" on="0"/>
        <pt x="506" y="665" on="1"/>
        <pt x="433" y="788" on="0"/>
        <pt x="313" y="983" on="0"/>
        <pt x="211" y="1143" on="0"/>
        <pt x="122" y="1276" on="0"/>
        <pt x="80" y="1336" on="1"/>
        <pt x="54" y="1374" on="0"/>
        <pt x="20" y="1434" on="0"/>
        <pt x="20" y="1458" on="1"/>
        <pt x="20" y="1515" on="0"/>
        <pt x="89" y="1573" on="0"/>
        <pt x="145" y="1573" on="1"/>
        <pt x="167" y="1573" on="0"/>
        <pt x="204" y="1547" on="0"/>
        <pt x="235" y="1506" on="0"/>
        <pt x="261" y="1455" on="0"/>
        <pt x="271" y="1430" on="1"/>
        <pt x="304" y="1364" on="0"/>
        <pt x="380" y="1240" on="0"/>
        <pt x="461" y="1119" on="0"/>
        <pt x="545" y="996" on="0"/>
        <pt x="585" y="932" on="1"/>
        <pt x="617" y="879" on="1"/>
        <pt x="648" y="932" on="1"/>
        <pt x="760" y="1105" on="0"/>
        <pt x="923" y="1367" on="0"/>
        <pt x="963" y="1444" on="1"/>
        <pt x="962" y="1444" on="1"/>
        <pt x="972" y="1470" on="0"/>
        <pt x="994" y="1517" on="0"/>
        <pt x="1022" y="1552" on="0"/>
        <pt x="1058" y="1573" on="0"/>
        <pt x="1083" y="1573" on="1"/>
        <pt x="1105" y="1573" on="0"/>
        <pt x="1149" y="1564" on="0"/>
        <pt x="1184" y="1538" on="0"/>
        <pt x="1206" y="1493" on="0"/>
        <pt x="1206" y="1457" on="1"/>
        <pt x="1206" y="1439" on="0"/>
        <pt x="1186" y="1376" on="0"/>
        <pt x="1150" y="1342" on="1"/>
        <pt x="1089" y="1247" on="0"/>
        <pt x="967" y="1058" on="0"/>
        <pt x="856" y="883" on="0"/>
        <pt x="760" y="726" on="0"/>
        <pt x="726" y="663" on="1"/>
        <pt x="720" y="605" on="0"/>
        <pt x="721" y="463" on="0"/>
        <pt x="728" y="308" on="0"/>
        <pt x="736" y="148" on="0"/>
        <pt x="736" y="73" on="1"/>
        <pt x="736" y="53" on="0"/>
        <pt x="725" y="15" on="0"/>
        <pt x="699" y="-13" on="0"/>
        <pt x="653" y="-30" on="0"/>
        <pt x="619" y="-30" on="1"/>
        <pt x="592" y="-30" on="0"/>
        <pt x="549" y="-14" on="0"/>
        <pt x="517" y="13" on="0"/>
        <pt x="500" y="49" on="0"/>
      </contour>
    </TTGlyph>
    <TTGlyph name="Yacute" xMin="20" yMin="-30" xMax="1206" yMax="2010">
      <component glyphName=".ttfautohint" x="20" y="0" flags="0x0"/>
      <component glyphName="Y" x="0" y="0" flags="0x204"/>
      <component glyphName="acute.cap" x="315" y="0" flags="0x4"/>
    </TTGlyph>
    <TTGlyph name="Ycircumflex" xMin="20" yMin="-30" xMax="1206" yMax="2010">
      <component glyphName=".ttfautohint" x="20" y="0" flags="0x0"/>
      <component glyphName="Y" x="0" y="0" flags="0x204"/>
      <component glyphName="circumflex.cap" x="147" y="0" flags="0x4"/>
    </TTGlyph>
    <TTGlyph name="Ydieresis" xMin="20" yMin="-30" xMax="1206" yMax="1968">
      <component glyphName=".ttfautohint" x="20" y="0" flags="0x0"/>
      <component glyphName="Y" x="0" y="0" flags="0x204"/>
      <component glyphName="dieresis.cap" x="147" y="0" flags="0x4"/>
    </TTGlyph>
    <TTGlyph name="Ygrave" xMin="20" yMin="-30" xMax="1206" yMax="2010">
      <component glyphName=".ttfautohint" x="20" y="0" flags="0x0"/>
      <component glyphName="Y" x="0" y="0" flags="0x204"/>
      <component glyphName="grave.cap" x="315" y="0" flags="0x4"/>
    </TTGlyph>
    <TTGlyph name="Z" xMin="132" yMin="0" xMax="1237" yMax="1565">
      <contour>
        <pt x="132" y="122" on="1"/>
        <pt x="132" y="136" on="0"/>
        <pt x="146" y="171" on="0"/>
        <pt x="168" y="208" on="0"/>
        <pt x="195" y="243" on="0"/>
        <pt x="209" y="257" on="1"/>
        <pt x="308" y="412" on="0"/>
        <pt x="456" y="645" on="0"/>
        <pt x="570" y="830" on="0"/>
        <pt x="660" y="978" on="0"/>
        <pt x="744" y="1116" on="0"/>
        <pt x="830" y="1257" on="0"/>
        <pt x="883" y="1342" on="1"/>
        <pt x="287" y="1330" on="1"/>
        <pt x="212" y="1330" on="0"/>
        <pt x="143" y="1386" on="0"/>
        <pt x="143" y="1443" on="1"/>
        <pt x="143" y="1500" on="0"/>
        <pt x="211" y="1545" on="0"/>
        <pt x="277" y="1545" on="1"/>
        <pt x="406" y="1545" on="0"/>
        <pt x="601" y="1545" on="0"/>
        <pt x="747" y="1545" on="0"/>
        <pt x="852" y="1545" on="0"/>
        <pt x="931" y="1546" on="0"/>
        <pt x="992" y="1546" on="0"/>
        <pt x="1021" y="1547" on="1"/>
        <pt x="1043" y="1565" on="0"/>
        <pt x="1105" y="1565" on="1"/>
        <pt x="1136" y="1565" on="0"/>
        <pt x="1178" y="1544" on="0"/>
        <pt x="1203" y="1511" on="0"/>
        <pt x="1213" y="1469" on="0"/>
        <pt x="1213" y="1449" on="1"/>
        <pt x="1213" y="1435" on="0"/>
        <pt x="1194" y="1396" on="0"/>
        <pt x="1168" y="1356" on="0"/>
        <pt x="1141" y="1319" on="0"/>
        <pt x="1134" y="1309" on="1"/>
        <pt x="956" y="1032" on="0"/>
        <pt x="618" y="482" on="0"/>
        <pt x="441" y="205" on="1"/>
        <pt x="998" y="211" on="1"/>
        <pt x="1021" y="217" on="0"/>
        <pt x="1090" y="223" on="0"/>
        <pt x="1113" y="223" on="1"/>
        <pt x="1171" y="223" on="0"/>
        <pt x="1237" y="172" on="0"/>
        <pt x="1237" y="109" on="1"/>
        <pt x="1237" y="82" on="0"/>
        <pt x="1219" y="41" on="0"/>
        <pt x="1174" y="14" on="0"/>
        <pt x="1097" y="0" on="0"/>
        <pt x="1039" y="0" on="1"/>
        <pt x="277" y="0" on="1"/>
        <pt x="235" y="0" on="0"/>
        <pt x="180" y="17" on="0"/>
        <pt x="146" y="49" on="0"/>
        <pt x="132" y="94" on="0"/>
      </contour>
    </TTGlyph>
    <TTGlyph name="Zacute" xMin="132" yMin="0" xMax="1237" yMax="2010">
      <component glyphName=".ttfautohint" x="132" y="0" flags="0x0"/>
      <component glyphName="Z" x="0" y="0" flags="0x204"/>
      <component glyphName="acute.cap" x="369" y="0" flags="0x4"/>
    </TTGlyph>
    <TTGlyph name="Zcaron" xMin="132" yMin="0" xMax="1237" yMax="2010">
      <component glyphName=".ttfautohint" x="132" y="0" flags="0x0"/>
      <component glyphName="Z" x="0" y="0" flags="0x204"/>
      <component glyphName="caron.cap" x="201" y="0" flags="0x4"/>
    </TTGlyph>
    <TTGlyph name="Zdotaccent" xMin="132" yMin="0" xMax="1237" yMax="1988">
      <component glyphName=".ttfautohint" x="132" y="0" flags="0x0"/>
      <component glyphName="Z" x="0" y="0" flags="0x204"/>
      <component glyphName="dotaccent.cap" x="538" y="20" flags="0x4"/>
    </TTGlyph>
    <TTGlyph name="a" xMin="114" yMin="-29" xMax="1553" yMax="1243">
      <contour>
        <pt x="114" y="600" on="1"/>
        <pt x="114" y="736" on="0"/>
        <pt x="206" y="970" on="0"/>
        <pt x="367" y="1142" on="0"/>
        <pt x="584" y="1240" on="0"/>
        <pt x="710" y="1240" on="1"/>
        <pt x="774" y="1240" on="0"/>
        <pt x="891" y="1210" on="0"/>
        <pt x="992" y="1161" on="0"/>
        <pt x="1073" y="1099" on="0"/>
        <pt x="1102" y="1066" on="1"/>
        <pt x="1101" y="1080" on="0"/>
        <pt x="1101" y="1112" on="0"/>
        <pt x="1101" y="1124" on="1"/>
        <pt x="1101" y="1149" on="0"/>
        <pt x="1115" y="1192" on="0"/>
        <pt x="1145" y="1224" on="0"/>
        <pt x="1191" y="1243" on="0"/>
        <pt x="1224" y="1243" on="1"/>
        <pt x="1252" y="1243" on="0"/>
        <pt x="1297" y="1222" on="0"/>
        <pt x="1329" y="1191" on="0"/>
        <pt x="1347" y="1156" on="0"/>
        <pt x="1347" y="1142" on="1"/>
        <pt x="1347" y="1108" on="0"/>
        <pt x="1340" y="1039" on="0"/>
        <pt x="1338" y="1004" on="1"/>
        <pt x="1338" y="894" on="0"/>
        <pt x="1335" y="725" on="0"/>
        <pt x="1333" y="654" on="1"/>
        <pt x="1331" y="606" on="0"/>
        <pt x="1329" y="503" on="0"/>
        <pt x="1329" y="460" on="1"/>
        <pt x="1329" y="363" on="0"/>
        <pt x="1329" y="249" on="0"/>
        <pt x="1334" y="223" on="1"/>
        <pt x="1343" y="225" on="0"/>
        <pt x="1378" y="239" on="0"/>
        <pt x="1393" y="247" on="1"/>
        <pt x="1407" y="252" on="0"/>
        <pt x="1435" y="262" on="0"/>
        <pt x="1456" y="262" on="1"/>
        <pt x="1480" y="262" on="0"/>
        <pt x="1516" y="241" on="0"/>
        <pt x="1541" y="208" on="0"/>
        <pt x="1553" y="167" on="0"/>
        <pt x="1553" y="148" on="1"/>
        <pt x="1553" y="121" on="0"/>
        <pt x="1527" y="66" on="0"/>
        <pt x="1492" y="54" on="1"/>
        <pt x="1462" y="43" on="0"/>
        <pt x="1400" y="19" on="0"/>
        <pt x="1337" y="-1" on="0"/>
        <pt x="1274" y="-15" on="0"/>
        <pt x="1241" y="-15" on="1"/>
        <pt x="1202" y="-15" on="0"/>
        <pt x="1152" y="17" on="0"/>
        <pt x="1124" y="68" on="0"/>
        <pt x="1112" y="130" on="0"/>
        <pt x="1111" y="160" on="1"/>
        <pt x="1080" y="121" on="0"/>
        <pt x="992" y="53" on="0"/>
        <pt x="886" y="1" on="0"/>
        <pt x="765" y="-29" on="0"/>
        <pt x="701" y="-29" on="1"/>
        <pt x="571" y="-29" on="0"/>
        <pt x="355" y="66" on="0"/>
        <pt x="200" y="235" on="0"/>
        <pt x="114" y="465" on="0"/>
      </contour>
      <contour>
        <pt x="344" y="600" on="1"/>
        <pt x="344" y="519" on="0"/>
        <pt x="393" y="369" on="0"/>
        <pt x="486" y="254" on="0"/>
        <pt x="622" y="186" on="0"/>
        <pt x="708" y="186" on="1"/>
        <pt x="793" y="186" on="0"/>
        <pt x="931" y="252" on="0"/>
        <pt x="1034" y="358" on="0"/>
        <pt x="1100" y="489" on="0"/>
        <pt x="1112" y="555" on="1"/>
        <pt x="1112" y="643" on="1"/>
        <pt x="1101" y="704" on="0"/>
        <pt x="1040" y="840" on="0"/>
        <pt x="941" y="955" on="0"/>
        <pt x="803" y="1030" on="0"/>
        <pt x="716" y="1030" on="1"/>
        <pt x="634" y="1030" on="0"/>
        <pt x="498" y="963" on="0"/>
        <pt x="399" y="846" on="0"/>
        <pt x="344" y="690" on="0"/>
      </contour>
    </TTGlyph>
    <TTGlyph name="aacute" xMin="114" yMin="-29" xMax="1553" yMax="1881">
      <component glyphName=".ttfautohint" x="114" y="0" flags="0x0"/>
      <component glyphName="a" x="0" y="0" flags="0x204"/>
      <component glyphName="acute" x="584" y="0" flags="0x4"/>
    </TTGlyph>
    <TTGlyph name="abreve" xMin="114" yMin="-29" xMax="1553" yMax="1799">
      <component glyphName=".ttfautohint" x="114" y="0" flags="0x0"/>
      <component glyphName="a" x="0" y="0" flags="0x204"/>
      <component glyphName="breve" x="247" y="0" flags="0x4"/>
    </TTGlyph>
    <TTGlyph name="acircumflex" xMin="114" yMin="-29" xMax="1553" yMax="1872">
      <component glyphName=".ttfautohint" x="114" y="0" flags="0x0"/>
      <component glyphName="a" x="0" y="0" flags="0x204"/>
      <component glyphName="circumflex" x="247" y="0" flags="0x4"/>
    </TTGlyph>
    <TTGlyph name="acute" xMin="17" yMin="1413" xMax="522" yMax="1881">
      <contour>
        <pt x="121" y="1413" on="1"/>
        <pt x="101" y="1413" on="0"/>
        <pt x="63" y="1431" on="0"/>
        <pt x="34" y="1460" on="0"/>
        <pt x="17" y="1495" on="0"/>
        <pt x="17" y="1513" on="1"/>
        <pt x="17" y="1537" on="0"/>
        <pt x="46" y="1588" on="0"/>
        <pt x="89" y="1636" on="0"/>
        <pt x="138" y="1680" on="0"/>
        <pt x="158" y="1697" on="1"/>
        <pt x="266" y="1803" on="1"/>
        <pt x="266" y="1802" on="1"/>
        <pt x="284" y="1821" on="0"/>
        <pt x="315" y="1850" on="0"/>
        <pt x="346" y="1870" on="0"/>
        <pt x="379" y="1881" on="0"/>
        <pt x="400" y="1881" on="1"/>
        <pt x="425" y="1881" on="0"/>
        <pt x="470" y="1865" on="0"/>
        <pt x="503" y="1834" on="0"/>
        <pt x="522" y="1790" on="0"/>
        <pt x="522" y="1762" on="1"/>
        <pt x="522" y="1744" on="0"/>
        <pt x="504" y="1710" on="0"/>
        <pt x="479" y="1683" on="0"/>
        <pt x="453" y="1664" on="0"/>
        <pt x="445" y="1661" on="1"/>
        <pt x="446" y="1662" on="1"/>
        <pt x="423" y="1642" on="0"/>
        <pt x="369" y="1594" on="0"/>
        <pt x="312" y="1541" on="0"/>
        <pt x="257" y="1489" on="0"/>
        <pt x="233" y="1466" on="1"/>
        <pt x="196" y="1432" on="0"/>
        <pt x="144" y="1413" on="0"/>
      </contour>
    </TTGlyph>
    <TTGlyph name="acute.cap" xMin="221" yMin="1605" xMax="645" yMax="2010">
      <contour>
        <pt x="336" y="1605" on="1"/>
        <pt x="285" y="1605" on="0"/>
        <pt x="221" y="1667" on="0"/>
        <pt x="221" y="1724" on="1"/>
        <pt x="221" y="1742" on="0"/>
        <pt x="239" y="1775" on="0"/>
        <pt x="264" y="1803" on="0"/>
        <pt x="290" y="1823" on="0"/>
        <pt x="298" y="1826" on="1"/>
        <pt x="316" y="1841" on="0"/>
        <pt x="353" y="1875" on="0"/>
        <pt x="389" y="1910" on="0"/>
        <pt x="421" y="1943" on="0"/>
        <pt x="433" y="1955" on="1"/>
        <pt x="465" y="1991" on="0"/>
        <pt x="519" y="2010" on="0"/>
        <pt x="539" y="2010" on="1"/>
        <pt x="560" y="2010" on="0"/>
        <pt x="598" y="1991" on="0"/>
        <pt x="627" y="1962" on="0"/>
        <pt x="645" y="1927" on="0"/>
        <pt x="645" y="1910" on="1"/>
        <pt x="644" y="1880" on="0"/>
        <pt x="627" y="1831" on="0"/>
        <pt x="593" y="1804" on="1"/>
        <pt x="579" y="1793" on="0"/>
        <pt x="563" y="1778" on="0"/>
        <pt x="545" y="1760" on="0"/>
        <pt x="521" y="1736" on="0"/>
        <pt x="500" y="1717" on="1"/>
        <pt x="492" y="1710" on="0"/>
        <pt x="473" y="1689" on="0"/>
        <pt x="465" y="1681" on="1"/>
        <pt x="441" y="1653" on="0"/>
        <pt x="380" y="1605" on="0"/>
      </contour>
    </TTGlyph>
    <TTGlyph name="adieresis" xMin="114" yMin="-29" xMax="1553" yMax="1715">
      <component glyphName=".ttfautohint" x="114" y="0" flags="0x0"/>
      <component glyphName="a" x="0" y="0" flags="0x204"/>
      <component glyphName="dieresis" x="247" y="0" flags="0x4"/>
    </TTGlyph>
    <TTGlyph name="ae" xMin="139" yMin="-19" xMax="2194" yMax="1226">
      <contour>
        <pt x="139" y="325" on="1"/>
        <pt x="139" y="530" on="0"/>
        <pt x="408" y="718" on="0"/>
        <pt x="676" y="718" on="1"/>
        <pt x="690" y="718" on="0"/>
        <pt x="776" y="718" on="0"/>
        <pt x="881" y="718" on="0"/>
        <pt x="986" y="717" on="0"/>
        <pt x="1021" y="717" on="1"/>
        <pt x="1021" y="761" on="1"/>
        <pt x="1021" y="815" on="0"/>
        <pt x="977" y="906" on="0"/>
        <pt x="893" y="971" on="0"/>
        <pt x="772" y="1008" on="0"/>
        <pt x="694" y="1008" on="1"/>
        <pt x="634" y="1008" on="0"/>
        <pt x="538" y="994" on="0"/>
        <pt x="457" y="969" on="0"/>
        <pt x="385" y="935" on="0"/>
        <pt x="348" y="914" on="1"/>
        <pt x="331" y="903" on="0"/>
        <pt x="310" y="903" on="1"/>
        <pt x="289" y="903" on="0"/>
        <pt x="251" y="925" on="0"/>
        <pt x="223" y="959" on="0"/>
        <pt x="207" y="1000" on="0"/>
        <pt x="207" y="1018" on="1"/>
        <pt x="207" y="1028" on="0"/>
        <pt x="214" y="1057" on="0"/>
        <pt x="228" y="1086" on="0"/>
        <pt x="250" y="1113" on="0"/>
        <pt x="264" y="1121" on="1"/>
        <pt x="356" y="1168" on="0"/>
        <pt x="569" y="1225" on="0"/>
        <pt x="699" y="1225" on="1"/>
        <pt x="781" y="1225" on="0"/>
        <pt x="930" y="1197" on="0"/>
        <pt x="1052" y="1140" on="0"/>
        <pt x="1142" y="1055" on="0"/>
        <pt x="1164" y="998" on="1"/>
        <pt x="1207" y="1051" on="0"/>
        <pt x="1309" y="1136" on="0"/>
        <pt x="1430" y="1195" on="0"/>
        <pt x="1572" y="1226" on="0"/>
        <pt x="1656" y="1226" on="1"/>
        <pt x="1761" y="1226" on="0"/>
        <pt x="1934" y="1149" on="0"/>
        <pt x="2063" y="1025" on="0"/>
        <pt x="2144" y="866" on="0"/>
        <pt x="2156" y="785" on="1"/>
        <pt x="2170" y="767" on="0"/>
        <pt x="2194" y="709" on="0"/>
        <pt x="2194" y="676" on="1"/>
        <pt x="2194" y="634" on="0"/>
        <pt x="2143" y="573" on="0"/>
        <pt x="2080" y="565" on="1"/>
        <pt x="2012" y="558" on="0"/>
        <pt x="1812" y="545" on="0"/>
        <pt x="1583" y="533" on="0"/>
        <pt x="1344" y="523" on="0"/>
        <pt x="1236" y="519" on="1"/>
        <pt x="1247" y="459" on="0"/>
        <pt x="1299" y="364" on="0"/>
        <pt x="1368" y="293" on="0"/>
        <pt x="1448" y="244" on="0"/>
        <pt x="1526" y="213" on="0"/>
        <pt x="1597" y="199" on="0"/>
        <pt x="1623" y="199" on="1"/>
        <pt x="1696" y="199" on="0"/>
        <pt x="1794" y="218" on="0"/>
        <pt x="1862" y="251" on="0"/>
        <pt x="1907" y="298" on="0"/>
        <pt x="1928" y="325" on="1"/>
        <pt x="1949" y="353" on="0"/>
        <pt x="2003" y="386" on="0"/>
        <pt x="2029" y="386" on="1"/>
        <pt x="2053" y="386" on="0"/>
        <pt x="2090" y="368" on="0"/>
        <pt x="2115" y="339" on="0"/>
        <pt x="2129" y="304" on="0"/>
        <pt x="2129" y="286" on="1"/>
        <pt x="2129" y="264" on="0"/>
        <pt x="2123" y="251" on="1"/>
        <pt x="2085" y="168" on="0"/>
        <pt x="1957" y="63" on="0"/>
        <pt x="1810" y="3" on="0"/>
        <pt x="1664" y="-19" on="0"/>
        <pt x="1609" y="-19" on="1"/>
        <pt x="1535" y="-19" on="0"/>
        <pt x="1403" y="15" on="0"/>
        <pt x="1288" y="76" on="0"/>
        <pt x="1191" y="159" on="0"/>
        <pt x="1153" y="209" on="1"/>
        <pt x="1108" y="156" on="0"/>
        <pt x="986" y="72" on="0"/>
        <pt x="836" y="13" on="0"/>
        <pt x="661" y="-19" on="0"/>
        <pt x="564" y="-19" on="1"/>
        <pt x="479" y="-19" on="0"/>
        <pt x="325" y="31" on="0"/>
        <pt x="208" y="122" on="0"/>
        <pt x="139" y="249" on="0"/>
      </contour>
      <contour>
        <pt x="1247" y="721" on="1"/>
        <pt x="1492" y="732" on="0"/>
        <pt x="1831" y="747" on="0"/>
        <pt x="1941" y="758" on="1"/>
        <pt x="1933" y="806" on="0"/>
        <pt x="1887" y="897" on="0"/>
        <pt x="1812" y="968" on="0"/>
        <pt x="1711" y="1011" on="0"/>
        <pt x="1650" y="1011" on="1"/>
        <pt x="1567" y="1011" on="0"/>
        <pt x="1434" y="966" on="0"/>
        <pt x="1333" y="888" on="0"/>
        <pt x="1265" y="782" on="0"/>
      </contour>
      <contour>
        <pt x="366" y="330" on="1"/>
        <pt x="366" y="294" on="0"/>
        <pt x="411" y="243" on="0"/>
        <pt x="480" y="210" on="0"/>
        <pt x="561" y="194" on="0"/>
        <pt x="598" y="194" on="1"/>
        <pt x="671" y="194" on="0"/>
        <pt x="798" y="223" on="0"/>
        <pt x="899" y="270" on="0"/>
        <pt x="974" y="331" on="0"/>
        <pt x="996" y="363" on="1"/>
        <pt x="996" y="362" on="1"/>
        <pt x="1015" y="398" on="0"/>
        <pt x="1045" y="417" on="1"/>
        <pt x="1030" y="466" on="0"/>
        <pt x="1024" y="517" on="1"/>
        <pt x="1000" y="517" on="0"/>
        <pt x="935" y="517" on="0"/>
        <pt x="901" y="518" on="1"/>
        <pt x="881" y="518" on="0"/>
        <pt x="807" y="519" on="0"/>
        <pt x="763" y="519" on="1"/>
        <pt x="659" y="519" on="0"/>
        <pt x="510" y="503" on="0"/>
        <pt x="412" y="460" on="0"/>
        <pt x="366" y="387" on="0"/>
      </contour>
    </TTGlyph>
    <TTGlyph name="aeacute" xMin="139" yMin="-19" xMax="2194" yMax="1881">
      <component glyphName=".ttfautohint" x="139" y="0" flags="0x0"/>
      <component glyphName="ae" x="0" y="0" flags="0x204"/>
      <component glyphName="acute" x="1010" y="0" flags="0x4"/>
    </TTGlyph>
    <TTGlyph name="agrave" xMin="114" yMin="-29" xMax="1553" yMax="1875">
      <component glyphName=".ttfautohint" x="114" y="0" flags="0x0"/>
      <component glyphName="a" x="0" y="0" flags="0x204"/>
      <component glyphName="grave" x="343" y="0" flags="0x4"/>
    </TTGlyph>
    <TTGlyph name="amacron" xMin="114" yMin="-29" xMax="1553" yMax="1671">
      <component glyphName=".ttfautohint" x="114" y="0" flags="0x0"/>
      <component glyphName="a" x="0" y="0" flags="0x204"/>
      <component glyphName="macron" x="247" y="0" flags="0x4"/>
    </TTGlyph>
    <TTGlyph name="ampersand" xMin="264" yMin="-61" xMax="1628" yMax="1565">
      <contour>
        <pt x="264" y="401" on="1"/>
        <pt x="264" y="476" on="0"/>
        <pt x="313" y="587" on="0"/>
        <pt x="395" y="676" on="0"/>
        <pt x="503" y="752" on="0"/>
        <pt x="562" y="791" on="1"/>
        <pt x="529" y="834" on="0"/>
        <pt x="470" y="922" on="0"/>
        <pt x="427" y="1015" on="0"/>
        <pt x="402" y="1115" on="0"/>
        <pt x="402" y="1171" on="1"/>
        <pt x="402" y="1264" on="0"/>
        <pt x="476" y="1410" on="0"/>
        <pt x="594" y="1511" on="0"/>
        <pt x="744" y="1565" on="0"/>
        <pt x="819" y="1565" on="1"/>
        <pt x="889" y="1565" on="0"/>
        <pt x="1027" y="1521" on="0"/>
        <pt x="1136" y="1429" on="0"/>
        <pt x="1203" y="1288" on="0"/>
        <pt x="1203" y="1191" on="1"/>
        <pt x="1203" y="1109" on="0"/>
        <pt x="1144" y="979" on="0"/>
        <pt x="1047" y="872" on="0"/>
        <pt x="920" y="782" on="0"/>
        <pt x="852" y="741" on="1"/>
        <pt x="891" y="690" on="0"/>
        <pt x="977" y="587" on="0"/>
        <pt x="1068" y="489" on="0"/>
        <pt x="1161" y="398" on="0"/>
        <pt x="1208" y="359" on="1"/>
        <pt x="1259" y="394" on="0"/>
        <pt x="1333" y="484" on="0"/>
        <pt x="1382" y="586" on="0"/>
        <pt x="1406" y="697" on="0"/>
        <pt x="1407" y="753" on="1"/>
        <pt x="1404" y="757" on="0"/>
        <pt x="1395" y="767" on="0"/>
        <pt x="1390" y="771" on="1"/>
        <pt x="1382" y="778" on="0"/>
        <pt x="1366" y="795" on="0"/>
        <pt x="1353" y="818" on="0"/>
        <pt x="1345" y="849" on="0"/>
        <pt x="1345" y="871" on="1"/>
        <pt x="1345" y="887" on="0"/>
        <pt x="1357" y="926" on="0"/>
        <pt x="1385" y="960" on="0"/>
        <pt x="1430" y="983" on="0"/>
        <pt x="1462" y="983" on="1"/>
        <pt x="1509" y="983" on="0"/>
        <pt x="1569" y="942" on="0"/>
        <pt x="1603" y="878" on="0"/>
        <pt x="1616" y="801" on="0"/>
        <pt x="1616" y="766" on="1"/>
        <pt x="1616" y="689" on="0"/>
        <pt x="1586" y="540" on="0"/>
        <pt x="1527" y="402" on="0"/>
        <pt x="1438" y="279" on="0"/>
        <pt x="1379" y="230" on="1"/>
        <pt x="1398" y="215" on="0"/>
        <pt x="1432" y="190" on="0"/>
        <pt x="1468" y="169" on="0"/>
        <pt x="1508" y="149" on="0"/>
        <pt x="1534" y="140" on="1"/>
        <pt x="1576" y="138" on="0"/>
        <pt x="1628" y="84" on="0"/>
        <pt x="1628" y="49" on="1"/>
        <pt x="1628" y="32" on="0"/>
        <pt x="1615" y="-7" on="0"/>
        <pt x="1588" y="-40" on="0"/>
        <pt x="1545" y="-61" on="0"/>
        <pt x="1515" y="-61" on="1"/>
        <pt x="1482" y="-61" on="0"/>
        <pt x="1422" y="-40" on="0"/>
        <pt x="1365" y="-7" on="0"/>
        <pt x="1312" y="33" on="0"/>
        <pt x="1288" y="52" on="1"/>
        <pt x="1271" y="66" on="0"/>
        <pt x="1236" y="93" on="0"/>
        <pt x="1217" y="107" on="1"/>
        <pt x="1166" y="69" on="0"/>
        <pt x="1052" y="17" on="0"/>
        <pt x="935" y="-15" on="0"/>
        <pt x="822" y="-30" on="0"/>
        <pt x="773" y="-30" on="1"/>
        <pt x="655" y="-30" on="0"/>
        <pt x="467" y="33" on="0"/>
        <pt x="335" y="146" on="0"/>
        <pt x="264" y="305" on="0"/>
      </contour>
      <contour>
        <pt x="735" y="903" on="1"/>
        <pt x="786" y="933" on="0"/>
        <pt x="878" y="996" on="0"/>
        <pt x="948" y="1065" on="0"/>
        <pt x="989" y="1141" on="0"/>
        <pt x="989" y="1184" on="1"/>
        <pt x="989" y="1232" on="0"/>
        <pt x="961" y="1302" on="0"/>
        <pt x="913" y="1347" on="0"/>
        <pt x="850" y="1368" on="0"/>
        <pt x="814" y="1368" on="1"/>
        <pt x="778" y="1368" on="0"/>
        <pt x="710" y="1344" on="0"/>
        <pt x="656" y="1293" on="0"/>
        <pt x="623" y="1215" on="0"/>
        <pt x="623" y="1162" on="1"/>
        <pt x="623" y="1127" on="0"/>
        <pt x="642" y="1059" on="0"/>
        <pt x="674" y="994" on="0"/>
        <pt x="714" y="931" on="0"/>
      </contour>
      <contour>
        <pt x="488" y="396" on="1"/>
        <pt x="488" y="333" on="0"/>
        <pt x="546" y="247" on="0"/>
        <pt x="634" y="194" on="0"/>
        <pt x="740" y="172" on="0"/>
        <pt x="787" y="172" on="1"/>
        <pt x="813" y="172" on="0"/>
        <pt x="876" y="180" on="0"/>
        <pt x="942" y="198" on="0"/>
        <pt x="1010" y="226" on="0"/>
        <pt x="1041" y="247" on="1"/>
        <pt x="995" y="290" on="0"/>
        <pt x="898" y="386" on="0"/>
        <pt x="805" y="485" on="0"/>
        <pt x="721" y="582" on="0"/>
        <pt x="687" y="627" on="1"/>
        <pt x="641" y="597" on="0"/>
        <pt x="568" y="545" on="0"/>
        <pt x="516" y="493" on="0"/>
        <pt x="488" y="433" on="0"/>
      </contour>
    </TTGlyph>
    <TTGlyph name="aogonek" xMin="117" yMin="-484" xMax="1556" yMax="1260">
      <contour>
        <pt x="117" y="617" on="1"/>
        <pt x="117" y="753" on="0"/>
        <pt x="209" y="987" on="0"/>
        <pt x="370" y="1159" on="0"/>
        <pt x="587" y="1257" on="0"/>
        <pt x="713" y="1257" on="1"/>
        <pt x="777" y="1257" on="0"/>
        <pt x="894" y="1227" on="0"/>
        <pt x="995" y="1178" on="0"/>
        <pt x="1076" y="1116" on="0"/>
        <pt x="1105" y="1083" on="1"/>
        <pt x="1104" y="1097" on="0"/>
        <pt x="1104" y="1129" on="0"/>
        <pt x="1104" y="1141" on="1"/>
        <pt x="1104" y="1166" on="0"/>
        <pt x="1118" y="1209" on="0"/>
        <pt x="1148" y="1241" on="0"/>
        <pt x="1194" y="1260" on="0"/>
        <pt x="1227" y="1260" on="1"/>
        <pt x="1255" y="1260" on="0"/>
        <pt x="1300" y="1239" on="0"/>
        <pt x="1332" y="1208" on="0"/>
        <pt x="1350" y="1173" on="0"/>
        <pt x="1350" y="1159" on="1"/>
        <pt x="1350" y="1125" on="0"/>
        <pt x="1343" y="1056" on="0"/>
        <pt x="1341" y="1021" on="1"/>
        <pt x="1341" y="911" on="0"/>
        <pt x="1338" y="742" on="0"/>
        <pt x="1336" y="671" on="1"/>
        <pt x="1334" y="623" on="0"/>
        <pt x="1332" y="520" on="0"/>
        <pt x="1332" y="477" on="1"/>
        <pt x="1332" y="380" on="0"/>
        <pt x="1332" y="266" on="0"/>
        <pt x="1337" y="240" on="1"/>
        <pt x="1346" y="242" on="0"/>
        <pt x="1381" y="256" on="0"/>
        <pt x="1396" y="264" on="1"/>
        <pt x="1410" y="269" on="0"/>
        <pt x="1438" y="279" on="0"/>
        <pt x="1459" y="279" on="1"/>
        <pt x="1483" y="279" on="0"/>
        <pt x="1519" y="258" on="0"/>
        <pt x="1544" y="225" on="0"/>
        <pt x="1556" y="184" on="0"/>
        <pt x="1556" y="165" on="1"/>
        <pt x="1556" y="138" on="0"/>
        <pt x="1530" y="83" on="0"/>
        <pt x="1495" y="71" on="1"/>
        <pt x="1447" y="54" on="0"/>
        <pt x="1352" y="16" on="0"/>
        <pt x="1301" y="7" on="1"/>
        <pt x="1271" y="-10" on="0"/>
        <pt x="1210" y="-53" on="0"/>
        <pt x="1161" y="-104" on="0"/>
        <pt x="1130" y="-161" on="0"/>
        <pt x="1130" y="-192" on="1"/>
        <pt x="1130" y="-215" on="0"/>
        <pt x="1142" y="-248" on="0"/>
        <pt x="1161" y="-270" on="0"/>
        <pt x="1184" y="-281" on="0"/>
        <pt x="1195" y="-281" on="1"/>
        <pt x="1233" y="-281" on="0"/>
        <pt x="1306" y="-258" on="0"/>
        <pt x="1341" y="-223" on="1"/>
        <pt x="1356" y="-209" on="0"/>
        <pt x="1398" y="-196" on="0"/>
        <pt x="1416" y="-196" on="1"/>
        <pt x="1436" y="-196" on="0"/>
        <pt x="1473" y="-214" on="0"/>
        <pt x="1501" y="-243" on="0"/>
        <pt x="1517" y="-280" on="0"/>
        <pt x="1517" y="-299" on="1"/>
        <pt x="1517" y="-341" on="0"/>
        <pt x="1458" y="-409" on="0"/>
        <pt x="1366" y="-457" on="0"/>
        <pt x="1256" y="-484" on="0"/>
        <pt x="1205" y="-484" on="1"/>
        <pt x="1151" y="-484" on="0"/>
        <pt x="1043" y="-462" on="0"/>
        <pt x="955" y="-402" on="0"/>
        <pt x="900" y="-296" on="0"/>
        <pt x="900" y="-212" on="1"/>
        <pt x="900" y="-173" on="0"/>
        <pt x="932" y="-90" on="0"/>
        <pt x="991" y="-8" on="0"/>
        <pt x="1074" y="68" on="0"/>
        <pt x="1125" y="100" on="1"/>
        <pt x="1120" y="119" on="0"/>
        <pt x="1115" y="158" on="0"/>
        <pt x="1114" y="177" on="1"/>
        <pt x="1083" y="138" on="0"/>
        <pt x="995" y="70" on="0"/>
        <pt x="889" y="18" on="0"/>
        <pt x="768" y="-12" on="0"/>
        <pt x="704" y="-12" on="1"/>
        <pt x="574" y="-12" on="0"/>
        <pt x="358" y="83" on="0"/>
        <pt x="203" y="252" on="0"/>
        <pt x="117" y="482" on="0"/>
      </contour>
      <contour>
        <pt x="347" y="617" on="1"/>
        <pt x="347" y="536" on="0"/>
        <pt x="396" y="386" on="0"/>
        <pt x="489" y="271" on="0"/>
        <pt x="625" y="203" on="0"/>
        <pt x="711" y="203" on="1"/>
        <pt x="796" y="203" on="0"/>
        <pt x="934" y="269" on="0"/>
        <pt x="1037" y="375" on="0"/>
        <pt x="1103" y="506" on="0"/>
        <pt x="1115" y="572" on="1"/>
        <pt x="1115" y="660" on="1"/>
        <pt x="1104" y="721" on="0"/>
        <pt x="1043" y="857" on="0"/>
        <pt x="944" y="972" on="0"/>
        <pt x="806" y="1047" on="0"/>
        <pt x="719" y="1047" on="1"/>
        <pt x="637" y="1047" on="0"/>
        <pt x="501" y="980" on="0"/>
        <pt x="402" y="863" on="0"/>
        <pt x="347" y="707" on="0"/>
      </contour>
    </TTGlyph>
    <TTGlyph name="approxequal" xMin="149" yMin="87" xMax="1327" yMax="1165">
      <component glyphName=".ttfautohint" x="149" y="87" flags="0x0"/>
      <component glyphName="asciitilde" x="0" y="349" flags="0x204"/>
      <component glyphName="asciitilde" x="0" y="-248" flags="0x4"/>
    </TTGlyph>
    <TTGlyph name="aring" xMin="114" yMin="-29" xMax="1553" yMax="1966">
      <component glyphName=".ttfautohint" x="114" y="0" flags="0x0"/>
      <component glyphName="a" x="0" y="0" flags="0x204"/>
      <component glyphName="ring" x="247" y="0" flags="0x4"/>
    </TTGlyph>
    <TTGlyph name="asciicircum" xMin="223" yMin="333" xMax="1288" yMax="1546">
      <contour>
        <pt x="331" y="333" on="1"/>
        <pt x="310" y="333" on="0"/>
        <pt x="271" y="346" on="0"/>
        <pt x="241" y="371" on="0"/>
        <pt x="223" y="409" on="0"/>
        <pt x="223" y="434" on="1"/>
        <pt x="223" y="441" on="0"/>
        <pt x="225" y="461" on="0"/>
        <pt x="230" y="472" on="1"/>
        <pt x="272" y="556" on="0"/>
        <pt x="355" y="754" on="0"/>
        <pt x="450" y="996" on="0"/>
        <pt x="565" y="1288" on="0"/>
        <pt x="640" y="1465" on="1"/>
        <pt x="663" y="1507" on="0"/>
        <pt x="724" y="1546" on="0"/>
        <pt x="754" y="1546" on="1"/>
        <pt x="785" y="1546" on="0"/>
        <pt x="846" y="1506" on="0"/>
        <pt x="868" y="1466" on="1"/>
        <pt x="897" y="1399" on="0"/>
        <pt x="962" y="1244" on="0"/>
        <pt x="1029" y="1081" on="0"/>
        <pt x="1097" y="915" on="0"/>
        <pt x="1160" y="758" on="0"/>
        <pt x="1216" y="617" on="0"/>
        <pt x="1239" y="560" on="1"/>
        <pt x="1251" y="547" on="0"/>
        <pt x="1269" y="509" on="0"/>
        <pt x="1282" y="472" on="0"/>
        <pt x="1288" y="439" on="0"/>
        <pt x="1288" y="430" on="1"/>
        <pt x="1288" y="406" on="0"/>
        <pt x="1271" y="370" on="0"/>
        <pt x="1241" y="346" on="0"/>
        <pt x="1202" y="333" on="0"/>
        <pt x="1181" y="333" on="1"/>
        <pt x="1148" y="333" on="0"/>
        <pt x="1096" y="369" on="0"/>
        <pt x="1058" y="423" on="0"/>
        <pt x="1031" y="486" on="0"/>
        <pt x="1022" y="514" on="1"/>
        <pt x="751" y="1177" on="1"/>
        <pt x="712" y="1088" on="0"/>
        <pt x="632" y="884" on="0"/>
        <pt x="552" y="675" on="0"/>
        <pt x="472" y="471" on="0"/>
        <pt x="433" y="382" on="1"/>
        <pt x="413" y="359" on="0"/>
        <pt x="368" y="333" on="0"/>
      </contour>
    </TTGlyph>
    <TTGlyph name="asciitilde" xMin="149" yMin="335" xMax="1327" yMax="816">
      <contour>
        <pt x="269" y="368" on="1"/>
        <pt x="248" y="368" on="0"/>
        <pt x="206" y="382" on="0"/>
        <pt x="171" y="410" on="0"/>
        <pt x="149" y="452" on="0"/>
        <pt x="149" y="480" on="1"/>
        <pt x="149" y="552" on="0"/>
        <pt x="201" y="675" on="0"/>
        <pt x="289" y="765" on="0"/>
        <pt x="408" y="816" on="0"/>
        <pt x="475" y="816" on="1"/>
        <pt x="534" y="816" on="0"/>
        <pt x="625" y="789" on="0"/>
        <pt x="699" y="745" on="0"/>
        <pt x="759" y="691" on="0"/>
        <pt x="786" y="663" on="1"/>
        <pt x="808" y="640" on="0"/>
        <pt x="854" y="598" on="0"/>
        <pt x="904" y="565" on="0"/>
        <pt x="961" y="545" on="0"/>
        <pt x="994" y="545" on="1"/>
        <pt x="1030" y="545" on="0"/>
        <pt x="1083" y="611" on="0"/>
        <pt x="1087" y="663" on="1"/>
        <pt x="1092" y="717" on="0"/>
        <pt x="1152" y="786" on="0"/>
        <pt x="1206" y="786" on="1"/>
        <pt x="1263" y="786" on="0"/>
        <pt x="1327" y="719" on="0"/>
        <pt x="1325" y="662" on="1"/>
        <pt x="1323" y="590" on="0"/>
        <pt x="1273" y="470" on="0"/>
        <pt x="1189" y="383" on="0"/>
        <pt x="1077" y="335" on="0"/>
        <pt x="1015" y="335" on="1"/>
        <pt x="940" y="335" on="0"/>
        <pt x="828" y="366" on="0"/>
        <pt x="743" y="415" on="0"/>
        <pt x="677" y="476" on="0"/>
        <pt x="648" y="505" on="1"/>
        <pt x="628" y="525" on="0"/>
        <pt x="591" y="562" on="0"/>
        <pt x="550" y="590" on="0"/>
        <pt x="503" y="607" on="0"/>
        <pt x="475" y="607" on="1"/>
        <pt x="451" y="607" on="0"/>
        <pt x="417" y="581" on="0"/>
        <pt x="394" y="537" on="0"/>
        <pt x="380" y="482" on="0"/>
        <pt x="376" y="454" on="1"/>
        <pt x="370" y="412" on="0"/>
        <pt x="310" y="368" on="0"/>
      </contour>
    </TTGlyph>
</ttFont>
